<svg width="193" height="161" viewBox="0 0 193 161" fill="none" xmlns="http://www.w3.org/2000/svg">
<g id="undraw_Chatting_re_j55r 1" clip-path="url(#clip0)">
<path id="Vector" d="M90.6959 161C132.574 161 166.523 159.259 166.523 157.112C166.523 154.964 132.574 153.223 90.6959 153.223C48.8179 153.223 14.8691 154.964 14.8691 157.112C14.8691 159.259 48.8179 161 90.6959 161Z" fill="#F2F2F2"/>
<path id="Vector_2" d="M134.997 37.3659L134.136 37.3659L134.136 13.6985C134.136 10.0656 132.697 6.58144 130.136 4.01256C127.574 1.44368 124.1 0.000492741 120.478 0.000488706L70.4826 0.000488372C66.8603 0.000481472 63.3864 1.44365 60.825 4.01253C58.2637 6.5814 56.8247 10.0655 56.8247 13.6985L56.8247 143.54C56.8247 147.173 58.2636 150.657 60.825 153.226C63.3863 155.794 66.8602 157.238 70.4825 157.238L120.478 157.238C124.1 157.238 127.574 155.795 130.135 153.226C132.697 150.657 134.136 147.173 134.136 143.54L134.136 54.2128L134.997 54.2128L134.997 37.3659Z" fill="#3F3D56"/>
<path id="Vector_3" d="M131.229 13.794L131.229 143.444C131.229 146.157 130.154 148.759 128.241 150.678C126.329 152.596 123.734 153.674 121.029 153.674L70.7937 153.674C68.0885 153.674 65.4942 152.596 63.5813 150.678C61.6684 148.759 60.5938 146.157 60.5937 143.444L60.5937 13.794C60.5938 11.0808 61.6685 8.47881 63.5813 6.56032C65.4942 4.64183 68.0885 3.56402 70.7937 3.56396L76.8879 3.56396C76.5884 4.30199 76.4744 5.10251 76.5558 5.89511C76.6372 6.68771 76.9116 7.4481 77.3548 8.10939C77.7979 8.77068 78.3964 9.31262 79.0974 9.68752C79.7984 10.0624 80.5806 10.2588 81.375 10.2594L110.017 10.2594C110.811 10.2588 111.593 10.0624 112.294 9.68751C112.995 9.3126 113.594 8.77067 114.037 8.10938C114.48 7.44809 114.755 6.6877 114.836 5.8951C114.917 5.10251 114.803 4.30199 114.504 3.56397L121.029 3.56397C123.734 3.56402 126.329 4.64183 128.241 6.56032C130.154 8.47881 131.229 11.0808 131.229 13.794Z" fill="white"/>
<path id="Vector_4" d="M115.046 69.6986C114.712 69.8736 114.372 70.0393 114.027 70.1956C113.712 70.3382 113.393 70.4721 113.068 70.5974C112.95 70.6428 112.829 70.6882 112.708 70.7335C111.755 71.0805 110.775 71.3514 109.779 71.5437C109.285 71.6409 108.786 71.7173 108.279 71.7727C107.861 71.8203 107.439 71.8541 107.013 71.8743C106.709 71.8894 106.405 71.8959 106.099 71.8959C104.888 71.8964 103.679 71.7828 102.489 71.5567C102.179 71.5005 101.875 71.4335 101.571 71.3601C100.102 71.0069 98.6797 70.4804 97.334 69.7915C97.2133 69.731 97.0927 69.6662 96.972 69.6036C96.7932 69.5085 96.6188 69.4091 96.4443 69.3054C96.5283 69.1888 96.6188 69.0743 96.7114 68.9619C97.7194 67.709 98.9793 66.6833 100.409 65.9515C101.839 65.2197 103.406 64.7982 105.009 64.7147C106.612 64.6311 108.215 64.8872 109.712 65.4664C111.21 66.0456 112.569 66.9348 113.701 68.0761C114.094 68.4716 114.459 68.8947 114.791 69.3422C114.88 69.4588 114.964 69.5777 115.046 69.6986Z" fill="#DE756D"/>
<path id="Vector_5" d="M106.529 60.2081C111.753 60.2081 115.988 55.9607 115.988 50.7214C115.988 45.482 111.753 41.2346 106.529 41.2346C101.305 41.2346 97.0703 45.482 97.0703 50.7214C97.0703 55.9607 101.305 60.2081 106.529 60.2081Z" fill="#2F2E41"/>
<path id="Vector_6" d="M109.045 60.2215C112.457 58.351 113.711 54.0609 111.846 50.6393C109.981 47.2176 105.703 45.9601 102.292 47.8305C98.8799 49.701 97.6261 53.9911 99.4911 57.4128C101.356 60.8344 105.634 62.0919 109.045 60.2215Z" fill="#A0616A"/>
<path id="Vector_7" d="M113.066 49.5849C111.457 50.697 109.548 51.2889 107.594 51.281C108.291 51.7657 109.084 52.0931 109.919 52.2406C107.322 52.7995 104.637 52.8146 102.033 52.2851C101.454 52.192 100.896 51.9996 100.382 51.7164C100.126 51.573 99.903 51.3772 99.7274 51.1417C99.5519 50.9062 99.4277 50.6363 99.3629 50.3495C99.1899 49.3581 99.9601 48.4574 100.761 47.8504C101.986 46.9352 103.399 46.3047 104.897 46.0044C106.396 45.7041 107.942 45.7416 109.424 46.1142C110.392 46.3651 111.361 46.7889 111.99 47.5684C112.618 48.3479 112.804 49.5496 112.206 50.3522L113.066 49.5849Z" fill="#2F2E41"/>
<path id="Vector_8" d="M106.099 33.0068C101.871 33.0062 97.7588 34.3921 94.3889 36.9533C91.019 39.5145 88.5765 43.1105 87.4336 47.1932C86.2906 51.276 86.51 55.6216 88.0583 59.5677C89.6065 63.5138 92.3987 66.8439 96.0093 69.0507L96.1343 69.1241C96.2377 69.1868 96.3411 69.2473 96.4445 69.3056C96.619 69.4093 96.7934 69.5087 96.9722 69.6037C97.0928 69.6664 97.2135 69.7312 97.3341 69.7917C98.6798 70.4806 100.102 71.0071 101.571 71.3602C101.875 71.4337 102.179 71.5007 102.489 71.5568C103.679 71.783 104.888 71.8965 106.099 71.896C106.405 71.896 106.709 71.8896 107.013 71.8744C107.439 71.855 107.862 71.8211 108.279 71.7729C108.786 71.7167 109.285 71.6404 109.779 71.5439C110.775 71.3515 111.755 71.0806 112.708 70.7337C112.829 70.6883 112.95 70.6429 113.068 70.5976C113.393 70.4723 113.713 70.3383 114.027 70.1957C114.371 70.0402 114.711 69.8745 115.046 69.6988C118.399 67.9374 121.171 65.2378 123.025 61.9274C123.033 61.9102 123.044 61.8929 123.053 61.8756C124.042 60.0956 124.743 58.1698 125.132 56.1697C125.676 53.354 125.594 50.4523 124.89 47.6723C124.186 44.8923 122.877 42.3029 121.059 40.0894C119.24 37.8759 116.956 36.0931 114.37 34.8687C111.783 33.6443 108.959 33.0085 106.099 33.0068L106.099 33.0068ZM122.699 61.6228C122.682 61.6531 122.667 61.6833 122.65 61.7114C120.833 64.9728 118.1 67.6265 114.792 69.3423C114.462 69.5152 114.127 69.6772 113.786 69.8284C113.503 69.9559 113.215 70.0769 112.924 70.1892C112.801 70.2368 112.676 70.2843 112.551 70.3275C111.727 70.6294 110.883 70.872 110.024 71.0534C109.388 71.1894 108.744 71.2911 108.096 71.3581C107.698 71.4013 107.293 71.4315 106.886 71.4467C106.625 71.4575 106.362 71.4639 106.099 71.4639C104.927 71.4653 103.757 71.3561 102.605 71.1377C101.905 71.0081 101.212 70.8378 100.531 70.6278C99.4934 70.3063 98.4852 69.8965 97.5172 69.4028C97.4052 69.3445 97.2932 69.2861 97.1833 69.2257C97.026 69.1414 96.8667 69.055 96.7115 68.9621C96.5952 68.8973 96.4789 68.8281 96.3647 68.759C96.298 68.7201 96.2312 68.679 96.1644 68.638C92.9987 66.6882 90.4735 63.8491 88.902 60.4731C87.3305 57.097 86.7819 53.3325 87.3242 49.6465C87.8665 45.9606 89.4758 42.5154 91.9526 39.7384C94.4293 36.9615 97.6645 34.9749 101.257 34.0252C104.849 33.0755 108.64 33.2045 112.16 34.3961C115.68 35.5878 118.773 37.7896 121.057 40.7285C123.34 43.6674 124.713 47.214 125.005 50.9284C125.297 54.6427 124.495 58.3613 122.699 61.6228L122.699 61.6228Z" fill="#3F3D56"/>
<path id="Vector_9" d="M101.739 41.3655C101.637 40.2922 100.326 39.6314 99.3011 39.9556C98.2759 40.2798 97.6028 41.3152 97.3993 42.3739C97.3014 42.8197 97.2922 43.2806 97.3723 43.73C97.4523 44.1795 97.62 44.6086 97.8657 44.9929C98.384 45.741 99.3363 46.2078 100.225 46.0179C101.239 45.8011 101.941 44.8081 102.142 43.788C102.343 42.7679 102.143 41.7162 101.944 40.6958L101.739 41.3655Z" fill="#2F2E41"/>
<path id="Vector_10" d="M116.168 42.899C116.067 41.8256 114.756 41.1648 113.73 41.489C112.705 41.8133 112.032 42.8486 111.829 43.9073C111.731 44.3532 111.721 44.814 111.801 45.2635C111.881 45.7129 112.049 46.1421 112.295 46.5264C112.813 47.2744 113.766 47.7412 114.654 47.5513C115.668 47.3346 116.37 46.3416 116.571 45.3215C116.772 44.3014 116.573 43.2497 116.373 42.2293L116.168 42.899Z" fill="#2F2E41"/>
<path id="Vector_11" d="M72.5882 60.2223C72.4541 60.2222 72.3214 60.194 72.1988 60.1395C72.0761 60.085 71.9661 60.0055 71.8759 59.9059L61.1865 48.2104C61.0652 48.0779 60.9178 47.9722 60.7537 47.8998C60.5896 47.8273 60.4123 47.7899 60.233 47.7896L3.74644 47.7896C2.88922 47.7887 2.06739 47.4467 1.46124 46.8388C0.855099 46.2309 0.514146 45.4066 0.513183 44.5469L0.513184 24.1165C0.514145 23.2568 0.855099 22.4326 1.46124 21.8246C2.06739 21.2167 2.88922 20.8747 3.74644 20.8738L76.929 20.8738C77.7862 20.8747 78.608 21.2167 79.2142 21.8246C79.8203 22.4326 80.1613 23.2568 80.1622 24.1166L80.1622 44.5469C80.1613 45.4066 79.8203 46.2309 79.2142 46.8388C78.608 47.4467 77.7862 47.7887 76.929 47.7896L74.8542 47.7896C74.5113 47.79 74.1825 47.9269 73.94 48.1701C73.6975 48.4133 73.5611 48.7431 73.5607 49.087L73.5607 59.2486C73.5616 59.4448 73.5029 59.6365 73.3924 59.7985C73.282 59.9604 73.1251 60.0848 72.9425 60.1551C72.8296 60.1994 72.7094 60.2222 72.5882 60.2223Z" fill="white"/>
<path id="Vector_12" d="M72.5882 60.2223C72.4541 60.2222 72.3214 60.194 72.1988 60.1395C72.0761 60.085 71.9661 60.0055 71.8759 59.9059L61.1865 48.2104C61.0652 48.0779 60.9178 47.9722 60.7537 47.8998C60.5896 47.8273 60.4123 47.7899 60.233 47.7896L3.74644 47.7896C2.88922 47.7887 2.06739 47.4467 1.46124 46.8388C0.855099 46.2309 0.514146 45.4066 0.513183 44.5469L0.513184 24.1165C0.514145 23.2568 0.855099 22.4326 1.46124 21.8246C2.06739 21.2167 2.88922 20.8747 3.74644 20.8738L76.929 20.8738C77.7862 20.8747 78.608 21.2167 79.2142 21.8246C79.8203 22.4326 80.1613 23.2568 80.1622 24.1166L80.1622 44.5469C80.1613 45.4066 79.8203 46.2309 79.2142 46.8388C78.608 47.4467 77.7862 47.7887 76.929 47.7896L74.8542 47.7896C74.5113 47.79 74.1825 47.9269 73.94 48.1701C73.6975 48.4133 73.5611 48.7431 73.5607 49.087L73.5607 59.2486C73.5616 59.4448 73.5029 59.6365 73.3924 59.7985C73.282 59.9604 73.1251 60.0848 72.9425 60.1551C72.8296 60.1994 72.7094 60.2222 72.5882 60.2223ZM3.74644 21.3059C3.00345 21.3067 2.29112 21.6031 1.76575 22.13C1.24038 22.657 0.944856 23.3714 0.944017 24.1165L0.944017 44.5469C0.944857 45.2921 1.24038 46.0065 1.76575 46.5334C2.29113 47.0603 3.00345 47.3567 3.74644 47.3575L60.233 47.3575C60.472 47.3578 60.7083 47.4078 60.9271 47.5043C61.1459 47.6008 61.3423 47.7418 61.504 47.9184L72.1934 59.6139C72.2668 59.6942 72.3627 59.7504 72.4685 59.7751C72.5743 59.7998 72.685 59.7919 72.7862 59.7524C72.8875 59.7129 72.9744 59.6437 73.0357 59.5538C73.0971 59.4639 73.1299 59.3575 73.1299 59.2486L73.1299 49.087C73.1304 48.6285 73.3122 48.1889 73.6355 47.8647C73.9588 47.5404 74.3971 47.3581 74.8542 47.3575L76.929 47.3575C77.672 47.3567 78.3843 47.0603 78.9097 46.5334C79.435 46.0065 79.7306 45.2921 79.7314 44.5469L79.7314 24.1166C79.7306 23.3714 79.435 22.657 78.9097 22.13C78.3843 21.6031 77.672 21.3067 76.929 21.3059L3.74644 21.3059Z" fill="#3F3D56"/>
<path id="Vector_13" d="M8.44397 29.8863C10.0065 29.8863 11.2732 28.6159 11.2732 27.0487C11.2732 25.4816 10.0065 24.2112 8.44397 24.2112C6.88143 24.2112 5.61475 25.4816 5.61475 27.0487C5.61475 28.6159 6.88143 29.8863 8.44397 29.8863Z" fill="#DE756D"/>
<path id="Vector_14" d="M73.6284 42.7499L7.04734 42.7499C6.84904 42.7501 6.65263 42.7111 6.46935 42.6352C6.28607 42.5592 6.11952 42.4478 5.97921 42.3073C5.83891 42.1667 5.7276 41.9998 5.65165 41.8161C5.57571 41.6323 5.53662 41.4354 5.53662 41.2365C5.53662 41.0376 5.57571 40.8407 5.65165 40.6569C5.7276 40.4732 5.83891 40.3063 5.97921 40.1658C6.11952 40.0252 6.28607 39.9138 6.46935 39.8378C6.65263 39.7619 6.84904 39.7229 7.04734 39.7231L73.6284 39.7231C74.0283 39.7236 74.4116 39.8833 74.6942 40.167C74.9768 40.4508 75.1355 40.8355 75.1355 41.2365C75.1355 41.6376 74.9768 42.0222 74.6942 42.306C74.4116 42.5897 74.0283 42.7494 73.6284 42.7499Z" fill="#E6E6E6"/>
<path id="Vector_15" d="M51.9377 36.318L7.04734 36.318C6.84904 36.3182 6.65263 36.2793 6.46935 36.2033C6.28607 36.1274 6.11952 36.0159 5.97921 35.8754C5.83891 35.7348 5.7276 35.5679 5.65165 35.3842C5.57571 35.2005 5.53662 35.0035 5.53662 34.8046C5.53662 34.6057 5.57571 34.4088 5.65165 34.2251C5.7276 34.0413 5.83891 33.8744 5.97921 33.7339C6.11952 33.5933 6.28607 33.4819 6.46935 33.4059C6.65263 33.33 6.84904 33.291 7.04734 33.2913L51.9377 33.2913C52.3379 33.2913 52.7217 33.4507 53.0046 33.7345C53.2876 34.0183 53.4466 34.4033 53.4466 34.8046C53.4466 35.206 53.2876 35.5909 53.0046 35.8747C52.7217 36.1585 52.3379 36.318 51.9377 36.318Z" fill="#E6E6E6"/>
<path id="Vector_16" d="M120.084 129.507C119.901 129.437 119.744 129.313 119.634 129.151C119.524 128.989 119.465 128.797 119.466 128.601L119.466 118.439C119.465 118.095 119.329 117.766 119.086 117.522C118.844 117.279 118.515 117.142 118.172 117.142L116.098 117.142C115.24 117.141 114.418 116.799 113.812 116.191C113.206 115.583 112.865 114.759 112.864 113.899L112.864 93.4688C112.865 92.6091 113.206 91.7849 113.812 91.1769C114.418 90.569 115.24 90.227 116.098 90.2261L189.28 90.2261C190.137 90.227 190.959 90.569 191.565 91.1769C192.171 91.7849 192.512 92.6091 192.513 93.4688L192.513 113.899C192.512 114.759 192.171 115.583 191.565 116.191C190.959 116.799 190.137 117.141 189.28 117.142L132.794 117.142C132.614 117.142 132.437 117.18 132.273 117.252C132.109 117.324 131.961 117.43 131.84 117.563L121.151 129.258C121.06 129.358 120.95 129.437 120.828 129.492C120.705 129.546 120.572 129.574 120.438 129.575C120.317 129.574 120.197 129.552 120.084 129.507Z" fill="white"/>
<path id="Vector_17" d="M120.084 129.507C119.901 129.437 119.744 129.313 119.634 129.151C119.524 128.989 119.465 128.797 119.466 128.601L119.466 118.439C119.465 118.095 119.329 117.766 119.086 117.522C118.844 117.279 118.515 117.142 118.172 117.142L116.098 117.142C115.24 117.141 114.418 116.799 113.812 116.191C113.206 115.583 112.865 114.759 112.864 113.899L112.864 93.4688C112.865 92.6091 113.206 91.7849 113.812 91.1769C114.418 90.569 115.24 90.227 116.098 90.2261L189.28 90.2261C190.137 90.227 190.959 90.569 191.565 91.1769C192.171 91.7849 192.512 92.6091 192.513 93.4688L192.513 113.899C192.512 114.759 192.171 115.583 191.565 116.191C190.959 116.799 190.137 117.141 189.28 117.142L132.794 117.142C132.614 117.142 132.437 117.18 132.273 117.252C132.109 117.324 131.961 117.43 131.84 117.563L121.151 129.258C121.06 129.358 120.95 129.437 120.828 129.492C120.705 129.546 120.572 129.574 120.438 129.575C120.317 129.574 120.197 129.552 120.084 129.507ZM116.098 90.6582C115.355 90.659 114.642 90.9554 114.117 91.4823C113.591 92.0093 113.296 92.7237 113.295 93.4688L113.295 113.899C113.296 114.644 113.591 115.359 114.117 115.886C114.642 116.413 115.355 116.709 116.098 116.71L118.172 116.71C118.629 116.71 119.068 116.893 119.391 117.217C119.714 117.541 119.896 117.981 119.897 118.439L119.897 128.601C119.897 128.71 119.929 128.816 119.991 128.906C120.052 128.996 120.139 129.065 120.24 129.105C120.341 129.144 120.452 129.152 120.558 129.127C120.664 129.103 120.76 129.046 120.833 128.966L131.522 117.271C131.684 117.094 131.881 116.953 132.099 116.857C132.318 116.76 132.555 116.71 132.794 116.71L189.28 116.71C190.023 116.709 190.735 116.413 191.261 115.886C191.786 115.359 192.082 114.644 192.082 113.899L192.082 93.4688C192.082 92.7237 191.786 92.0093 191.261 91.4823C190.735 90.9554 190.023 90.659 189.28 90.6582L116.098 90.6582Z" fill="#3F3D56"/>
<path id="Vector_18" d="M97.2735 135.834C94.2724 137.761 90.7954 138.812 87.2321 138.869C83.6689 138.926 80.1603 137.987 77.0996 136.156C77.638 135.151 78.3203 134.23 79.1246 133.423C80.3657 132.172 81.876 131.224 83.5397 130.65C85.2034 130.076 86.976 129.892 88.7215 130.113C90.4671 130.333 92.1389 130.952 93.6087 131.922C95.0785 132.892 96.3071 134.186 97.2002 135.707C97.2238 135.748 97.2497 135.791 97.2735 135.834Z" fill="#DE756D"/>
<path id="Vector_19" d="M86.3445 125.502C91.6032 125.502 95.8663 121.227 95.8663 115.953C95.8663 110.678 91.6032 106.403 86.3445 106.403C81.0858 106.403 76.8228 110.678 76.8228 115.953C76.8228 121.227 81.0858 125.502 86.3445 125.502Z" fill="#2F2E41"/>
<path id="Vector_20" d="M93.4297 122.689C95.307 119.244 94.0449 114.926 90.6106 113.043C87.1763 111.16 82.8704 112.426 80.993 115.87C79.1156 119.314 80.3778 123.633 83.8121 125.516C87.2464 127.399 91.5523 126.133 93.4297 122.689Z" fill="#FFB8B8"/>
<path id="Vector_21" d="M79.7646 114.809C81.3841 115.928 83.3062 116.524 85.273 116.516C84.5715 117.004 83.7728 117.333 82.932 117.482C85.547 118.044 88.2496 118.06 90.8708 117.527C91.4534 117.433 92.0156 117.239 92.5327 116.954C92.7904 116.81 93.0149 116.613 93.1916 116.376C93.3683 116.139 93.4934 115.867 93.5585 115.578C93.7327 114.58 92.9574 113.674 92.1516 113.063C90.9179 112.141 89.4955 111.507 87.9873 111.204C86.479 110.902 84.9226 110.94 83.4307 111.315C82.4565 111.567 81.4806 111.994 80.8478 112.779C80.2151 113.563 80.0277 114.773 80.6305 115.581L79.7646 114.809Z" fill="#2F2E41"/>
<path id="Vector_22" d="M86.9273 139.088C82.264 139.086 77.7577 137.399 74.2347 134.334C70.7118 131.27 68.4086 127.035 67.7475 122.405C67.0865 117.775 68.1119 113.062 70.6358 109.129C73.1596 105.196 77.0126 102.308 81.4881 100.994C85.9635 99.6796 90.7612 100.028 95.0012 101.975C99.2413 103.922 102.639 107.337 104.572 111.593C106.505 115.849 106.842 120.662 105.523 125.148C104.204 129.634 101.317 133.492 97.3903 136.016C94.268 138.024 90.6363 139.09 86.9273 139.088ZM86.9273 100.631C83.1775 100.63 79.5118 101.745 76.3938 103.834C73.2759 105.924 70.8456 108.893 69.4105 112.368C67.9753 115.842 67.5997 119.666 68.3312 123.354C69.0627 127.043 70.8683 130.431 73.5198 133.09C76.1713 135.749 79.5496 137.56 83.2273 138.294C86.9051 139.028 90.7171 138.651 94.1814 137.212C97.6457 135.772 100.607 133.335 102.69 130.208C104.773 127.081 105.884 123.404 105.884 119.643C105.878 114.603 103.879 109.77 100.325 106.206C96.7716 102.641 91.9532 100.636 86.9273 100.631Z" fill="#3F3D56"/>
<path id="Vector_23" d="M121.969 99.0225C123.531 99.0225 124.798 97.7521 124.798 96.185C124.798 94.6178 123.531 93.3474 121.969 93.3474C120.406 93.3474 119.14 94.6178 119.14 96.185C119.14 97.7521 120.406 99.0225 121.969 99.0225Z" fill="#DE756D"/>
<path id="Vector_24" d="M187.153 111.886L120.572 111.886C120.373 111.886 120.177 111.847 119.994 111.771C119.81 111.695 119.644 111.584 119.504 111.444C119.363 111.303 119.252 111.136 119.176 110.952C119.1 110.769 119.061 110.572 119.061 110.373C119.061 110.174 119.1 109.977 119.176 109.793C119.252 109.609 119.363 109.443 119.504 109.302C119.644 109.161 119.81 109.05 119.994 108.974C120.177 108.898 120.373 108.859 120.572 108.859L187.153 108.859C187.553 108.859 187.937 109.019 188.22 109.303C188.503 109.586 188.662 109.971 188.662 110.373C188.662 110.774 188.503 111.159 188.22 111.443C187.937 111.727 187.553 111.886 187.153 111.886Z" fill="#E6E6E6"/>
<path id="Vector_25" d="M165.462 105.454L120.572 105.454C120.373 105.454 120.177 105.415 119.994 105.34C119.81 105.264 119.644 105.152 119.504 105.012C119.363 104.871 119.252 104.704 119.176 104.52C119.1 104.337 119.061 104.14 119.061 103.941C119.061 103.742 119.1 103.545 119.176 103.361C119.252 103.178 119.363 103.011 119.504 102.87C119.644 102.73 119.81 102.618 119.994 102.542C120.177 102.466 120.373 102.427 120.572 102.427L165.462 102.427C165.862 102.428 166.245 102.588 166.528 102.871C166.81 103.155 166.969 103.54 166.969 103.941C166.969 104.342 166.81 104.727 166.528 105.01C166.245 105.294 165.862 105.454 165.462 105.454Z" fill="#E6E6E6"/>
<path id="Vector_26" d="M119.993 131.442C122.908 131.442 125.272 131.179 125.272 130.854C125.272 130.53 122.908 130.267 119.993 130.267C117.078 130.267 114.714 130.53 114.714 130.854C114.714 131.179 117.078 131.442 119.993 131.442Z" fill="#F2F2F2"/>
<path id="Vector_27" d="M72.8167 62.3053C75.7319 62.3053 78.0952 62.0422 78.0952 61.7177C78.0952 61.3932 75.7319 61.1301 72.8167 61.1301C69.9014 61.1301 67.5381 61.3932 67.5381 61.7177C67.5381 62.0422 69.9014 62.3053 72.8167 62.3053Z" fill="#F2F2F2"/>
</g>
<defs>
<clipPath id="clip0">
<rect width="192" height="161" fill="white" transform="translate(0.513184 0.000488281)"/>
</clipPath>
</defs>
</svg>
