<svg width="563" height="647" viewBox="0 0 563 647" fill="none" xmlns="http://www.w3.org/2000/svg">
<g id="undraw_Memory_storage_reh0 1">
<path id="Vector" d="M284.473 647C399.667 647 493.05 628.808 493.05 606.367C493.05 583.926 399.667 565.734 284.473 565.734C169.28 565.734 75.8967 583.926 75.8967 606.367C75.8967 628.808 169.28 647 284.473 647Z" fill="#3F3D56"/>
<path id="Vector_2" d="M110.647 223.641C110.647 164.445 189.454 116.457 286.667 116.457C383.881 116.457 462.688 164.445 462.688 223.641" stroke="#3F3D56" stroke-width="2" stroke-miterlimit="10"/>
<path id="Vector_3" d="M342.014 157.726H198.812C170.489 105.151 170.489 52.5755 198.812 0H342.014C302.411 52.5755 302.411 105.151 342.014 157.726Z" fill="#E6E6E6"/>
<path id="Vector_4" d="M299.963 18.7769H219.269V30.0431H299.963V18.7769Z" fill="#6C63FF"/>
<path id="Vector_5" d="M299.962 55.7049H193.129V59.4603H299.962V55.7049Z" fill="white"/>
<path id="Vector_6" d="M299.962 75.1078H193.129V78.8632H299.962V75.1078Z" fill="white"/>
<path id="Vector_7" d="M299.962 94.5106H193.129V98.266H299.962V94.5106Z" fill="white"/>
<path id="Vector_8" d="M399.187 506.863C399.187 556.885 427.679 597.363 462.889 597.363L399.187 506.863Z" fill="#3F3D56"/>
<path id="Vector_9" d="M462.889 597.363C462.889 546.778 494.684 505.846 533.976 505.846L462.889 597.363Z" fill="#6C63FF"/>
<path id="Vector_10" d="M422.268 511.398C422.268 558.914 440.436 597.363 462.889 597.363L422.268 511.398Z" fill="#6C63FF"/>
<path id="Vector_11" d="M462.889 597.363C462.889 532.727 499.639 480.425 545.055 480.425L462.889 597.363Z" fill="#3F3D56"/>
<path id="Vector_12" d="M449.488 598.001C449.488 598.001 458.522 597.694 461.244 595.559C463.967 593.424 475.141 590.874 475.816 594.299C476.491 597.723 489.392 611.331 479.193 611.422C468.994 611.512 455.495 609.672 452.777 607.849C450.06 606.026 449.488 598.001 449.488 598.001Z" fill="#A8A8A8"/>
<path id="Vector_13" opacity="0.2" d="M479.375 610.23C469.176 610.32 455.677 608.48 452.959 606.657C450.89 605.268 450.065 600.286 449.789 597.988C449.598 597.997 449.488 598.001 449.488 598.001C449.488 598.001 450.06 606.026 452.777 607.849C455.495 609.672 468.994 611.513 479.193 611.422C482.137 611.396 483.154 610.242 483.098 608.533C482.689 609.566 481.566 610.21 479.375 610.23Z" fill="black"/>
<path id="Vector_14" d="M253.86 123.213C254.689 123.631 255.687 123.007 256.176 122.159C258.037 118.928 254.61 114.762 255.352 111.024C255.947 108.029 259.036 106.252 259.668 103.266C260.282 100.366 258.39 97.0958 259.669 94.4709C260.67 92.4145 263.172 91.8733 265.265 92.2336C267.359 92.5938 269.346 93.6074 271.46 93.7494C274.278 93.9386 276.965 92.5723 279.72 91.8953C282.476 91.2183 285.837 91.4834 287.458 94.0293C289.539 97.2983 287.428 101.85 288.153 105.762C288.728 108.869 291.089 111.441 291.14 114.611C291.158 115.738 288.469 114.83 288.612 115.946C288.755 117.062 287.484 116.079 288.5 115.947C288.915 115.835 289.286 115.581 289.561 115.22C289.836 114.86 290 114.413 290.029 113.944C290.15 113.014 291.735 112.705 291.717 111.766C291.674 109.566 295.285 111.049 295.88 108.949C297.247 104.052 296.967 98.7762 295.089 94.0886C294.279 92.0875 293.177 90.1935 292.786 88.0452C292.255 85.1284 293.09 81.9972 292.215 79.1829C291.036 75.3902 287.135 73.4568 283.512 73.0641C279.89 72.6714 276.209 73.3743 272.608 72.7953C269.381 72.2766 266.258 70.7365 263.004 70.9596C259.099 71.2274 255.701 73.9985 252.994 77.1099C250.287 80.2214 247.991 83.8 244.917 86.4655C243.976 87.1788 243.108 88.0021 242.327 88.9212C240.761 91.0227 240.603 94.0166 241.038 96.6925C241.474 99.3684 242.421 101.921 242.822 104.604C243.198 107.125 243.082 109.7 243.244 112.249C243.406 114.797 243.886 117.423 245.28 119.465C245.838 120.3 246.561 120.983 247.395 121.463C248.229 121.942 249.151 122.206 250.091 122.234C250.743 122.251 251.293 121.606 251.951 121.774C252.773 121.984 253.13 122.844 253.86 123.213Z" fill="#2F2E41"/>
<path id="Vector_15" d="M225.99 308.424L228.405 324.765L233.236 317.544L230.476 306.524L225.99 308.424Z" fill="#A0616A"/>
<path id="Vector_16" d="M229.096 184.919L225.293 195.957C225.293 195.957 221.505 252.182 221.505 256.362C221.505 260.542 224.265 314.124 225.3 316.405C225.3 316.405 229.786 309.184 235.651 310.324C241.516 311.464 239.101 291.323 239.101 291.323L244.622 241.541L243.586 216.46L229.096 184.919Z" fill="#575A89"/>
<path id="Vector_17" opacity="0.1" d="M229.096 184.919L225.293 195.957C225.293 195.957 221.505 252.182 221.505 256.362C221.505 260.542 224.265 314.124 225.3 316.405C225.3 316.405 229.786 309.184 235.651 310.324C241.516 311.464 239.101 291.323 239.101 291.323L244.622 241.541L243.586 216.46L229.096 184.919Z" fill="black"/>
<path id="Vector_18" d="M252.557 124.116C252.557 124.116 263.943 156.038 257.387 162.118C250.832 168.198 293.96 151.858 293.96 151.858L292.925 147.677C292.925 147.677 278.779 141.597 285.679 124.116C292.58 106.636 252.557 124.116 252.557 124.116Z" fill="#A0616A"/>
<path id="Vector_19" opacity="0.1" d="M252.557 124.116C252.557 124.116 263.943 156.038 257.387 162.118C250.832 168.198 293.96 151.858 293.96 151.858L292.925 147.677C292.925 147.677 278.779 141.597 285.679 124.116C292.58 106.636 252.557 124.116 252.557 124.116Z" fill="black"/>
<path id="Vector_20" d="M234.616 550.494C234.616 550.494 229.786 548.974 227.025 552.774C224.265 556.575 213.915 566.075 213.915 566.075C213.915 566.075 193.903 563.795 191.143 574.815C188.383 585.836 222.54 585.836 230.821 583.176C239.101 580.516 240.826 583.176 240.826 583.176C240.826 583.176 266.358 585.456 266.358 580.896C266.358 576.335 263.943 560.755 263.943 560.755L234.616 550.494Z" fill="#575A89"/>
<path id="Vector_21" d="M315.696 575.955L311.211 591.156C311.211 591.156 297.755 611.677 305.345 615.857C312.936 620.037 339.847 624.217 339.847 613.197V592.296C339.847 592.296 337.087 577.475 334.327 575.955C331.567 574.435 315.696 575.955 315.696 575.955Z" fill="#575A89"/>
<path id="Vector_22" d="M239.502 302.864C239.502 302.864 224.955 316.784 225.3 318.685C225.645 320.585 232.546 442.57 232.546 442.57L236.341 521.613C236.341 521.613 231.511 540.234 233.926 544.414C236.341 548.594 230.476 549.734 230.476 549.734C230.476 549.734 255.317 574.435 265.668 563.795L275.328 425.849L301.895 526.173C301.895 526.173 306.38 579.375 311.556 579.375C316.731 579.375 337.777 580.516 337.432 577.475C337.087 574.435 338.467 551.254 336.052 537.574C333.637 523.893 317.421 415.589 317.421 415.589C317.421 415.589 316.027 322.741 319.657 314.063C323.286 305.384 317.766 296.264 317.766 296.264L293.615 286.003L264.633 289.803L239.502 302.864Z" fill="#2F2E41"/>
<path id="Vector_23" d="M268.773 137.037C282.112 137.037 292.925 125.127 292.925 110.436C292.925 95.7445 282.112 83.8348 268.773 83.8348C255.435 83.8348 244.622 95.7445 244.622 110.436C244.622 125.127 255.435 137.037 268.773 137.037Z" fill="#A0616A"/>
<path id="Vector_24" d="M327.427 167.818C326.234 164.1 324.223 160.766 321.573 158.113C318.924 155.461 315.719 153.572 312.246 152.618C305.286 150.69 298.479 148.148 291.889 145.017C291.889 145.017 267.393 157.938 262.563 157.938C257.732 157.938 257.732 154.518 257.732 154.518C257.732 154.518 245.312 168.958 238.756 170.478C232.201 171.999 222.54 189.859 225.99 199.74C228.334 206.074 231.727 211.873 235.996 216.84C235.996 216.84 234.616 270.043 239.101 279.923C239.101 279.923 228.061 303.104 238.411 304.624C248.762 306.144 288.439 300.824 295.34 306.144C302.24 311.464 315.006 305.004 316.731 312.224C318.456 319.445 322.251 320.965 322.251 320.965C322.251 320.965 328.117 310.704 324.666 304.624C321.216 298.544 327.427 167.818 327.427 167.818Z" fill="#575A89"/>
<path id="Vector_25" d="M301.895 310.704L296.375 314.504C296.375 314.504 302.24 336.925 304.655 337.685C307.07 338.445 312.755 318.514 312.755 318.514L301.895 310.704Z" fill="#A0616A"/>
<path id="Vector_26" d="M249.72 120.552C250.549 120.971 251.547 120.347 252.036 119.499C253.897 116.268 250.47 112.102 251.212 108.364C251.806 105.369 254.896 103.592 255.528 100.606C256.142 97.7055 254.25 94.4356 255.529 91.8108C256.53 89.7544 259.032 89.2132 261.125 89.5735C263.219 89.9337 265.205 90.9473 267.32 91.0893C270.138 91.2785 272.825 89.9122 275.58 89.2352C278.336 88.5582 281.697 88.8233 283.318 91.3692C285.399 94.6382 283.288 99.1902 284.012 103.102C284.588 106.209 291.145 108.389 291.739 106.289C293.107 101.392 292.826 96.116 290.949 91.4285C290.139 89.4274 289.036 87.5334 288.646 85.3851C288.115 82.4683 288.95 79.3371 288.075 76.5228C286.896 72.7301 282.994 70.7967 279.372 70.404C275.75 70.0113 272.069 70.7142 268.467 70.1352C265.241 69.6165 262.118 68.0764 258.863 68.2995C254.959 68.5673 251.561 71.3384 248.854 74.4498C246.147 77.5612 243.851 81.1399 240.777 83.8054C239.836 84.5187 238.967 85.342 238.187 86.2611C236.621 88.3626 236.462 91.3565 236.898 94.0324C237.334 96.7083 238.281 99.2608 238.681 101.943C239.058 104.464 238.942 107.04 239.103 109.589C239.265 112.137 239.746 114.763 241.139 116.805C241.697 117.64 242.421 118.323 243.255 118.803C244.089 119.282 245.011 119.546 245.951 119.574C246.603 119.591 247.153 118.946 247.811 119.114C248.633 119.324 248.99 120.184 249.72 120.552Z" fill="#2F2E41"/>
<path id="Vector_27" opacity="0.1" d="M313.798 174.469L325.011 167.818C325.011 167.818 352.268 239.261 345.713 259.022C339.157 278.783 313.971 319.445 313.971 319.445C313.971 319.445 293.96 314.884 296.03 310.324C298.1 305.764 311.556 276.503 312.591 272.703C313.626 268.902 320.526 244.201 317.421 241.541C314.316 238.881 308.278 177.129 308.278 177.129L313.798 174.469Z" fill="black"/>
<path id="Vector_28" d="M313.626 163.638L327.427 167.818C327.427 167.818 354.683 239.261 348.128 259.022C341.572 278.783 316.386 319.445 316.386 319.445C316.386 319.445 296.375 314.884 298.445 310.324C300.515 305.764 313.971 276.503 315.006 272.703C316.041 268.902 322.941 244.201 319.836 241.541C316.731 238.881 301.895 173.139 301.895 173.139L313.626 163.638Z" fill="#575A89"/>
<path id="Vector_29" d="M462.688 223.641C462.688 285.704 383.881 336.016 286.668 336.016C189.454 336.016 110.647 285.704 110.647 223.641" stroke="#3F3D56" stroke-width="2" stroke-miterlimit="10"/>
<path id="Vector_30" d="M430.67 337.61C391.325 360.983 339.987 375.126 283.828 375.126C229.984 375.126 180.571 362.124 141.911 340.453" stroke="#3F3D56" stroke-width="2" stroke-miterlimit="10"/>
<path id="Vector_31" d="M374.57 87.4432C449.448 109.12 502.775 156.802 507.734 212.96" stroke="#3F3D56" stroke-width="2" stroke-miterlimit="10"/>
<path id="Vector_32" d="M70.3507 176.458C82.9672 150.918 106.015 128.441 136.213 111.173" stroke="#3F3D56" stroke-width="2" stroke-miterlimit="10"/>
<path id="Vector_33" d="M225.147 449.858H368.349C396.672 397.282 396.672 344.707 368.349 292.132H225.147C264.75 344.707 264.75 397.282 225.147 449.858Z" fill="#F2F2F2"/>
<path id="Vector_34" d="M353.223 322.175H272.53V333.441H353.223V322.175Z" fill="#6C63FF"/>
<path id="Vector_35" d="M373.112 355.973H266.279V359.729H373.112V355.973Z" fill="white"/>
<path id="Vector_36" d="M373.112 375.376H266.279V379.131H373.112V375.376Z" fill="white"/>
<path id="Vector_37" d="M164.444 342.8H21.2424C-7.0808 290.225 -7.0808 237.649 21.2424 185.074H164.444C124.842 237.649 124.842 290.225 164.444 342.8Z" fill="#F2F2F2"/>
<path id="Vector_38" d="M117.847 203.851H37.1537V215.117H117.847V203.851Z" fill="#6C63FF"/>
<path id="Vector_39" d="M126.371 235.146H19.5376V238.901H126.371V235.146Z" fill="white"/>
<path id="Vector_40" d="M126.371 254.549H19.5376V258.304H126.371V254.549Z" fill="white"/>
<path id="Vector_41" d="M126.371 273.951H19.5376V277.707H126.371V273.951Z" fill="white"/>
<path id="Vector_42" d="M126.371 293.354H19.5376V297.11H126.371V293.354Z" fill="white"/>
<path id="Vector_43" d="M398.556 270.146H541.758C570.081 217.571 570.081 164.995 541.758 112.42H398.556C438.158 164.995 438.158 217.571 398.556 270.146Z" fill="#F2F2F2"/>
<path id="Vector_44" d="M524.927 128.067H444.234V139.333H524.927V128.067Z" fill="#6C63FF"/>
<path id="Vector_45" d="M542.543 159.362H435.71V163.117H542.543V159.362Z" fill="white"/>
</g>
</svg>
