<svg width="256" height="188" viewBox="0 0 256 188" fill="none" xmlns="http://www.w3.org/2000/svg">
<g id="undraw_youtube_tutorial_2gn3 1" clip-path="url(#clip0)">
<path id="Vector" opacity="0.1" d="M148.671 28.1921C132.324 27.6246 116.753 22.3343 101.886 16.5512C87.0194 10.768 72.2904 4.35862 56.3359 1.29296C46.0728 -0.678467 34.336 -0.952026 26.0677 4.55531C18.1085 9.85917 15.5382 19.0245 14.1571 27.5138C13.1168 33.9074 12.5053 40.6265 15.3531 46.62C17.3322 50.7731 20.8458 54.266 23.2762 58.245C31.7273 72.0948 25.7585 89.1707 16.592 102.69C12.3044 109.034 7.31049 115.084 3.99549 121.837C0.680492 128.59 -0.854021 136.324 2.04576 143.211C4.92297 150.038 11.7741 155.166 19.1962 158.772C34.2728 166.097 52.0393 168.195 69.3635 169.382C107.715 172 146.27 170.87 184.721 169.739C198.951 169.316 213.242 168.889 227.242 166.685C235.014 165.462 243.039 163.52 248.68 158.829C255.845 152.874 257.621 142.79 252.819 135.316C244.767 122.793 222.501 119.683 216.873 106.242C213.775 98.8447 216.957 90.604 221.459 83.7425C231.117 69.0223 247.306 56.1108 248.159 39.2859C248.746 27.7309 240.963 16.1578 228.93 10.6912C216.316 4.96 198.827 5.6812 189.52 15.1676C179.943 24.9365 163.104 28.694 148.671 28.1921Z" fill="#DE756D"/>
<path id="Vector_2" d="M150.395 170.893L106.39 170.328L106.519 169.197L108.647 150.546L147.292 150.546L150.135 169.197L150.352 170.61L150.395 170.893Z" fill="#D0D2D5"/>
<path id="Vector_3" opacity="0.1" d="M150.352 170.61L128.392 170.61L106.39 170.328L106.519 169.197L150.135 169.197L150.352 170.61Z" fill="black"/>
<path id="Vector_4" d="M157.447 169.48L99.0562 169.48L99.0562 170.893L157.447 170.893L157.447 169.48Z" fill="#D0D2D5"/>
<path id="Vector_5" d="M213.156 38.518C213.158 38.0349 213.066 37.5561 212.883 37.1089C212.701 36.6617 212.433 36.2549 212.093 35.9117C211.754 35.5684 211.351 35.2955 210.906 35.1084C210.462 34.9214 209.985 34.8239 209.502 34.8215L46.4356 34.8215C45.9532 34.8236 45.476 34.9209 45.0312 35.1078C44.5864 35.2947 44.1827 35.5676 43.8432 35.9109C43.5037 36.2541 43.2351 36.6611 43.0526 37.1084C42.8701 37.5557 42.7775 38.0347 42.7798 38.518L42.7798 137.542L213.156 137.542L213.156 38.518Z" fill="#444053"/>
<path id="Vector_6" d="M42.7798 136.558L42.7798 148.156C42.7798 149.127 43.1649 150.059 43.8505 150.746C44.5361 151.433 45.466 151.819 46.4355 151.819L209.502 151.819C210.472 151.818 211.401 151.432 212.086 150.745C212.771 150.058 213.156 149.127 213.156 148.156L213.156 136.558L42.7798 136.558Z" fill="#D0D2D5"/>
<path id="Vector_7" opacity="0.1" d="M206.95 41.0388L49.832 41.0388L49.832 130.058L206.95 130.058L206.95 41.0388Z" fill="#DE756D"/>
<path id="Vector_8" d="M128.814 147.417C129.391 147.417 129.961 147.286 130.48 147.034C130.999 146.782 131.454 146.415 131.811 145.961C131.92 145.822 132.018 145.676 132.107 145.524L130.017 145.181L132.274 145.199C132.492 144.726 132.61 144.214 132.623 143.694C132.635 143.174 132.541 142.656 132.346 142.174L129.315 143.756L132.111 141.699C131.849 141.248 131.496 140.855 131.076 140.546C130.655 140.236 130.176 140.017 129.667 139.901C129.159 139.785 128.632 139.775 128.119 139.872C127.607 139.968 127.119 140.169 126.687 140.462C126.256 140.755 125.888 141.134 125.609 141.575C125.329 142.016 125.143 142.51 125.062 143.027C124.981 143.543 125.006 144.07 125.137 144.576C125.268 145.082 125.501 145.556 125.822 145.967C126.179 146.42 126.634 146.785 127.152 147.036C127.67 147.287 128.239 147.417 128.814 147.417Z" fill="#DE756D"/>
<path id="Vector_9" opacity="0.1" d="M132.624 151.819L150.178 169.48L147.486 151.819L132.624 151.819Z" fill="black"/>
<path id="Vector_10" d="M156.988 57.0996L55.0335 57.0996C54.7095 57.0996 54.4468 57.3628 54.4468 57.6874L54.4468 118.458C54.4468 118.783 54.7095 119.046 55.0335 119.046L156.988 119.046C157.312 119.046 157.575 118.783 157.575 118.458L157.575 57.6874C157.575 57.3628 157.312 57.0996 156.988 57.0996Z" fill="white"/>
<path id="Vector_11" d="M206.996 41.0479L49.9336 41.0479L49.9336 46.2477L206.996 46.2477L206.996 41.0479Z" fill="white"/>
<path id="Vector_12" d="M54.9476 41.9521L50.7864 41.9521C50.6892 41.9521 50.6104 42.0311 50.6104 42.1285L50.6104 44.9409C50.6104 45.0383 50.6892 45.1173 50.7864 45.1173L54.9476 45.1173C55.0448 45.1173 55.1236 45.0383 55.1236 44.9409L55.1236 42.1285C55.1236 42.0311 55.0448 41.9521 54.9476 41.9521Z" fill="#DE756D"/>
<path id="Vector_13" opacity="0.3" d="M151.577 41.9521L104.449 41.9521C104.377 41.9521 104.318 42.0109 104.318 42.0833L104.318 44.9862C104.318 45.0586 104.377 45.1173 104.449 45.1173L151.577 45.1173C151.649 45.1173 151.708 45.0586 151.708 44.9862L151.708 42.0833C151.708 42.0109 151.649 41.9521 151.577 41.9521Z" fill="#DE756D"/>
<path id="Vector_14" d="M150.302 43.8603L150.187 43.8603L150.144 43.8242C150.289 43.652 150.369 43.4344 150.37 43.2092C150.369 43.0243 150.313 42.8439 150.209 42.6908C150.105 42.5378 149.959 42.4189 149.788 42.3491C149.617 42.2794 149.429 42.262 149.248 42.299C149.068 42.3361 148.902 42.426 148.772 42.5574C148.642 42.6888 148.554 42.8558 148.519 43.0373C148.483 43.2188 148.503 43.4067 148.574 43.5773C148.645 43.7479 148.765 43.8935 148.919 43.9958C149.073 44.0981 149.253 44.1524 149.438 44.152C149.663 44.1506 149.88 44.0706 150.052 43.9259L150.095 43.9621L150.095 44.0796L150.817 44.8031L151.042 44.577L150.302 43.8603ZM149.436 43.8603C149.307 43.8608 149.18 43.8228 149.073 43.7512C148.965 43.6795 148.881 43.5775 148.831 43.458C148.782 43.3386 148.769 43.207 148.794 43.0801C148.819 42.9531 148.881 42.8365 148.972 42.745C149.064 42.6534 149.18 42.5912 149.307 42.566C149.433 42.5409 149.565 42.554 149.684 42.6038C149.803 42.6535 149.905 42.7376 149.977 42.8454C150.048 42.9532 150.086 43.0798 150.086 43.2092C150.086 43.2949 150.07 43.3798 150.037 43.4591C150.005 43.5384 149.957 43.6104 149.897 43.671C149.836 43.7316 149.764 43.7795 149.685 43.812C149.606 43.8445 149.521 43.8609 149.436 43.8603Z" fill="#444053"/>
<path id="Vector_15" d="M204.739 45.1173C205.611 45.1173 206.318 44.4087 206.318 43.5347C206.318 42.6607 205.611 41.9521 204.739 41.9521C203.866 41.9521 203.159 42.6607 203.159 43.5347C203.159 44.4087 203.866 45.1173 204.739 45.1173Z" fill="#DE756D"/>
<path id="Vector_16" d="M179.142 51.8997L165.57 51.8997C165.267 51.8997 165.022 52.1456 165.022 52.449L165.022 61.2978C165.022 61.6013 165.267 61.8472 165.57 61.8472L179.142 61.8472C179.445 61.8472 179.69 61.6013 179.69 61.2978L179.69 52.449C179.69 52.1456 179.445 51.8997 179.142 51.8997Z" fill="white"/>
<path id="Vector_17" d="M202.344 51.8997L183.664 51.8997C183.588 51.8997 183.526 51.9614 183.526 52.0376L183.526 53.3443C183.526 53.4205 183.588 53.4822 183.664 53.4822L202.344 53.4822C202.42 53.4822 202.482 53.4205 202.482 53.3443L202.482 52.0376C202.482 51.9614 202.42 51.8997 202.344 51.8997Z" fill="white"/>
<path id="Vector_18" d="M202.344 55.2908L183.664 55.2908C183.588 55.2908 183.526 55.3525 183.526 55.4287L183.526 56.7354C183.526 56.8116 183.588 56.8733 183.664 56.8733L202.344 56.8733C202.42 56.8733 202.482 56.8116 202.482 56.7354L202.482 55.4287C202.482 55.3525 202.42 55.2908 202.344 55.2908Z" fill="white"/>
<path id="Vector_19" d="M202.344 58.6821L183.664 58.6821C183.588 58.6821 183.526 58.7439 183.526 58.82L183.526 60.1268C183.526 60.2029 183.588 60.2647 183.664 60.2647L202.344 60.2647C202.42 60.2647 202.482 60.2029 202.482 60.1268L202.482 58.82C202.482 58.7439 202.42 58.6821 202.344 58.6821Z" fill="white"/>
<path id="Vector_20" d="M179.142 67.4993L165.57 67.4993C165.267 67.4993 165.022 67.7452 165.022 68.0486L165.022 76.8975C165.022 77.2009 165.267 77.4468 165.57 77.4468L179.142 77.4468C179.445 77.4468 179.69 77.2009 179.69 76.8975L179.69 68.0486C179.69 67.7452 179.445 67.4993 179.142 67.4993Z" fill="white"/>
<path id="Vector_21" d="M202.344 67.4993L183.664 67.4993C183.588 67.4993 183.526 67.561 183.526 67.6372L183.526 68.9439C183.526 69.0201 183.588 69.0819 183.664 69.0819L202.344 69.0819C202.42 69.0819 202.482 69.0201 202.482 68.9439L202.482 67.6372C202.482 67.561 202.42 67.4993 202.344 67.4993Z" fill="white"/>
<path id="Vector_22" d="M202.344 70.8904L183.664 70.8904C183.588 70.8904 183.526 70.9521 183.526 71.0283L183.526 72.335C183.526 72.4112 183.588 72.4729 183.664 72.4729L202.344 72.4729C202.42 72.4729 202.482 72.4112 202.482 72.335L202.482 71.0283C202.482 70.9521 202.42 70.8904 202.344 70.8904Z" fill="white"/>
<path id="Vector_23" d="M202.333 74.2817L183.675 74.2817C183.593 74.2817 183.526 74.3485 183.526 74.431L183.526 75.7151C183.526 75.7975 183.593 75.8643 183.675 75.8643L202.333 75.8643C202.415 75.8643 202.482 75.7975 202.482 75.7151L202.482 74.431C202.482 74.3485 202.415 74.2817 202.333 74.2817Z" fill="white"/>
<path id="Vector_24" d="M179.142 83.0989L165.57 83.0989C165.267 83.0989 165.022 83.3448 165.022 83.6483L165.022 92.4971C165.022 92.8005 165.267 93.0464 165.57 93.0464L179.142 93.0464C179.445 93.0464 179.69 92.8005 179.69 92.4971L179.69 83.6483C179.69 83.3448 179.445 83.0989 179.142 83.0989Z" fill="white"/>
<path id="Vector_25" d="M202.333 83.0989L183.675 83.0989C183.593 83.0989 183.526 83.1657 183.526 83.2481L183.526 84.5322C183.526 84.6146 183.593 84.6814 183.675 84.6814L202.333 84.6815C202.415 84.6815 202.482 84.6146 202.482 84.5322L202.482 83.2481C202.482 83.1657 202.415 83.0989 202.333 83.0989Z" fill="white"/>
<path id="Vector_26" d="M202.333 86.49L183.675 86.49C183.593 86.49 183.526 86.5568 183.526 86.6392L183.526 87.9233C183.526 88.0057 183.593 88.0725 183.675 88.0725L202.333 88.0725C202.415 88.0725 202.482 88.0057 202.482 87.9233L202.482 86.6392C202.482 86.5568 202.415 86.49 202.333 86.49Z" fill="white"/>
<path id="Vector_27" d="M202.333 89.8813L183.675 89.8813C183.593 89.8813 183.526 89.9482 183.526 90.0306L183.526 91.3147C183.526 91.3971 183.593 91.4639 183.675 91.4639L202.333 91.4639C202.415 91.4639 202.482 91.3971 202.482 91.3147L202.482 90.0306C202.482 89.9482 202.415 89.8813 202.333 89.8813Z" fill="white"/>
<path id="Vector_28" d="M179.142 98.6985L165.57 98.6985C165.267 98.6985 165.022 98.9444 165.022 99.2479L165.022 108.097C165.022 108.4 165.267 108.646 165.57 108.646L179.142 108.646C179.445 108.646 179.69 108.4 179.69 108.097L179.69 99.2479C179.69 98.9444 179.445 98.6985 179.142 98.6985Z" fill="white"/>
<path id="Vector_29" d="M202.333 98.6985L183.675 98.6985C183.593 98.6985 183.526 98.7653 183.526 98.8477L183.526 100.132C183.526 100.214 183.593 100.281 183.675 100.281L202.333 100.281C202.415 100.281 202.482 100.214 202.482 100.132L202.482 98.8477C202.482 98.7653 202.415 98.6985 202.333 98.6985Z" fill="white"/>
<path id="Vector_30" d="M202.333 102.09L183.675 102.09C183.593 102.09 183.526 102.156 183.526 102.239L183.526 103.523C183.526 103.605 183.593 103.672 183.675 103.672L202.333 103.672C202.415 103.672 202.482 103.605 202.482 103.523L202.482 102.239C202.482 102.156 202.415 102.09 202.333 102.09Z" fill="white"/>
<path id="Vector_31" d="M202.333 105.481L183.675 105.481C183.593 105.481 183.526 105.548 183.526 105.63L183.526 106.914C183.526 106.997 183.593 107.064 183.675 107.064L202.333 107.064C202.415 107.064 202.482 106.997 202.482 106.914L202.482 105.63C202.482 105.548 202.415 105.481 202.333 105.481Z" fill="white"/>
<path id="Vector_32" d="M179.142 114.298L165.57 114.298C165.267 114.298 165.022 114.544 165.022 114.847L165.022 123.696C165.022 124 165.267 124.246 165.57 124.246L179.142 124.246C179.445 124.246 179.69 124 179.69 123.696L179.69 114.847C179.69 114.544 179.445 114.298 179.142 114.298Z" fill="white"/>
<path id="Vector_33" d="M202.333 114.298L183.675 114.298C183.593 114.298 183.526 114.365 183.526 114.447L183.526 115.731C183.526 115.814 183.593 115.881 183.675 115.881L202.333 115.881C202.415 115.881 202.482 115.814 202.482 115.731L202.482 114.447C202.482 114.365 202.415 114.298 202.333 114.298Z" fill="white"/>
<path id="Vector_34" d="M202.333 117.689L183.675 117.689C183.593 117.689 183.526 117.756 183.526 117.838L183.526 119.123C183.526 119.205 183.593 119.272 183.675 119.272L202.333 119.272C202.415 119.272 202.482 119.205 202.482 119.123L202.482 117.838C202.482 117.756 202.415 117.689 202.333 117.689Z" fill="white"/>
<path id="Vector_35" d="M202.333 121.081L183.675 121.081C183.593 121.081 183.526 121.147 183.526 121.23L183.526 122.514C183.526 122.596 183.593 122.663 183.675 122.663L202.333 122.663C202.415 122.663 202.482 122.596 202.482 122.514L202.482 121.23C202.482 121.147 202.415 121.081 202.333 121.081Z" fill="white"/>
<path id="Vector_36" opacity="0.1" d="M92.5277 73.5154L69.3228 73.5154L69.3228 74.7204L92.5277 74.7204L92.5277 73.5154Z" fill="#DE756D"/>
<path id="Vector_37" opacity="0.1" d="M73.6193 67.1443L71.3853 67.1443L71.3853 73.5153L73.6193 73.5153L73.6193 67.1443Z" fill="#DE756D"/>
<path id="Vector_38" opacity="0.1" d="M76.8845 67.1443L74.6504 67.1443L74.6504 73.5153L76.8845 73.5153L76.8845 67.1443Z" fill="#DE756D"/>
<path id="Vector_39" opacity="0.1" d="M80.1501 67.1443L77.916 67.1443L77.916 73.5153L80.1501 73.5153L80.1501 67.1443Z" fill="#DE756D"/>
<path id="Vector_40" opacity="0.1" d="M83.4152 67.1443L81.1812 67.1443L81.1812 73.5153L83.4152 73.5153L83.4152 67.1443Z" fill="#DE756D"/>
<path id="Vector_41" opacity="0.1" d="M86.6809 67.1443L84.4468 67.1443L84.4468 73.5153L86.6809 73.5153L86.6809 67.1443Z" fill="#DE756D"/>
<path id="Vector_42" opacity="0.1" d="M89.9484 67.1443L87.7144 67.1443L87.7144 73.5153L89.9484 73.5153L89.9484 67.1443Z" fill="#DE756D"/>
<path id="Vector_43" opacity="0.1" d="M73.6193 68.3494L71.3853 68.3494L71.3853 69.0389L73.6193 69.0389L73.6193 68.3494Z" fill="#DE756D"/>
<path id="Vector_44" opacity="0.1" d="M76.8845 68.3494L74.6504 68.3494L74.6504 69.0389L76.8845 69.0389L76.8845 68.3494Z" fill="#DE756D"/>
<path id="Vector_45" opacity="0.1" d="M80.1501 68.3494L77.916 68.3494L77.916 69.0389L80.1501 69.0389L80.1501 68.3494Z" fill="#DE756D"/>
<path id="Vector_46" opacity="0.1" d="M83.4152 68.3494L81.1812 68.3494L81.1812 69.0389L83.4152 69.0389L83.4152 68.3494Z" fill="#DE756D"/>
<path id="Vector_47" opacity="0.1" d="M86.6809 68.3494L84.4468 68.3494L84.4468 69.0389L86.6809 69.0389L86.6809 68.3494Z" fill="#DE756D"/>
<path id="Vector_48" opacity="0.1" d="M89.9484 68.3494L87.7144 68.3494L87.7144 69.0389L89.9484 69.0389L89.9484 68.3494Z" fill="#DE756D"/>
<path id="Vector_49" opacity="0.1" d="M73.6193 71.4487L71.3853 71.4487L71.3853 72.1383L73.6193 72.1383L73.6193 71.4487Z" fill="#DE756D"/>
<path id="Vector_50" opacity="0.1" d="M76.8845 71.4487L74.6504 71.4487L74.6504 72.1383L76.8845 72.1383L76.8845 71.4487Z" fill="#DE756D"/>
<path id="Vector_51" opacity="0.1" d="M80.1501 71.4487L77.916 71.4487L77.916 72.1383L80.1501 72.1383L80.1501 71.4487Z" fill="#DE756D"/>
<path id="Vector_52" opacity="0.1" d="M83.4152 71.4487L81.1812 71.4487L81.1812 72.1383L83.4152 72.1383L83.4152 71.4487Z" fill="#DE756D"/>
<path id="Vector_53" opacity="0.1" d="M86.6809 71.4487L84.4468 71.4487L84.4468 72.1383L86.6809 72.1383L86.6809 71.4487Z" fill="#DE756D"/>
<path id="Vector_54" opacity="0.1" d="M89.9484 71.4487L87.7144 71.4487L87.7144 72.1383L89.9484 72.1383L89.9484 71.4487Z" fill="#DE756D"/>
<path id="Vector_55" opacity="0.1" d="M143.403 76.6147L120.198 76.6147L120.198 77.8197L143.403 77.8197L143.403 76.6147Z" fill="#DE756D"/>
<path id="Vector_56" opacity="0.1" d="M124.495 70.2439L122.261 70.2439L122.261 76.6149L124.495 76.6149L124.495 70.2439Z" fill="#DE756D"/>
<path id="Vector_57" opacity="0.1" d="M127.76 70.2439L125.526 70.2439L125.526 76.6149L127.76 76.6149L127.76 70.2439Z" fill="#DE756D"/>
<path id="Vector_58" opacity="0.1" d="M131.026 70.2439L128.792 70.2439L128.792 76.6149L131.026 76.6149L131.026 70.2439Z" fill="#DE756D"/>
<path id="Vector_59" opacity="0.1" d="M134.294 70.2439L132.06 70.2439L132.06 76.6149L134.294 76.6149L134.294 70.2439Z" fill="#DE756D"/>
<path id="Vector_60" opacity="0.1" d="M137.559 70.2439L135.325 70.2439L135.325 76.6149L137.559 76.6149L137.559 70.2439Z" fill="#DE756D"/>
<path id="Vector_61" opacity="0.1" d="M140.824 70.2439L138.59 70.2439L138.59 76.6149L140.824 76.6149L140.824 70.2439Z" fill="#DE756D"/>
<path id="Vector_62" opacity="0.1" d="M124.495 71.4487L122.261 71.4487L122.261 72.1383L124.495 72.1383L124.495 71.4487Z" fill="#DE756D"/>
<path id="Vector_63" opacity="0.1" d="M127.76 71.4487L125.526 71.4487L125.526 72.1383L127.76 72.1383L127.76 71.4487Z" fill="#DE756D"/>
<path id="Vector_64" opacity="0.1" d="M131.026 71.4487L128.792 71.4487L128.792 72.1383L131.026 72.1383L131.026 71.4487Z" fill="#DE756D"/>
<path id="Vector_65" opacity="0.1" d="M134.294 71.4487L132.06 71.4487L132.06 72.1383L134.294 72.1383L134.294 71.4487Z" fill="#DE756D"/>
<path id="Vector_66" opacity="0.1" d="M137.559 71.4487L135.325 71.4487L135.325 72.1383L137.559 72.1383L137.559 71.4487Z" fill="#DE756D"/>
<path id="Vector_67" opacity="0.1" d="M140.824 71.4487L138.59 71.4487L138.59 72.1383L140.824 72.1383L140.824 71.4487Z" fill="#DE756D"/>
<path id="Vector_68" opacity="0.1" d="M124.495 74.5486L122.261 74.5486L122.261 75.2381L124.495 75.2381L124.495 74.5486Z" fill="#DE756D"/>
<path id="Vector_69" opacity="0.1" d="M127.76 74.5486L125.526 74.5486L125.526 75.2381L127.76 75.2381L127.76 74.5486Z" fill="#DE756D"/>
<path id="Vector_70" opacity="0.1" d="M131.026 74.5486L128.792 74.5486L128.792 75.2381L131.026 75.2381L131.026 74.5486Z" fill="#DE756D"/>
<path id="Vector_71" opacity="0.1" d="M134.294 74.5486L132.06 74.5486L132.06 75.2381L134.294 75.2381L134.294 74.5486Z" fill="#DE756D"/>
<path id="Vector_72" opacity="0.1" d="M137.559 74.5486L135.325 74.5486L135.325 75.2381L137.559 75.2381L137.559 74.5486Z" fill="#DE756D"/>
<path id="Vector_73" opacity="0.1" d="M140.824 74.5486L138.59 74.5486L138.59 75.2381L140.824 75.2381L140.824 74.5486Z" fill="#DE756D"/>
<path id="Vector_74" opacity="0.1" d="M143.403 85.3958L120.198 85.3958L120.198 86.6008L143.403 86.6008L143.403 85.3958Z" fill="#DE756D"/>
<path id="Vector_75" opacity="0.1" d="M124.495 79.0249L122.261 79.0249L122.261 85.3959L124.495 85.3959L124.495 79.0249Z" fill="#DE756D"/>
<path id="Vector_76" opacity="0.1" d="M127.76 79.0249L125.526 79.0249L125.526 85.3959L127.76 85.3959L127.76 79.0249Z" fill="#DE756D"/>
<path id="Vector_77" opacity="0.1" d="M131.026 79.0249L128.792 79.0249L128.792 85.3959L131.026 85.3959L131.026 79.0249Z" fill="#DE756D"/>
<path id="Vector_78" opacity="0.1" d="M134.294 79.0249L132.06 79.0249L132.06 85.3959L134.294 85.3959L134.294 79.0249Z" fill="#DE756D"/>
<path id="Vector_79" opacity="0.1" d="M137.559 79.0249L135.325 79.0249L135.325 85.3959L137.559 85.3959L137.559 79.0249Z" fill="#DE756D"/>
<path id="Vector_80" opacity="0.1" d="M140.824 79.0249L138.59 79.0249L138.59 85.3959L140.824 85.3959L140.824 79.0249Z" fill="#DE756D"/>
<path id="Vector_81" opacity="0.1" d="M124.495 80.23L122.261 80.23L122.261 80.9195L124.495 80.9195L124.495 80.23Z" fill="#DE756D"/>
<path id="Vector_82" opacity="0.1" d="M127.76 80.23L125.526 80.23L125.526 80.9195L127.76 80.9195L127.76 80.23Z" fill="#DE756D"/>
<path id="Vector_83" opacity="0.1" d="M131.026 80.23L128.792 80.23L128.792 80.9195L131.026 80.9195L131.026 80.23Z" fill="#DE756D"/>
<path id="Vector_84" opacity="0.1" d="M134.294 80.23L132.06 80.23L132.06 80.9195L134.294 80.9195L134.294 80.23Z" fill="#DE756D"/>
<path id="Vector_85" opacity="0.1" d="M137.559 80.23L135.325 80.23L135.325 80.9195L137.559 80.9195L137.559 80.23Z" fill="#DE756D"/>
<path id="Vector_86" opacity="0.1" d="M140.824 80.23L138.59 80.23L138.59 80.9195L140.824 80.9195L140.824 80.23Z" fill="#DE756D"/>
<path id="Vector_87" opacity="0.1" d="M124.495 83.3293L122.261 83.3293L122.261 84.0189L124.495 84.0189L124.495 83.3293Z" fill="#DE756D"/>
<path id="Vector_88" opacity="0.1" d="M127.76 83.3293L125.526 83.3293L125.526 84.0189L127.76 84.0189L127.76 83.3293Z" fill="#DE756D"/>
<path id="Vector_89" opacity="0.1" d="M131.026 83.3293L128.792 83.3293L128.792 84.0189L131.026 84.0189L131.026 83.3293Z" fill="#DE756D"/>
<path id="Vector_90" opacity="0.1" d="M134.294 83.3293L132.06 83.3293L132.06 84.0189L134.294 84.0189L134.294 83.3293Z" fill="#DE756D"/>
<path id="Vector_91" opacity="0.1" d="M137.559 83.3293L135.325 83.3293L135.325 84.0189L137.559 84.0189L137.559 83.3293Z" fill="#DE756D"/>
<path id="Vector_92" opacity="0.1" d="M140.824 83.3293L138.59 83.3293L138.59 84.0189L140.824 84.0189L140.824 83.3293Z" fill="#DE756D"/>
<path id="Vector_93" opacity="0.1" d="M83.5574 87.1413C83.3843 86.9191 83.226 86.6857 83.0835 86.4427L86.4256 85.8933L82.815 85.9204C82.4686 85.165 82.2796 84.3468 82.2594 83.5157C82.2392 82.6847 82.3883 81.8582 82.6976 81.0868L87.5381 83.6008L83.0677 80.3091C83.4836 79.5781 84.0458 78.9411 84.7192 78.4381C85.3925 77.9351 86.1623 77.5771 86.9803 77.3864C87.7984 77.1957 88.6469 77.1765 89.4727 77.33C90.2985 77.4835 91.0837 77.8064 91.779 78.2783C92.4743 78.7503 93.0647 79.3613 93.5131 80.0727C93.9615 80.7842 94.2582 81.5809 94.3847 82.4127C94.5111 83.2446 94.4646 84.0936 94.2479 84.9066C94.0312 85.7195 93.6491 86.4788 93.1255 87.1368C93.3976 87.4806 93.6307 87.8537 93.8206 88.2491L89.4833 90.5099L94.1072 88.9567C94.4306 89.9172 94.5103 90.9432 94.3389 91.9422C94.1675 92.9412 93.7505 93.8817 93.1255 94.6788C93.834 95.5788 94.2753 96.6605 94.3988 97.8C94.5223 98.9395 94.323 100.091 93.8238 101.122C93.3247 102.154 92.5457 103.023 91.5761 103.632C90.6066 104.24 89.4856 104.563 88.3415 104.563C87.1974 104.563 86.0764 104.24 85.1068 103.632C84.1372 103.023 83.3583 102.154 82.8591 101.122C82.3599 100.091 82.1606 98.9395 82.2841 97.8C82.4076 96.6605 82.8489 95.5788 83.5574 94.6788C82.7135 93.6032 82.2548 92.2748 82.2548 90.9067C82.2548 89.5386 82.7135 88.2101 83.5574 87.1345L83.5574 87.1413Z" fill="#DE756D"/>
<path id="Vector_94" opacity="0.1" d="M94.4299 90.9122C94.43 92.2789 93.9705 93.6058 93.1255 94.6788C93.834 95.5788 94.2753 96.6604 94.3988 97.7999C94.5223 98.9395 94.323 100.091 93.8238 101.122C93.3246 102.154 92.5457 103.023 91.5761 103.632C90.6066 104.24 89.4856 104.563 88.3415 104.563C87.1973 104.563 86.0764 104.24 85.1068 103.632C84.1372 103.023 83.3583 102.154 82.8591 101.122C82.3599 100.091 82.1606 98.9395 82.2841 97.7999C82.4076 96.6604 82.8489 95.5788 83.5574 94.6788C82.7382 93.6456 94.4299 90.2272 94.4299 90.9122Z" fill="#DE756D"/>
<path id="Vector_95" opacity="0.2" d="M89.3163 106.182C89.3269 106.198 89.3367 106.214 89.3456 106.231L87.2785 106.231C87.2898 106.216 87.2966 106.197 87.3079 106.182C87.13 105.872 87.038 105.52 87.0416 105.162C87.0407 104.917 87.0827 104.674 87.1657 104.443C87.2808 104.461 87.423 104.482 87.5877 104.5C88.0672 104.548 88.5502 104.548 89.0297 104.5C89.1681 104.486 89.3103 104.468 89.4562 104.445C89.4551 104.449 89.4551 104.453 89.4562 104.457C89.5384 104.683 89.5796 104.923 89.578 105.164C89.5826 105.521 89.4922 105.872 89.3163 106.182Z" fill="#3F3D56"/>
<path id="Vector_96" opacity="0.1" d="M81.8876 106.232L70.3787 106.232C70.3539 106.166 70.3313 106.096 70.311 106.028C69.9055 104.722 69.9524 103.316 70.4441 102.04C69.3206 101.262 68.4907 100.128 68.0876 98.8205C67.6845 97.513 67.7316 96.1078 68.2214 94.8303C67.9901 94.6708 67.7706 94.4948 67.5647 94.3036L70.5931 92.7911L67.1494 93.8853C66.5957 93.2664 66.174 92.5406 65.9101 91.7526C65.6463 90.9646 65.5458 90.1309 65.6149 89.3026L70.988 90.2748L65.7481 88.4503C65.9288 87.6277 66.2776 86.8514 66.7724 86.1703C67.2672 85.4893 67.8974 84.9182 68.6232 84.4931C69.349 84.0679 70.1548 83.7978 70.9899 83.6999C71.825 83.6019 72.6713 83.6782 73.4756 83.9238C74.2798 84.1695 75.0246 84.5793 75.6631 85.1274C76.3015 85.6755 76.8199 86.3501 77.1854 87.1086C77.551 87.8672 77.7559 88.6934 77.7872 89.5351C77.8186 90.3769 77.6757 91.216 77.3675 91.9998C77.7309 92.2532 78.0661 92.545 78.3672 92.8702L74.8875 96.3089L78.8479 93.4557C79.4414 94.2785 79.8207 95.2366 79.9515 96.2432C80.0823 97.2498 79.9605 98.2732 79.5971 99.2208C80.69 99.979 81.5054 101.075 81.9189 102.34C82.3325 103.606 82.3215 104.973 81.8876 106.232Z" fill="#DE756D"/>
<path id="Vector_97" opacity="0.1" d="M81.8874 106.231L70.3785 106.231C70.3537 106.166 70.3312 106.096 70.3108 106.028C69.9054 104.722 69.9523 103.316 70.444 102.04C69.3608 101.289 79.5224 94.5634 79.7233 95.219C80.1287 96.5262 80.0818 97.9322 79.5901 99.2093C80.6866 99.9672 81.505 101.064 81.9199 102.333C82.3348 103.601 82.3234 104.97 81.8874 106.231Z" fill="#DE756D"/>
<path id="Vector_98" opacity="0.1" d="M133.96 97.9706C133.261 99.1458 132.187 100.051 130.911 100.539C130.965 100.974 130.974 101.413 130.936 101.85L126.059 101.556L130.823 102.592C130.683 103.242 130.437 103.865 130.096 104.437C129.681 105.136 129.128 105.744 128.471 106.223L121.832 106.223L121.832 106.397L115.062 106.397C115.076 106.338 115.09 106.281 115.105 106.223C115.352 105.287 115.818 104.424 116.463 103.704C117.109 102.985 117.916 102.429 118.818 102.083C118.644 100.726 118.931 99.3497 119.632 98.1755C120.333 97.0013 121.408 96.0971 122.683 95.608C122.647 95.3284 122.631 95.0466 122.634 94.7647L125.782 96.0105L122.667 94.1769C122.759 93.3506 123.018 92.5518 123.429 91.8295C123.84 91.1072 124.394 90.4766 125.057 89.9763L127.925 94.6291L125.775 89.5061C126.946 88.8567 128.299 88.6119 129.623 88.8096C130.947 89.0073 132.169 89.6365 133.101 90.5999C134.032 91.5632 134.621 92.8072 134.777 94.1395C134.932 95.4718 134.645 96.8182 133.96 97.9706Z" fill="#DE756D"/>
<path id="Vector_99" opacity="0.1" d="M130.096 104.445C129.681 105.145 129.128 105.752 128.471 106.231L121.832 106.231L121.832 106.406L115.062 106.406C115.076 106.347 115.09 106.29 115.105 106.231C115.352 105.296 115.818 104.433 116.463 103.713C117.109 102.993 117.916 102.438 118.818 102.092C118.761 101.64 120.072 101.708 121.821 102.001C125.249 102.578 130.329 104.057 130.096 104.445Z" fill="#DE756D"/>
<path id="Vector_100" d="M101.319 88.1654C101.319 88.1654 102.154 92.687 100.29 94.1634C98.4263 95.6397 101.87 104.489 107.552 103.455C113.234 102.422 115.55 94.9999 115.55 94.9999C115.55 94.9999 109.858 93.8197 111.968 87.8218L101.319 88.1654Z" fill="#EE8E9E"/>
<path id="Vector_101" opacity="0.1" d="M101.319 88.1654C101.319 88.1654 102.154 92.687 100.29 94.1634C98.4263 95.6397 101.87 104.489 107.552 103.455C113.234 102.422 115.55 94.9999 115.55 94.9999C115.55 94.9999 109.858 93.8197 111.968 87.8218L101.319 88.1654Z" fill="black"/>
<path id="Vector_102" d="M106.35 91.4842C111.553 91.4842 115.771 87.2583 115.771 82.0453C115.771 76.8324 111.553 72.6064 106.35 72.6064C101.146 72.6064 96.9282 76.8324 96.9282 82.0453C96.9282 87.2583 101.146 91.4842 106.35 91.4842Z" fill="#EE8E9E"/>
<path id="Vector_103" d="M121.832 99.9894L121.832 106.406L90.7222 106.406L90.7222 100.281C90.7221 99.5044 90.9505 98.745 91.3787 98.0976C91.8069 97.4503 92.4161 96.9437 93.13 96.6411L94.0214 96.2613C96.278 95.2982 99.0198 94.1022 99.9157 93.6049C100.014 93.5558 100.106 93.4959 100.191 93.4263C100.681 92.9357 100.584 93.5732 100.584 93.5732C100.584 93.5732 100.57 93.6953 100.561 93.9055C100.507 95.3502 100.715 101.027 107.356 100.555C113.835 100.102 114.126 95.7119 114.06 94.421C114.057 94.3015 114.047 94.1823 114.031 94.0638C114.479 94.1706 114.918 94.3143 115.342 94.4934C116.696 94.9953 118.695 95.8001 119.23 96.1799C119.397 96.2975 119.6 96.4196 119.822 96.5439C120.072 96.6841 120.307 96.8516 120.521 97.0436C120.934 97.4149 121.264 97.8691 121.49 98.3766C121.716 98.8842 121.832 99.4337 121.832 99.9894Z" fill="#DE756D"/>
<path id="Vector_104" opacity="0.1" d="M115.342 94.4934C114.794 97.039 113.072 101.807 106.866 101.931C100.254 102.063 99.8705 95.4746 99.9134 93.6049C100.013 93.5571 100.106 93.4971 100.191 93.4263C100.683 92.9357 100.584 93.5732 100.584 93.5732C100.584 93.5732 99.7509 101.095 107.354 100.555C114.956 100.014 114.022 94.0661 114.022 94.0661C114.022 94.0299 114.588 94.2266 115.342 94.4934Z" fill="black"/>
<path id="Vector_105" d="M95.197 82.5178C95.5098 82.4395 95.8389 82.4568 96.1418 82.5676C96.4447 82.6785 96.7075 82.8776 96.8963 83.1395C97.2393 83.6211 97.2912 84.2021 97.3341 84.7583C97.7425 84.8442 97.9727 84.3807 98.011 84.0303C98.1622 82.6037 98.1735 81.15 98.6519 79.7709C99.1303 78.3918 100.175 77.0579 101.78 76.5312C102.328 76.3409 102.914 76.2851 103.488 76.3684C103.829 76.4249 104.149 76.5447 104.488 76.5945C105.661 76.7889 106.936 76.2327 108.035 76.6193C108.726 76.8635 109.163 77.4265 109.486 77.9894C109.626 78.293 109.817 78.5705 110.05 78.8101C110.517 79.2306 111.248 79.3391 111.919 79.4702C112.589 79.6014 113.32 79.8297 113.607 80.3474C113.864 80.8154 113.674 81.3557 113.589 81.8622C113.456 82.6644 113.59 83.4881 113.97 84.2066C114.094 84.4327 114.347 84.7063 114.647 84.6317C114.781 84.5861 114.895 84.4939 114.967 84.3717C115.737 83.291 115.717 81.8848 116.682 80.9104C117.005 80.5848 117.423 80.3316 117.736 80.006C117.974 79.7648 118.148 79.4684 118.243 79.1434C118.338 78.8183 118.352 78.4747 118.282 78.1431C118.109 77.3971 117.513 76.7866 117.032 76.131C116.408 75.3004 115.953 74.3547 115.694 73.348C115.649 73.2309 115.649 73.1011 115.694 72.984C115.785 72.8652 115.903 72.7693 116.037 72.7036C116.299 72.5279 116.487 72.2628 116.568 71.9578C116.649 71.6528 116.615 71.3288 116.475 71.0465C116.202 70.488 115.602 70.063 114.925 69.8098C114.238 69.5838 113.529 69.4322 112.81 69.3576C112.336 69.4255 111.781 69.1564 111.634 68.7766C111.569 68.607 111.569 68.4239 111.504 68.2544C111.415 68.0841 111.286 67.9377 111.129 67.8275C110.972 67.7173 110.791 67.6466 110.601 67.6213C110.197 67.5559 109.784 67.5853 109.394 67.7072C108.942 67.8338 108.43 68.0237 108.04 67.8022C107.834 67.6869 107.721 67.4766 107.5 67.3817C107.049 67.1918 106.584 67.5761 106.261 67.8926C105.95 68.2247 105.569 68.4821 105.144 68.6455C104.92 68.731 104.681 68.7669 104.441 68.7509C104.202 68.7349 103.969 68.6673 103.759 68.5528C103.45 68.3561 103.294 68.0396 103.048 67.7886C102.583 67.3735 101.989 67.1337 101.367 67.1104C100.727 67.0764 100.086 67.1466 99.4688 67.3184C98.2908 67.606 97.1658 68.0791 96.1358 68.7201C95.6177 69.0053 95.1781 69.4147 94.8563 69.9115C94.6658 70.2925 94.5677 70.7131 94.5697 71.1391C94.52 72.4753 94.9623 73.8815 96.1155 74.8175C95.4114 75.1114 95.1745 75.8326 95.0097 76.4724C94.7457 77.4943 94.4817 78.532 94.581 79.572C94.6306 80.11 94.7773 80.6481 94.6983 81.1839C94.635 81.4362 94.6002 81.6948 94.5945 81.9549C94.6277 82.0981 94.7027 82.2281 94.81 82.3284C94.9174 82.4287 95.0521 82.4946 95.197 82.5178Z" fill="#454B69"/>
<g id="Group" opacity="0.1">
<path id="Vector_106" opacity="0.1" d="M118.136 77.7227C118.035 77.9442 117.897 78.1474 117.73 78.324C117.416 78.6541 116.999 78.9096 116.676 79.2284C115.71 80.196 115.73 81.6113 114.961 82.6919C114.889 82.8141 114.775 82.9058 114.64 82.9497C114.347 83.0265 114.094 82.7597 113.963 82.5246C113.814 82.2383 113.701 81.9346 113.627 81.6203C113.611 81.6994 113.596 81.7786 113.582 81.8464C113.449 82.6486 113.583 83.4723 113.963 84.1908C114.088 84.4169 114.34 84.6905 114.64 84.6159C114.775 84.5704 114.888 84.4781 114.961 84.3559C115.73 83.2752 115.71 81.869 116.676 80.8946C116.999 80.569 117.416 80.3158 117.73 79.9903C117.967 79.749 118.141 79.4526 118.237 79.1276C118.332 78.8025 118.345 78.4589 118.276 78.1273C118.241 77.9886 118.194 77.8532 118.136 77.7227Z" fill="black"/>
<path id="Vector_107" opacity="0.1" d="M116.033 71.0307C115.898 71.0956 115.78 71.1917 115.69 71.311C115.644 71.4274 115.644 71.5564 115.69 71.6727C115.779 72.024 115.893 72.3686 116.03 72.7037C116.292 72.528 116.481 72.2628 116.561 71.9578C116.642 71.6528 116.609 71.3288 116.468 71.0465C116.424 70.9534 116.371 70.8648 116.31 70.782C116.23 70.8778 116.137 70.9616 116.033 71.0307Z" fill="black"/>
<path id="Vector_108" opacity="0.1" d="M96.1309 73.1264C95.3314 72.4664 94.8047 71.5327 94.6528 70.5061C94.6123 70.7087 94.5897 70.9145 94.5851 71.121C94.5333 72.1082 94.7931 73.0867 95.3275 73.9177C95.4891 73.564 95.7751 73.2823 96.1309 73.1264Z" fill="black"/>
<path id="Vector_109" opacity="0.1" d="M113.589 80.1958C113.675 79.6872 113.864 79.1468 113.607 78.6811C113.32 78.1611 112.589 77.935 111.919 77.8039C111.249 77.6728 110.517 77.562 110.05 77.1437C109.817 76.9041 109.627 76.6266 109.486 76.3231C109.168 75.7601 108.726 75.1927 108.035 74.953C106.936 74.5664 105.661 75.1203 104.488 74.9282C104.149 74.8716 103.829 74.7541 103.488 74.7021C102.914 74.618 102.328 74.6738 101.78 74.8648C100.175 75.3939 99.1305 76.7278 98.6521 78.1046C98.1737 79.4814 98.1624 80.9351 98.0112 82.364C97.9728 82.7121 97.7426 83.1778 97.3342 83.0919C97.2913 82.5335 97.2394 81.9615 96.8964 81.4709C96.7073 81.2095 96.4444 81.0107 96.1415 80.9003C95.8387 80.7899 95.5097 80.7729 95.1971 80.8515C95.0075 80.809 94.8389 80.7009 94.721 80.5463C94.7458 80.7535 94.7458 80.963 94.721 81.1702C94.6577 81.4225 94.6229 81.6811 94.6172 81.9412C94.6463 82.0859 94.7179 82.2185 94.8229 82.3221C94.9278 82.4256 95.0613 82.4953 95.2062 82.5222C95.519 82.4439 95.8481 82.4612 96.1509 82.572C96.4538 82.6829 96.7166 82.8821 96.9054 83.1439C97.2484 83.6255 97.3003 84.2065 97.3432 84.7627C97.7517 84.8486 97.9818 84.3851 98.0202 84.0347C98.1714 82.6081 98.1827 81.1544 98.6611 79.7753C99.1395 78.3962 100.184 77.0624 101.789 76.5356C102.337 76.3453 102.923 76.2895 103.497 76.3728C103.838 76.4293 104.158 76.5492 104.497 76.5989C105.67 76.7933 106.945 76.2372 108.044 76.6238C108.735 76.8679 109.173 77.4309 109.495 77.9938C109.636 78.2974 109.826 78.5749 110.059 78.8145C110.527 79.235 111.258 79.3435 111.928 79.4746C112.598 79.6058 113.282 79.8183 113.582 80.2976C113.571 80.2637 113.582 80.2298 113.589 80.1958Z" fill="black"/>
<path id="Vector_110" opacity="0.1" d="M94.7125 79.4929C94.7499 79.0718 94.7247 78.6474 94.6378 78.2336C94.5714 78.6705 94.5569 79.1137 94.5947 79.554C94.5947 79.667 94.6197 79.78 94.6355 79.8908C94.6604 79.7574 94.6944 79.6263 94.7125 79.4929Z" fill="black"/>
</g>
<path id="Vector_111" d="M83.668 115.528L83.668 111.447C83.668 111.417 83.6801 111.387 83.7017 111.366C83.7233 111.344 83.7525 111.332 83.7831 111.332L84.2457 111.332C84.2762 111.332 84.3055 111.344 84.327 111.366C84.3486 111.387 84.3608 111.417 84.3608 111.447L84.3608 113.145L86.2383 111.402C86.2824 111.365 86.336 111.342 86.393 111.334C86.4499 111.326 86.5079 111.334 86.5604 111.358C86.6128 111.381 86.6576 111.419 86.6896 111.467C86.7216 111.515 86.7396 111.571 86.7415 111.628L86.7415 115.325C86.7396 115.382 86.7216 115.438 86.6896 115.486C86.6576 115.534 86.6128 115.571 86.5604 115.595C86.5079 115.619 86.4499 115.627 86.393 115.619C86.336 115.611 86.2824 115.588 86.2383 115.551L84.3608 113.819L84.3608 115.508C84.3608 115.538 84.3486 115.568 84.327 115.589C84.3055 115.611 84.2762 115.623 84.2457 115.623L83.7831 115.623C83.7557 115.623 83.7292 115.614 83.7081 115.597C83.687 115.579 83.6728 115.555 83.668 115.528Z" fill="#444053"/>
<path id="Vector_112" d="M129.033 111.447L129.033 115.528C129.033 115.543 129.03 115.559 129.024 115.573C129.018 115.587 129.01 115.6 128.999 115.61C128.988 115.621 128.975 115.63 128.96 115.635C128.946 115.641 128.931 115.644 128.916 115.643L128.464 115.643C128.434 115.643 128.405 115.631 128.383 115.61C128.361 115.588 128.349 115.559 128.349 115.528L128.349 113.83L126.472 115.571C126.427 115.608 126.374 115.631 126.317 115.639C126.26 115.647 126.202 115.638 126.149 115.615C126.097 115.591 126.052 115.554 126.019 115.506C125.987 115.458 125.969 115.402 125.966 115.345L125.966 111.635C125.969 111.577 125.987 111.522 126.019 111.474C126.052 111.426 126.097 111.389 126.149 111.365C126.202 111.342 126.26 111.333 126.317 111.341C126.374 111.349 126.427 111.372 126.472 111.409L128.349 113.141L128.349 111.454C128.349 111.423 128.361 111.394 128.383 111.373C128.405 111.351 128.434 111.339 128.464 111.339L128.916 111.339C128.946 111.338 128.974 111.349 128.996 111.369C129.018 111.39 129.031 111.417 129.033 111.447Z" fill="#444053"/>
<path id="Vector_113" d="M105.585 115.704L104.666 115.704C104.546 115.704 104.432 115.657 104.347 115.572C104.262 115.487 104.215 115.372 104.215 115.252L104.215 111.875C104.215 111.755 104.262 111.64 104.347 111.555C104.432 111.47 104.546 111.422 104.666 111.422L105.585 111.422C105.704 111.422 105.819 111.47 105.904 111.555C105.988 111.64 106.036 111.755 106.036 111.875L106.036 115.252C106.036 115.372 105.988 115.487 105.904 115.572C105.819 115.657 105.704 115.704 105.585 115.704ZM108.496 115.252L108.496 111.875C108.496 111.755 108.448 111.64 108.363 111.555C108.279 111.47 108.164 111.422 108.044 111.422L107.117 111.422C106.997 111.422 106.882 111.47 106.798 111.555C106.713 111.64 106.666 111.755 106.666 111.875L106.666 115.252C106.666 115.372 106.713 115.487 106.798 115.572C106.882 115.657 106.997 115.704 107.117 115.704L108.035 115.704C108.095 115.706 108.155 115.695 108.211 115.673C108.267 115.65 108.317 115.617 108.36 115.575C108.403 115.533 108.437 115.483 108.46 115.427C108.484 115.372 108.496 115.312 108.496 115.252Z" fill="#444053"/>
<path id="Vector_114" opacity="0.6" d="M133.429 105.947L79.27 105.947L79.27 106.55L133.429 106.55L133.429 105.947Z" fill="#444053"/>
<path id="Vector_115" d="M95.9939 107.678C96.7828 107.678 97.4223 107.038 97.4223 106.247C97.4223 105.457 96.7828 104.816 95.9939 104.816C95.205 104.816 94.5654 105.457 94.5654 106.247C94.5654 107.038 95.205 107.678 95.9939 107.678Z" fill="#444053"/>
<path id="Vector_116" d="M95.994 105.947L79.27 105.947L79.27 106.55L95.994 106.55L95.994 105.947Z" fill="#444053"/>
<path id="Vector_117" d="M216.492 174.079C223.903 174.079 229.912 172.921 229.912 171.492C229.912 170.064 223.903 168.906 216.492 168.906C209.08 168.906 203.071 170.064 203.071 171.492C203.071 172.921 209.08 174.079 216.492 174.079Z" fill="#DE756D"/>
<path id="Vector_118" d="M216.268 172.442C217.131 172.442 217.83 171.525 217.83 170.393C217.83 169.262 217.131 168.345 216.268 168.345C215.406 168.345 214.707 169.262 214.707 170.393C214.707 171.525 215.406 172.442 216.268 172.442Z" fill="#3F3D56"/>
<path id="Vector_119" d="M216.268 169.937C217.131 169.937 217.83 169.02 217.83 167.888C217.83 166.757 217.131 165.84 216.268 165.84C215.406 165.84 214.707 166.757 214.707 167.888C214.707 169.02 215.406 169.937 216.268 169.937Z" fill="#3F3D56"/>
<path id="Vector_120" d="M216.268 167.434C217.131 167.434 217.83 166.517 217.83 165.386C217.83 164.254 217.131 163.337 216.268 163.337C215.406 163.337 214.707 164.254 214.707 165.386C214.707 166.517 215.406 167.434 216.268 167.434Z" fill="#3F3D56"/>
<path id="Vector_121" d="M216.268 164.929C217.131 164.929 217.83 164.012 217.83 162.881C217.83 161.749 217.131 160.832 216.268 160.832C215.406 160.832 214.707 161.749 214.707 162.881C214.707 164.012 215.406 164.929 216.268 164.929Z" fill="#3F3D56"/>
<path id="Vector_122" d="M216.268 162.424C217.131 162.424 217.83 161.507 217.83 160.376C217.83 159.244 217.131 158.327 216.268 158.327C215.406 158.327 214.707 159.244 214.707 160.376C214.707 161.507 215.406 162.424 216.268 162.424Z" fill="#3F3D56"/>
<path id="Vector_123" d="M216.268 159.919C217.131 159.919 217.83 159.002 217.83 157.871C217.83 156.739 217.131 155.822 216.268 155.822C215.406 155.822 214.707 156.739 214.707 157.871C214.707 159.002 215.406 159.919 216.268 159.919Z" fill="#3F3D56"/>
<path id="Vector_124" d="M216.268 157.414C217.131 157.414 217.83 156.497 217.83 155.366C217.83 154.234 217.131 153.317 216.268 153.317C215.406 153.317 214.707 154.234 214.707 155.366C214.707 156.497 215.406 157.414 216.268 157.414Z" fill="#3F3D56"/>
<path id="Vector_125" d="M222.115 138.229C222.328 137.956 222.522 137.669 222.697 137.37L218.59 136.691L223.031 136.725C223.456 135.796 223.688 134.791 223.713 133.769C223.737 132.748 223.554 131.732 223.173 130.784L217.22 133.881L222.713 129.837C222.198 128.945 221.506 128.17 220.679 127.558C219.852 126.946 218.908 126.512 217.907 126.282C216.905 126.052 215.866 126.031 214.856 126.22C213.846 126.41 212.885 126.805 212.034 127.383C211.183 127.961 210.46 128.708 209.91 129.578C209.36 130.447 208.995 131.421 208.837 132.439C208.679 133.456 208.732 134.496 208.992 135.492C209.253 136.488 209.715 137.419 210.351 138.229C210.02 138.65 209.734 139.104 209.498 139.585L214.828 142.359L209.146 140.449C208.747 141.63 208.648 142.892 208.859 144.122C209.069 145.351 209.582 146.508 210.351 147.489C209.483 148.595 208.944 149.923 208.794 151.322C208.644 152.72 208.89 154.133 209.503 155.398C210.117 156.664 211.074 157.73 212.264 158.477C213.454 159.223 214.83 159.619 216.234 159.619C217.638 159.619 219.014 159.223 220.204 158.477C221.394 157.73 222.351 156.664 222.965 155.398C223.578 154.133 223.824 152.72 223.674 151.322C223.524 149.923 222.985 148.595 222.117 147.489C223.154 146.167 223.717 144.535 223.717 142.854C223.717 141.173 223.154 139.541 222.117 138.22L222.115 138.229Z" fill="#DE756D"/>
<path id="Vector_126" opacity="0.1" d="M208.751 142.863C208.748 144.545 209.312 146.178 210.351 147.498C209.483 148.604 208.944 149.932 208.794 151.331C208.644 152.73 208.89 154.142 209.503 155.408C210.117 156.673 211.074 157.74 212.264 158.486C213.454 159.232 214.83 159.628 216.234 159.628C217.638 159.628 219.014 159.232 220.204 158.486C221.394 157.74 222.351 156.673 222.965 155.408C223.578 154.142 223.824 152.73 223.674 151.331C223.524 149.932 222.985 148.604 222.117 147.498C223.119 146.225 208.751 142.022 208.751 142.863Z" fill="black"/>
<path id="Vector_127" opacity="0.1" d="M65.9555 188.001C78.2939 188.001 88.2962 185.875 88.2962 183.253C88.2962 180.631 78.2939 178.505 65.9555 178.505C53.617 178.505 43.6147 180.631 43.6147 183.253C43.6147 185.875 53.617 188.001 65.9555 188.001Z" fill="#DE756D"/>
<path id="Vector_128" d="M73.4366 182.701C72.9853 182.536 72.5024 182.563 72.0307 182.511C71.0514 182.398 70.1396 181.955 69.4446 181.254C68.9977 180.801 68.6462 180.263 68.4111 179.672C68.56 179.726 68.709 179.782 68.8624 179.843C68.4111 178.788 68.885 177.603 69.3002 176.536C70.0043 174.727 70.67 172.909 71.2973 171.081C72.877 166.448 74.2309 161.63 74.2016 156.702C74.2016 154.92 73.8744 153.236 73.8112 151.457C73.7638 150.136 73.9669 148.818 73.9579 147.496C73.9579 147.31 73.9579 147.127 73.9443 146.942C74.348 146.588 74.6652 146.146 74.8714 145.649C75.0776 145.153 75.1673 144.616 75.1336 144.08C75.1107 143.8 75.0707 143.522 75.014 143.248C74.9341 142.771 74.8286 142.298 74.6981 141.832C74.5491 141.342 74.346 140.872 74.1723 140.392C73.836 139.463 73.6081 138.496 73.3215 137.55C73.4277 137.561 73.5314 137.59 73.6284 137.634C73.5561 137.549 73.5065 137.447 73.484 137.338C73.3155 136.736 73.2245 136.116 73.2132 135.491L73.405 135.405C73.4914 134.795 73.46 134.174 73.3125 133.576C73.4208 132.606 73.5901 131.629 73.6939 130.664C73.7322 130.302 73.7164 129.848 73.3847 129.76C73.317 129.242 73.2899 128.718 73.2628 128.195C73.1681 126.373 73.074 124.552 72.9808 122.731C72.886 120.902 72.7912 119.075 72.7551 117.244C72.7303 116.082 72.7167 114.879 72.4414 113.767C72.489 113.234 72.4346 112.697 72.2812 112.184C71.8615 110.853 70.5571 109.797 69.2347 109.871C68.8404 109.306 68.3527 108.812 67.7928 108.411C68.0568 107.819 68.3727 107.208 68.6322 106.729C70.7489 106.039 72.297 103.948 72.297 101.461C72.3001 100.551 72.0874 99.6528 71.6764 98.8409C71.7153 98.7411 71.7484 98.6392 71.7757 98.5357C71.889 98.0474 71.8537 97.5363 71.6742 97.0684C71.6106 96.8887 71.5353 96.7135 71.4485 96.5439C71.3898 96.4309 71.3267 96.3178 71.2612 96.2093L71.1461 96.0352C71.0762 95.929 71.004 95.8272 70.9205 95.7277C70.7602 95.5121 70.5884 95.3054 70.4059 95.1083C70.1812 94.8646 69.9333 94.6435 69.6658 94.4481C69.3029 94.1779 68.8879 93.9862 68.4472 93.8852C68.1923 93.8348 67.9329 93.8113 67.6732 93.8151C67.5174 93.8151 67.3595 93.8151 67.2038 93.8287C66.8878 93.8467 66.5742 93.8694 66.2605 93.8671C66.1567 93.8671 66.0506 93.8671 65.9468 93.8513C65.3946 93.7775 64.8486 93.6634 64.313 93.5099L64.0422 93.4534C63.9497 93.4353 63.8594 93.4195 63.7669 93.4081C63.5194 93.375 63.2697 93.3599 63.02 93.3629L62.7695 93.3629C62.5193 93.375 62.27 93.4007 62.0225 93.4398L61.7743 93.4782C61.1475 93.5766 60.5366 93.7583 59.9577 94.0186C59.8833 94.0525 59.8065 94.0909 59.7321 94.1316L59.6869 94.1565C59.626 94.1881 59.5651 94.222 59.5064 94.2582L59.4725 94.2786L59.2807 94.4006L59.2649 94.412C57.4732 95.6192 56.4148 97.9072 56.1463 100.177C55.8461 102.725 56.3719 105.293 56.8977 107.8L57.3716 110.061C57.3919 110.163 57.4145 110.262 57.4348 110.364C56.7684 110.912 56.2559 111.624 55.9477 112.431C55.4963 113.561 55.4851 114.784 55.5212 116.009C55.5212 116.258 55.5347 116.507 55.5595 116.756C55.5031 117.226 55.4535 117.698 55.4219 118.173C55.2797 120.366 55.546 122.57 55.476 124.768C55.4219 126.461 55.1669 128.159 55.291 129.841C55.3993 131.333 55.7987 132.78 56.1936 134.22L56.7623 136.273C56.7808 136.379 56.8302 136.478 56.9045 136.556C56.9979 136.619 57.1121 136.642 57.2227 136.621C56.8527 137.463 56.5436 138.331 56.2975 139.217C56.1274 139.759 56.0155 140.319 55.9635 140.885C55.889 141.921 56.1282 142.949 56.3674 143.955C56.7285 145.463 57.088 146.976 57.4461 148.495C57.6988 149.558 57.9508 150.619 58.2021 151.681C58.6985 153.774 59.1972 155.881 59.2898 158.036C59.3413 159.118 59.2656 160.202 59.0641 161.266C58.413 164.454 58.3184 167.73 58.7843 170.949C59.1609 173.666 59.7717 176.344 60.6099 178.955C60.7927 178.858 60.9777 178.767 61.1673 178.684L61.0883 178.831C60.828 179.283 60.5873 179.746 60.3662 180.221C60.2171 180.53 60.0882 180.848 59.9803 181.173C59.6914 182.077 59.6463 183.04 59.6057 183.992C59.585 184.175 59.6011 184.36 59.6531 184.537C59.7772 184.878 60.1337 185.052 60.4655 185.147C61.4403 185.425 62.4536 185.326 63.4668 185.195C63.4715 185.217 63.4783 185.239 63.4871 185.26C63.6112 185.602 63.9655 185.776 64.2995 185.871C65.6941 186.269 67.1654 185.893 68.6029 185.758C70.0404 185.622 71.453 185.722 72.8363 185.389C73.0425 185.345 73.2405 185.269 73.4231 185.163C73.7787 184.914 74.0396 184.551 74.1632 184.135C74.2065 184.027 74.2354 183.913 74.249 183.798C74.3054 183.303 73.8834 182.866 73.4366 182.701ZM68.6638 161.764C68.586 162.293 68.4341 162.809 68.2125 163.297C67.127 165.609 66.3486 168.054 65.8972 170.57C65.601 172.231 65.4298 173.913 65.3849 175.6C65.3624 176.843 65.4098 178.146 64.893 179.262L65.0803 179.233C65.0216 179.342 64.9652 179.459 64.911 179.545L64.884 179.595C64.5714 179.062 64.3624 178.474 64.2679 177.863C64.2679 177.843 64.1663 177.827 64.0106 177.818C63.3727 174.247 63.1516 170.613 63.3517 166.991C63.3547 166.551 63.4154 166.114 63.5322 165.691C63.6473 165.327 63.8414 164.994 63.9836 164.642C64.209 164.049 64.3606 163.431 64.4349 162.801C64.6807 161.192 64.7759 159.563 64.7192 157.936C64.6651 156.401 65.0194 154.875 65.3217 153.347C65.4662 152.621 65.5993 151.893 65.6715 151.165L65.6851 151.018C67.0277 153.237 67.966 155.678 68.4562 158.226C68.7288 159.384 68.799 160.581 68.6638 161.764ZM59.0054 129.091L59.0776 129.154C59.2958 129.346 59.4966 129.557 59.6779 129.785C59.7681 129.884 59.8331 130.003 59.8674 130.133C59.9351 130.463 59.6621 130.743 59.4387 130.985C59.3416 131.09 59.2505 131.2 59.1656 131.315C59.1175 130.574 59.0663 129.832 59.0122 129.091L59.0054 129.091Z" fill="url(#paint0_linear)"/>
<path id="Vector_129" d="M55.882 114.92L55.6338 116.839C55.5503 117.49 55.4668 118.139 55.4217 118.792C55.2705 120.967 55.5503 123.151 55.4781 125.331C55.4194 127.008 55.1531 128.683 55.2818 130.359C55.3968 131.837 55.8166 133.275 56.2363 134.699L56.8321 136.734C56.8524 136.841 56.9043 136.938 56.981 137.015C57.0958 137.083 57.2321 137.104 57.3624 137.076L60.0072 136.836C59.8379 136.058 59.6506 135.253 59.5558 134.455C59.4836 133.831 59.4407 133.203 59.3956 132.574C59.2557 130.616 59.0955 128.659 58.9443 126.696L58.6622 123.26C58.5426 121.768 58.4185 120.269 58.0439 118.82C57.668 117.356 56.9237 116.013 55.882 114.92Z" fill="#DE756D"/>
<path id="Vector_130" opacity="0.1" d="M55.882 114.92L55.6338 116.839C55.5503 117.49 55.4668 118.139 55.4217 118.792C55.2705 120.967 55.5503 123.151 55.4781 125.331C55.4194 127.008 55.1531 128.683 55.2818 130.359C55.3968 131.837 55.8166 133.275 56.2363 134.699L56.8321 136.734C56.8524 136.841 56.9043 136.938 56.981 137.015C57.0958 137.083 57.2321 137.104 57.3624 137.076L60.0072 136.836C59.8379 136.058 59.6506 135.253 59.5558 134.455C59.4836 133.831 59.4407 133.203 59.3956 132.574C59.2557 130.616 59.0955 128.659 58.9443 126.696L58.6622 123.26C58.5426 121.768 58.4185 120.269 58.0439 118.82C57.668 117.356 56.9237 116.013 55.882 114.92Z" fill="black"/>
<path id="Vector_131" d="M60.5941 180.262C60.4388 180.568 60.3031 180.883 60.1879 181.207C59.8855 182.1 59.8404 183.058 59.7952 184.001C59.7753 184.183 59.7922 184.367 59.8449 184.541C59.9758 184.881 60.3504 185.052 60.7001 185.145C62.1647 185.541 63.7082 185.17 65.2134 185.034C66.7186 184.899 68.2057 184.998 69.659 184.67C69.8736 184.629 70.0811 184.556 70.275 184.456C70.643 184.216 70.9178 183.856 71.0536 183.438C71.0973 183.331 71.1269 183.218 71.1416 183.104C71.189 182.606 70.758 182.177 70.2886 182.014C69.8192 181.851 69.3069 181.876 68.8127 181.826C67.7949 181.722 66.8398 181.284 66.0956 180.581C65.3514 179.877 64.8597 178.947 64.6966 177.935C64.6786 177.827 62.2504 177.892 61.9887 178.033C61.6908 178.198 61.5103 178.607 61.341 178.885C61.0747 179.333 60.8258 179.791 60.5941 180.262Z" fill="#A26565"/>
<path id="Vector_132" opacity="0.1" d="M60.5941 180.262C60.4388 180.568 60.3031 180.883 60.1879 181.207C59.8855 182.1 59.8404 183.058 59.7952 184.001C59.7753 184.183 59.7922 184.367 59.8449 184.541C59.9758 184.881 60.3504 185.052 60.7001 185.145C62.1647 185.541 63.7082 185.17 65.2134 185.034C66.7186 184.899 68.2057 184.998 69.659 184.67C69.8736 184.629 70.0811 184.556 70.275 184.456C70.643 184.216 70.9178 183.856 71.0536 183.438C71.0973 183.331 71.1269 183.218 71.1416 183.104C71.189 182.606 70.758 182.177 70.2886 182.014C69.8192 181.851 69.3069 181.876 68.8127 181.826C67.7949 181.722 66.8398 181.284 66.0956 180.581C65.3514 179.877 64.8597 178.947 64.6966 177.935C64.6786 177.827 62.2504 177.892 61.9887 178.033C61.6908 178.198 61.5103 178.607 61.341 178.885C61.0747 179.333 60.8258 179.791 60.5941 180.262Z" fill="black"/>
<path id="Vector_133" d="M64.6221 180.981C64.4659 181.286 64.3302 181.6 64.2159 181.923C63.9112 182.828 63.8661 183.775 63.8232 184.718C63.8022 184.899 63.8191 185.083 63.8729 185.258C64.0015 185.597 64.3761 185.769 64.7259 185.864C66.1904 186.257 67.7362 185.887 69.2391 185.751C70.7421 185.615 72.2337 185.715 73.6847 185.387C73.9003 185.343 74.108 185.267 74.3008 185.161C74.6693 184.921 74.9442 184.562 75.0793 184.144C75.1231 184.036 75.1527 183.924 75.1673 183.809C75.2147 183.314 74.7837 182.882 74.3143 182.719C73.8449 182.556 73.3327 182.584 72.8385 182.532C71.8211 182.427 70.8665 181.989 70.1224 181.286C69.3783 180.583 68.8863 179.654 68.7224 178.643C68.7043 178.534 66.2762 178.598 66.0144 178.738C65.7143 178.903 65.5338 179.312 65.3645 179.59C65.1073 180.049 64.8545 180.51 64.6221 180.981Z" fill="#A26565"/>
<path id="Vector_134" d="M75.1224 156.964C75.154 161.85 73.7368 166.624 72.0737 171.207C71.4147 173.025 70.7159 174.827 69.9772 176.613C69.5395 177.671 69.0452 178.846 69.5146 179.891C68.1606 179.375 66.7841 179.073 65.3602 179.31C65.9017 178.202 65.8499 176.913 65.8747 175.693C65.9206 174.019 66.0987 172.353 66.4072 170.708C66.8852 168.204 67.7045 165.778 68.8422 163.498C69.0721 163.017 69.231 162.505 69.3138 161.979C69.4988 160.816 69.3544 159.623 69.1129 158.472C68.5935 155.93 67.6063 153.508 66.2019 151.328L66.1883 151.473C66.104 152.2 65.982 152.922 65.8228 153.636C65.5046 155.149 65.1322 156.663 65.1887 158.185C65.2475 159.798 65.1477 161.413 64.8908 163.007C64.808 163.633 64.645 164.245 64.4056 164.829C64.2499 165.18 64.0468 165.508 63.9249 165.872C63.803 166.29 63.7392 166.724 63.7354 167.16C63.5548 170.839 63.7354 174.574 64.4846 178.18C63.2276 178.08 61.9707 178.444 60.8469 179.009C59.9682 176.428 59.3262 173.772 58.9287 171.074C58.4391 167.883 58.5385 164.629 59.2221 161.474C59.4351 160.422 59.5148 159.347 59.4591 158.275C59.362 156.139 58.8385 154.05 58.3172 151.974L57.5229 148.809C57.1468 147.302 56.7706 145.802 56.3945 144.308C56.1441 143.311 55.8913 142.291 55.9703 141.265C56.0254 140.702 56.1435 140.147 56.3223 139.61C56.8857 137.785 57.7285 136.058 58.8204 134.492C63.169 134.736 67.5694 134.329 71.9089 133.994C72.1193 133.953 72.3377 133.99 72.5227 134.098C72.6706 134.249 72.7589 134.448 72.771 134.659L74.4025 143.928C74.6667 145.217 74.8214 146.525 74.8651 147.839C74.8651 149.151 74.662 150.457 74.7117 151.766C74.7794 153.53 75.1133 155.198 75.1224 156.964Z" fill="#454B69"/>
<path id="Vector_135" opacity="0.1" d="M66.1928 151.472C66.1085 152.2 65.9865 152.922 65.8272 153.636C64.8817 151.997 63.8617 150.399 62.9906 148.719C62.7649 148.287 62.5528 147.848 62.3384 147.41L61.6953 146.099C61.5757 145.852 61.4561 145.606 61.3478 145.355C61.1714 144.994 61.0359 144.615 60.9438 144.224C61.2598 144.166 62.0406 145.02 62.2753 145.244C62.754 145.719 63.206 146.22 63.6292 146.745C64.1433 147.329 64.6154 147.948 65.0419 148.599C65.588 149.483 65.9774 150.455 66.1928 151.472Z" fill="black"/>
<path id="Vector_136" d="M69.8144 106.503C69.8144 106.503 67.3998 110.357 67.8466 111.164C68.2934 111.972 60.2417 110.448 60.2417 110.448C60.2417 110.448 64.6263 106.593 64.1773 104.979C63.7282 103.365 69.8144 106.503 69.8144 106.503Z" fill="#EFB7B9"/>
<path id="Vector_137" d="M67.6683 107.669C70.6831 107.669 73.1271 105.221 73.1271 102.2C73.1271 99.18 70.6831 96.7314 67.6683 96.7314C64.6535 96.7314 62.2095 99.1799 62.2095 102.2C62.2095 105.221 64.6535 107.669 67.6683 107.669Z" fill="#EFB7B9"/>
<path id="Vector_138" d="M69.8956 110.545C69.311 109.733 68.518 109.094 67.6006 108.696C67.0719 108.506 66.5252 108.371 65.969 108.293L63.7914 107.909C63.2588 107.814 62.6879 107.726 62.1914 107.945C61.9404 108.074 61.7118 108.243 61.5144 108.445C60.7584 109.148 60.025 109.919 59.075 110.326C58.8155 110.437 58.5447 110.518 58.2852 110.629C57.2223 111.081 56.428 112.044 55.9789 113.116C55.505 114.233 55.4915 115.447 55.5276 116.661C55.5269 117.08 55.5685 117.498 55.6517 117.909C55.7603 118.3 55.8984 118.682 56.0646 119.053C56.3647 119.845 56.6164 120.655 56.8184 121.479C57.3825 123.641 57.8519 125.827 58.2265 128.035C58.2583 128.351 58.351 128.658 58.4995 128.939C58.7099 129.22 58.9645 129.465 59.2533 129.665C59.4823 129.853 59.6931 130.063 59.8829 130.291C59.9774 130.384 60.0479 130.499 60.0882 130.626C60.1582 130.951 59.8626 131.232 59.6369 131.469C59.1513 131.965 58.8002 132.578 58.6169 133.248C58.5037 133.386 58.4458 133.561 58.4544 133.739C58.5014 133.863 58.5192 133.996 58.5063 134.128C58.4619 134.248 58.3918 134.357 58.301 134.447C58.1968 134.582 58.1229 134.739 58.0839 134.906C58.045 135.073 58.0421 135.246 58.0753 135.414C59.7668 136.15 61.577 136.575 63.419 136.667C63.8703 136.689 64.3217 136.689 64.773 136.744C65.0934 136.784 65.4094 136.85 65.7298 136.888C66.1948 136.932 66.6623 136.944 67.1289 136.924C69.5593 136.875 72.0597 136.814 74.2915 135.848C74.5014 134.702 74.0478 133.533 73.7634 132.403C73.3121 130.594 73.1993 128.743 72.8608 126.918C72.6351 125.672 72.2966 124.445 72.1048 123.19C71.913 121.935 71.8791 120.635 72.2131 119.414C72.5178 118.334 72.6103 117.23 72.9262 116.152C73.2422 115.074 73.4633 113.905 73.1068 112.838C72.6554 111.517 71.2856 110.471 69.8956 110.545Z" fill="#DE756D"/>
<path id="Vector_139" d="M72.5766 99.2998C72.8429 98.33 72.3193 97.3194 71.6965 96.5303C71.0195 95.6825 70.1575 94.9184 69.0991 94.7059C68.2393 94.5318 67.348 94.742 66.4724 94.672C65.6984 94.6109 64.9537 94.3306 64.1842 94.2198C63.486 94.1444 62.7805 94.1711 62.09 94.2989C61.4347 94.3965 60.7941 94.5758 60.1831 94.8325C57.8588 95.8657 56.4981 98.4113 56.1821 100.937C55.8662 103.462 56.4191 106.008 56.9697 108.492L57.4684 110.74C57.9874 113.079 58.5065 115.428 58.6441 117.82C58.7818 120.212 58.5245 122.668 57.5429 124.852C60.7174 123.143 63.1772 120.353 64.4775 116.986C64.8296 116.062 65.0913 115.101 65.484 114.192C65.8202 113.41 66.2512 112.668 66.5491 111.87C66.8858 110.969 67.0474 110.012 67.0253 109.051C67.0072 108.327 66.8876 107.608 66.9079 106.885C66.9282 106.161 67.1133 105.409 67.612 104.884C68.0633 104.421 68.6839 104.206 69.2548 103.905C70.1536 103.443 70.9389 102.786 71.5543 101.983C71.9131 101.513 71.9334 101.305 72.0237 100.772C72.114 100.238 72.4367 99.813 72.5766 99.2998Z" fill="#A26565"/>
<path id="Vector_140" d="M72.5835 140.381C72.6399 140.944 72.5383 141.512 72.6602 142.07C72.7527 142.486 72.9671 142.861 73.0935 143.268C73.2185 143.738 73.2829 144.222 73.2853 144.708C73.3033 145.115 73.2717 145.613 72.9107 145.803C72.7527 145.886 72.5631 145.886 72.3984 145.959C72.2337 146.031 72.0938 146.228 72.1885 146.381C72.2833 146.535 72.4458 146.51 72.5947 146.54C72.7437 146.569 72.9039 146.723 72.8204 146.847C72.7864 146.888 72.7407 146.917 72.6895 146.931C72.5389 146.977 72.3959 147.046 72.2653 147.134C72.2014 147.181 72.1515 147.244 72.1209 147.317C72.0902 147.39 72.0801 147.47 72.0915 147.548C72.1006 147.585 72.118 147.62 72.1425 147.65C72.167 147.68 72.1978 147.703 72.2328 147.72C72.2677 147.736 72.3059 147.744 72.3443 147.743C72.3828 147.742 72.4205 147.733 72.4548 147.715C72.3886 147.857 72.3525 148.011 72.3488 148.167C72.9265 148.416 73.5741 148.09 74.1157 147.776C74.3499 147.645 74.576 147.5 74.7927 147.342C75.2308 147.005 75.58 146.566 75.8097 146.063C76.0394 145.559 76.1427 145.008 76.1106 144.455C76.0848 144.178 76.0418 143.902 75.982 143.63C75.8986 143.156 75.7879 142.687 75.6502 142.226C75.4945 141.74 75.2824 141.276 75.0996 140.799C74.7115 139.784 74.461 138.722 74.1089 137.693C74.0854 137.586 74.0256 137.491 73.9397 137.424C73.8621 137.386 73.7755 137.369 73.6892 137.377C73.2941 137.356 72.8981 137.392 72.5135 137.485C72.2878 137.553 71.902 137.711 71.7959 137.937C71.6898 138.163 71.8591 138.353 71.9606 138.541C72.285 139.108 72.4965 139.733 72.5835 140.381Z" fill="#EFB7B9"/>
<path id="Vector_141" opacity="0.1" d="M72.2155 112.91C72.3314 113.029 72.4288 113.164 72.5044 113.312C73.2806 114.725 73.2897 116.414 73.3258 118.026C73.3664 119.835 73.4657 121.643 73.565 123.463L73.8606 128.889C73.8899 129.407 73.917 129.925 73.9915 130.438C74.339 130.526 74.3525 130.978 74.3142 131.342C74.0637 133.553 73.4431 135.83 74.0885 137.957C74.1134 138.067 74.1654 138.168 74.2397 138.251C73.912 138.148 73.5614 138.144 73.231 138.238C72.9083 138.306 72.5969 138.425 72.2719 138.5C71.8612 138.593 71.3964 138.633 71.1165 138.952C70.7994 137.997 70.5468 137.021 70.3606 136.031C70.2071 135.127 70.1642 134.195 69.7987 133.359C69.652 133.022 69.4534 132.71 69.2729 132.387C68.3273 130.696 67.8625 128.785 67.4089 126.9C67.2053 126.006 67.1565 125.084 67.2645 124.173C67.3301 123.758 67.3678 123.339 67.3773 122.919C67.3498 122.475 67.2918 122.034 67.2035 121.598C67.0118 120.32 67.1019 119.015 67.4676 117.775C67.8061 116.624 68.1039 115.413 68.8215 114.445C69.5391 113.477 71.0172 112.926 72.2155 112.91Z" fill="black"/>
<path id="Vector_142" d="M72.484 112.729C72.5999 112.849 72.6972 112.985 72.7728 113.134C73.5491 114.544 73.5581 116.236 73.5942 117.847C73.6349 119.656 73.7342 121.465 73.8334 123.273L74.1291 128.699C74.1584 129.217 74.1855 129.735 74.26 130.248C74.6075 130.336 74.621 130.788 74.5804 131.152C74.3322 133.363 73.7116 135.638 74.3547 137.767C74.3796 137.877 74.4316 137.978 74.5059 138.061C74.1782 137.958 73.8276 137.954 73.4972 138.048C73.1745 138.116 72.8631 138.235 72.5381 138.308C72.1274 138.403 71.6626 138.441 71.3827 138.76C71.0666 137.8 70.8163 136.82 70.6335 135.825C70.4801 134.921 70.4372 133.992 70.0716 133.155C69.9129 132.823 69.7374 132.498 69.5458 132.183C68.598 130.492 68.1354 128.58 67.6819 126.694C67.4783 125.8 67.4294 124.878 67.5374 123.967C67.7074 123.115 67.6866 122.236 67.4765 121.392C67.2848 120.115 67.3749 118.811 67.7405 117.572C68.079 116.421 68.3769 115.209 69.0945 114.241C69.8121 113.274 71.2857 112.747 72.484 112.729Z" fill="#DE756D"/>
<g id="Group_2" opacity="0.1">
<path id="Vector_143" opacity="0.1" d="M71.6966 96.5304C71.0196 95.6825 70.1575 94.9184 69.0992 94.7059C68.2394 94.5318 67.348 94.742 66.4725 94.672C65.6984 94.6109 64.9537 94.3306 64.1842 94.2198C63.486 94.1444 62.7806 94.1711 62.0901 94.2989C61.4347 94.3965 60.7942 94.5758 60.1832 94.8325C59.8532 94.9806 59.5381 95.16 59.2422 95.3683C59.786 95.1566 60.3513 95.005 60.9279 94.9161C61.6177 94.7881 62.3224 94.7614 63.0198 94.837C63.7916 94.9365 64.534 95.2146 65.3103 95.2756C66.1836 95.3457 67.075 95.1377 67.937 95.3095C68.9954 95.522 69.8619 96.2884 70.5321 97.1363C71.1572 97.923 71.6785 98.9336 71.4145 99.9058C71.2746 100.417 70.9496 100.864 70.8616 101.391C70.7736 101.918 70.751 102.133 70.39 102.603C69.927 103.206 69.3673 103.728 68.7336 104.147C68.9074 104.066 69.0856 103.984 69.2549 103.896C70.1537 103.434 70.939 102.777 71.5544 101.974C71.9132 101.504 71.9335 101.296 72.0238 100.763C72.114 100.229 72.4367 99.7905 72.5766 99.2772C72.8429 98.33 72.3194 97.3194 71.6966 96.5304Z" fill="black"/>
<path id="Vector_144" opacity="0.1" d="M67.6121 104.898C67.7056 104.8 67.8075 104.712 67.9167 104.633C67.3954 104.886 66.8471 105.108 66.4477 105.537C65.9489 106.06 65.7707 106.815 65.7436 107.538C65.7165 108.262 65.8451 108.981 65.8609 109.702C65.8831 110.664 65.7215 111.622 65.3848 112.523C65.0869 113.321 64.6559 114.061 64.3196 114.845C63.9293 115.749 63.6675 116.713 63.3154 117.637C62.1873 120.557 60.1841 123.054 57.5813 124.786C57.5678 124.815 57.5565 124.847 57.543 124.876C60.7175 123.168 63.1773 120.378 64.4776 117.011C64.8297 116.086 65.0914 115.125 65.4841 114.217C65.8203 113.434 66.2513 112.693 66.5492 111.895C66.8859 110.994 67.0475 110.037 67.0254 109.076C67.0073 108.352 66.8877 107.633 66.908 106.91C66.9283 106.186 67.1134 105.422 67.6121 104.898Z" fill="black"/>
</g>
</g>
<defs>
<linearGradient id="paint0_linear" x1="65.2067" y1="186.04" x2="65.2067" y2="93.3697" gradientUnits="userSpaceOnUse">
<stop stop-color="#808080" stop-opacity="0.25"/>
<stop offset="0.54" stop-color="#808080" stop-opacity="0.12"/>
<stop offset="1" stop-color="#808080" stop-opacity="0.1"/>
</linearGradient>
<clipPath id="clip0">
<rect width="255" height="188" fill="white" transform="translate(0.513184 0.000488281)"/>
</clipPath>
</defs>
</svg>
