<svg width="229" height="151" viewBox="0 0 229 151" fill="none" xmlns="http://www.w3.org/2000/svg">
<g id="undraw_Mobile_application_mr4r 2" clip-path="url(#clip0)">
<path id="Vector" d="M167.204 151C160.9 150.012 154.838 149.171 149.02 148.477L151.261 143.988C150.483 143.728 147.113 146.325 147.113 146.325L149.964 133.338C146.076 133.858 144.261 147.104 144.261 147.104L139.854 142.689L142.023 147.688C124.219 145.814 108.855 145.229 95.9398 145.363L97.8575 141.52C97.0798 141.26 93.7097 143.858 93.7097 143.858L96.5613 130.871C92.6728 131.39 90.8581 144.637 90.8581 144.637L86.451 140.221L88.7488 145.516C79.9021 145.774 71.0744 146.486 62.3006 147.65C64.2142 141.677 70.8967 135.936 70.8967 135.936C65.7585 137.537 63.0853 140.147 61.7017 142.565C61.4219 130.294 63.306 118.07 67.2674 106.455C67.2674 106.455 56.8979 129.832 58.4533 145.416L58.6507 148.184C49.6293 149.594 45.1025 151 45.1025 151L167.204 151Z" fill="#3F3D56"/>
<path id="Vector_2" d="M190.969 118.828C190.353 118.828 189.752 118.645 189.24 118.303C188.729 117.96 188.33 117.473 188.095 116.904C187.859 116.334 187.798 115.708 187.918 115.103C188.038 114.498 188.334 113.943 188.769 113.507C189.204 113.071 189.758 112.774 190.362 112.654C190.965 112.534 191.591 112.596 192.159 112.831C192.728 113.067 193.214 113.467 193.555 113.979C193.897 114.492 194.08 115.095 194.08 115.711C194.079 116.537 193.751 117.33 193.167 117.914C192.584 118.498 191.794 118.827 190.969 118.828ZM190.969 113.114C190.456 113.114 189.955 113.266 189.529 113.551C189.102 113.837 188.77 114.243 188.574 114.717C188.378 115.192 188.326 115.714 188.426 116.218C188.526 116.722 188.773 117.185 189.136 117.548C189.498 117.911 189.96 118.158 190.463 118.259C190.966 118.359 191.487 118.307 191.961 118.111C192.435 117.914 192.839 117.581 193.124 117.154C193.409 116.727 193.561 116.225 193.561 115.711C193.56 115.022 193.287 114.362 192.801 113.875C192.315 113.388 191.656 113.114 190.969 113.114Z" fill="#3F3D56"/>
<path id="Vector_3" d="M199.811 137.591L194.693 137.591L194.693 132.464L199.811 132.464L199.811 137.591ZM195.087 137.197L199.417 137.197L199.417 132.858L195.087 132.858L195.087 137.197Z" fill="#3F3D56"/>
<path id="Vector_4" d="M42.5478 150.872L39.0571 147.122L42.7996 143.625L46.2902 147.375L42.5478 150.872ZM39.6135 147.142L42.5672 150.315L45.7338 147.355L42.7802 144.182L39.6135 147.142Z" fill="#3F3D56"/>
<path id="Vector_5" d="M206.512 150.302L6.13184 150.302L6.13184 150.821L206.512 150.821L206.512 150.302Z" fill="#3F3D56"/>
<path id="Vector_6" d="M143.996 34.7433L143.996 51.803C143.995 51.9607 143.932 52.1117 143.821 52.2231C143.71 52.3346 143.559 52.3974 143.402 52.3978L142.979 52.3978L142.979 141.268C142.979 143.727 142.004 146.086 140.269 147.825C138.533 149.563 136.179 150.54 133.725 150.541L78.3021 150.541C77.0868 150.54 75.8836 150.301 74.7609 149.834C73.6383 149.368 72.6182 148.685 71.7591 147.824C70.8999 146.963 70.2185 145.941 69.7536 144.816C69.2887 143.691 69.0496 142.485 69.0498 141.268L69.0498 55.5147L68.7439 55.5147C68.6329 55.5149 68.5264 55.471 68.4477 55.3926C68.369 55.3142 68.3245 55.2077 68.324 55.0965L68.324 45.3874C68.3239 45.3322 68.3348 45.2775 68.3559 45.2264C68.377 45.1754 68.4079 45.129 68.4469 45.0899C68.4859 45.0508 68.5322 45.0198 68.5832 44.9987C68.6342 44.9775 68.6888 44.9667 68.7439 44.9667L69.0498 44.9667L69.0498 41.3095L68.7413 41.3095C68.6248 41.3091 68.5132 41.2623 68.4311 41.1795C68.349 41.0968 68.303 40.9847 68.3032 40.868L68.3032 31.2914C68.3035 31.175 68.3498 31.0636 68.4319 30.9813C68.514 30.899 68.6252 30.8527 68.7413 30.8524L69.0498 30.8524L69.0498 25.8602L68.7361 25.8602C68.6851 25.8603 68.6345 25.8502 68.5872 25.8307C68.54 25.8111 68.4971 25.7824 68.461 25.7462C68.4249 25.71 68.3963 25.6671 68.3767 25.6198C68.3572 25.5725 68.3472 25.5218 68.3473 25.4706L68.3473 20.2446C68.347 20.141 68.3879 20.0415 68.4608 19.9679C68.5337 19.8944 68.6327 19.8529 68.7361 19.8524L69.0498 19.8524L69.0498 9.2706C69.0499 6.81204 70.0247 4.45421 71.7598 2.71574C73.4949 0.977276 75.8482 0.000577879 78.302 0.000488348L133.725 0.000488718C136.179 0.000477619 138.532 0.97706 140.268 2.71547C142.003 4.45388 142.979 6.81177 142.979 9.2706L142.979 34.1485L143.402 34.1485C143.559 34.1489 143.71 34.2117 143.821 34.3232C143.932 34.4346 143.995 34.5857 143.996 34.7433Z" fill="#3F3D56"/>
<path id="Vector_7" d="M108.683 4.75537L99.6775 4.75537C99.3136 4.75537 99.0186 5.05097 99.0186 5.4156L99.0186 6.19551C99.0186 6.56014 99.3136 6.85574 99.6775 6.85574L108.683 6.85574C109.047 6.85574 109.342 6.56014 109.342 6.19551L109.342 5.4156C109.342 5.05097 109.047 4.75537 108.683 4.75537Z" fill="#E6E8EC"/>
<path id="Vector_8" d="M112.092 6.99693C112.749 6.99693 113.281 6.46355 113.281 5.8056C113.281 5.14764 112.749 4.61426 112.092 4.61426C111.436 4.61426 110.903 5.14764 110.903 5.8056C110.903 6.46355 111.436 6.99693 112.092 6.99693Z" fill="#E6E8EC"/>
<path id="Vector_9" d="M138.548 11.1045L138.548 142.037C138.548 142.888 138.364 143.73 138.008 144.502C137.652 145.275 137.132 145.961 136.484 146.512C135.422 147.419 134.072 147.918 132.676 147.917L79.6227 147.917C78.6788 147.919 77.7485 147.692 76.9111 147.255C76.7144 147.154 76.5239 147.041 76.3408 146.917C75.5434 146.378 74.8903 145.652 74.4387 144.801C73.9872 143.95 73.751 143.001 73.751 142.037L73.751 11.1045C73.7509 10.332 73.9028 9.56692 74.1979 8.85313C74.4929 8.13935 74.9254 7.49078 75.4707 6.94448C76.0159 6.39818 76.6633 5.96483 77.3757 5.66919C78.0881 5.37355 78.8516 5.2214 79.6227 5.22144L87.5632 5.22144L87.5632 6.24221C87.5632 7.52696 88.0726 8.75908 88.9793 9.66753C89.886 10.576 91.1157 11.0864 92.398 11.0864L119.379 11.0864C120.662 11.0864 121.892 10.576 122.798 9.66754C123.705 8.75908 124.214 7.52696 124.214 6.24221L124.214 5.22144L132.676 5.22144C133.447 5.22119 134.211 5.37318 134.923 5.66875C135.636 5.96431 136.283 6.39765 136.828 6.944C137.374 7.49034 137.806 8.13899 138.101 8.85288C138.396 9.56676 138.548 10.3319 138.548 11.1045Z" fill="#DE756D"/>
<path id="Vector_10" opacity="0.3" d="M138.548 123.294L138.548 142.037C138.548 142.888 138.364 143.73 138.008 144.502C137.652 145.275 137.132 145.961 136.484 146.512C135.422 147.419 134.072 147.918 132.676 147.917L79.6227 147.917C78.6788 147.919 77.7485 147.692 76.9111 147.255C76.7144 147.154 76.5239 147.041 76.3408 146.918C75.5434 146.378 74.8903 145.652 74.4387 144.801C73.9872 143.95 73.751 143.001 73.751 142.037L73.751 123.302C82.6471 115.29 94.1859 110.857 106.148 110.855C118.11 110.854 129.65 115.284 138.548 123.294Z" fill="white"/>
<path id="Vector_11" opacity="0.3" d="M135.393 147.25C134.555 147.691 133.622 147.92 132.676 147.917L79.6228 147.917C78.6788 147.919 77.7485 147.692 76.9111 147.255C79.3129 141.468 83.3716 136.522 88.5753 133.043C93.779 129.564 99.8944 127.708 106.15 127.707C112.406 127.706 118.522 129.562 123.726 133.04C128.93 136.518 132.99 141.463 135.393 147.25Z" fill="white"/>
<path id="Vector_12" opacity="0.3" d="M123.846 147.564C123.339 147.831 122.775 147.97 122.202 147.968L90.0984 147.968C89.5272 147.969 88.9642 147.831 88.4575 147.567C89.9109 144.065 92.3669 141.073 95.5158 138.967C98.6647 136.862 102.365 135.739 106.151 135.738C109.936 135.738 113.637 136.861 116.786 138.966C119.936 141.07 122.392 144.062 123.846 147.564Z" fill="white"/>
<path id="Vector_13" d="M119.646 55.9097C114.324 55.9097 108.483 54.8943 103.924 51.4681C97.5759 46.6979 89.7549 46.9525 84.3118 48.0063C80.6962 48.7121 77.1869 49.8833 73.8711 51.4907L73.6313 51.03C76.9876 49.4017 80.5399 48.2148 84.1999 47.4988C89.7499 46.4226 97.7313 46.1654 104.235 51.0526C116.419 60.2083 138.236 51.9852 138.455 51.9013L138.641 52.3863C134.55 53.8474 130.318 54.8795 126.014 55.4661C123.904 55.7546 121.776 55.9028 119.646 55.9097Z" fill="white"/>
<path id="Vector_14" opacity="0.3" d="M73.7485 51.2603C73.7485 51.2603 91.636 46.9195 104.079 52.8629C116.523 58.8063 138.558 52.8188 138.558 52.8188" fill="white"/>
<path id="Vector_15" opacity="0.3" d="M90.6358 58.0035C88.4749 57.9938 86.3199 57.7782 84.1999 57.3596C80.5399 56.6436 76.9876 55.4567 73.6313 53.8284L73.8711 53.3678C77.1869 54.9752 80.6962 56.1464 84.3118 56.8522C89.7546 57.9058 97.5758 58.1605 103.924 53.3903C110.422 48.5073 119.524 48.521 126.014 49.3924C130.318 49.9789 134.55 51.011 138.641 52.4721L138.455 52.9571C138.236 52.873 116.419 44.6497 104.235 53.8058C99.9701 57.0108 95.0693 58.0035 90.6358 58.0035Z" fill="white"/>
<path id="Vector_16" opacity="0.3" d="M90.7237 55.9119C81.7452 55.9119 73.7719 52.6845 73.6523 52.6352L73.8498 52.1548C74.0273 52.2281 91.7602 59.4014 103.947 52.1715C116.345 44.8157 138.402 51.3817 138.623 51.4489L138.473 51.946C138.254 51.8796 116.413 45.3795 104.211 52.6185C100.047 55.0889 95.2572 55.9119 90.7237 55.9119Z" fill="white"/>
<path id="Vector_17" opacity="0.3" d="M73.751 51.9954C73.751 51.9954 91.6358 57.9388 104.079 51.9954C116.523 46.052 138.548 51.4338 138.548 51.4338" fill="white"/>
<path id="Vector_18" d="M143.165 67.8965L143.165 75.4686C143.165 75.4686 143.769 83.9494 147.094 88.1898C147.094 88.1898 152.536 95.9134 153.292 94.2475L152.361 88.7631L149.211 85.7667L147.548 76.3773L147.094 67.8965L143.165 67.8965Z" fill="#FFB8B8"/>
<path id="Vector_19" d="M176.569 136.349L176.569 141.952L172.034 143.618L172.034 137.106L176.569 136.349Z" fill="#FFB8B8"/>
<path id="Vector_20" d="M167.349 135.743L170.372 142.558L166.139 144.375L165.232 137.712L167.349 135.743Z" fill="#FFB8B8"/>
<path id="Vector_21" d="M174.906 83.4952C174.906 83.4952 180.952 138.166 178.685 138.318C176.418 138.469 172.034 141.346 172.034 139.378C172.034 137.409 168.558 111.815 168.558 111.815L165.232 98.6395L165.232 116.813L168.709 137.409C168.709 137.409 165.384 141.801 162.965 139.226L157.826 119.084C157.826 119.084 151.024 88.4928 151.327 86.0697C151.327 86.0697 166.895 72.7427 174.906 83.4952Z" fill="#2F2E41"/>
<path id="Vector_22" d="M173.697 142.255C173.697 142.255 174.906 139.68 177.627 141.346L179.894 144.072C179.894 144.072 185.74 148.922 181.592 149.961C177.317 151.032 174.755 149.893 174.755 149.893C174.755 149.893 173.999 149.439 173.395 149.439C172.79 149.439 171.43 148.379 171.43 148.076C171.43 147.773 171.883 142.406 171.883 142.406C172.054 142.323 172.247 142.292 172.435 142.319C172.624 142.346 172.8 142.429 172.941 142.558C173.395 143.012 173.697 142.255 173.697 142.255Z" fill="#2F2E41"/>
<path id="Vector_23" d="M164.779 141.346C164.779 141.346 167.651 139.075 169.011 141.649C169.011 141.649 169.868 141.952 169.969 141.649C170.069 141.346 170.825 141.195 170.825 142.861C170.825 144.526 171.646 148.681 170.89 148.833C170.134 148.984 169.379 149.439 169.53 150.044C169.681 150.65 168.709 150.736 165.233 150.584C161.756 150.433 161.605 149.07 161.605 149.07C161.605 149.07 161.605 147.101 162.512 146.041C163.419 144.981 164.779 141.346 164.779 141.346Z" fill="#2F2E41"/>
<path id="Vector_24" d="M159.186 42.1511C159.186 42.1511 158.431 47.7545 163.267 49.7233C168.104 51.692 152.536 58.2041 151.024 54.418C149.513 50.6319 151.327 49.4204 151.327 49.4204C151.327 49.4204 152.838 47.906 151.478 43.817L159.186 42.1511Z" fill="#FFB8B8"/>
<path id="Vector_25" d="M154.35 46.0887C158.023 46.0887 161 43.1053 161 39.4252C161 35.7451 158.023 32.7617 154.35 32.7617C150.677 32.7617 147.699 35.7451 147.699 39.4252C147.699 43.1053 150.677 46.0887 154.35 46.0887Z" fill="#FFB8B8"/>
<path id="Vector_26" d="M162.058 51.5408C162.058 51.5408 157.524 53.9639 153.141 52.1465C148.757 50.3292 148.908 58.2043 148.908 58.2043L151.176 64.1105L166.895 62.5961L165.837 53.5095L162.058 51.5408Z" fill="#F2F2F2"/>
<path id="Vector_27" d="M159.805 46.3589C160.61 46.53 161.367 46.8805 162.018 47.3843C162.67 47.888 163.2 48.5322 163.569 49.2691L170.825 51.5408L172.638 54.1153L170.522 72.7428C170.522 72.7428 174.452 76.5289 174.452 78.6491C174.452 80.7693 179.289 88.0385 176.871 87.1299C174.452 86.2212 170.069 83.0409 170.069 83.0409C170.069 83.0409 159.035 83.4953 155.558 86.5241C152.082 89.553 150.722 88.6443 150.722 88.6443C150.722 88.6443 147.094 72.8942 146.943 70.4712C146.792 68.0481 142.56 53.5095 142.56 53.5095L150.117 49.2691L152.042 47.0808L157.372 55.6297L162.209 49.7235C162.209 49.7235 159.819 47.8405 159.805 46.3589Z" fill="#3F3D56"/>
<path id="Vector_28" d="M174.906 65.7764L175.813 70.6225C175.813 70.6225 179.894 85.7668 179.289 90.9159C179.289 90.9159 179.743 102.426 177.173 101.063C174.604 99.6996 175.964 91.3702 175.964 91.3702L172.337 76.3774L170.372 67.5937L174.906 65.7764Z" fill="#FFB8B8"/>
<path id="Vector_29" d="M171.127 53.2065L172.639 54.1152C172.639 54.1152 178.383 66.0792 177.022 66.9879C175.662 67.8965 169.767 69.8653 169.767 69.8653L171.127 53.2065Z" fill="#3F3D56"/>
<path id="Vector_30" d="M146.187 53.5094L142.635 53.4336L141.804 54.8723L142.862 69.5624L148.304 70.7738L146.187 53.5094Z" fill="#3F3D56"/>
<path id="Vector_31" d="M159.765 33.7898L160.964 33.353C160.964 33.353 158.458 30.8417 154.97 31.0601L155.951 30.0774C155.951 30.0774 153.554 29.2039 151.374 31.4968C150.228 32.7022 148.903 34.119 148.076 35.715L146.793 35.715L147.328 36.7887L145.453 37.8623L147.378 37.6695C147.196 38.5964 147.258 39.555 147.56 40.4502L147.996 41.6512C147.996 41.6512 149.74 38.1572 149.74 37.7205L149.74 38.8123C149.74 38.8123 150.938 37.8297 150.938 37.1745L151.592 37.9388L151.919 36.7378L155.951 37.9388L155.297 36.9562L157.804 37.2837L156.823 36.0827C156.823 36.0827 159.656 37.5021 159.765 38.7032C159.874 39.9042 160.622 41.4698 160.622 41.4698L161.529 40.4097C161.529 40.4097 162.926 35.4276 159.765 33.7898Z" fill="#2F2E41"/>
<path id="Vector_32" d="M159.942 40.8639C160.234 40.8639 160.471 40.2537 160.471 39.5009C160.471 38.7482 160.234 38.1379 159.942 38.1379C159.65 38.1379 159.413 38.7482 159.413 39.5009C159.413 40.2537 159.65 40.8639 159.942 40.8639Z" fill="#FFB8B8"/>
<path id="Vector_33" d="M11.307 142.082C14.5289 148.069 21.3669 150.639 21.3669 150.639C21.3669 150.639 22.9812 143.503 19.7593 137.516C16.5374 131.529 9.69933 128.959 9.69933 128.959C9.69933 128.959 8.08503 136.096 11.307 142.082Z" fill="#3F3D56"/>
<path id="Vector_34" d="M13.5213 140.113C19.3382 143.619 21.5785 150.584 21.5785 150.584C21.5785 150.584 14.3877 151.864 8.57084 148.357C2.75394 144.851 0.513672 137.886 0.513672 137.886C0.513672 137.886 7.70445 136.607 13.5213 140.113Z" fill="#DE756D"/>
<path id="Vector_35" opacity="0.3" d="M73.751 51.2603C73.751 51.2603 91.6358 41.9097 104.079 51.2603C116.523 60.611 138.548 52.1439 138.548 52.1439" fill="white"/>
<path id="Vector_36" d="M106.218 146.41C107.793 146.41 109.069 145.13 109.069 143.552C109.069 141.975 107.793 140.695 106.218 140.695C104.643 140.695 103.366 141.975 103.366 143.552C103.366 145.13 104.643 146.41 106.218 146.41Z" fill="white"/>
</g>
<defs>
<clipPath id="clip0">
<rect width="228" height="151" fill="white" transform="translate(0.513672 0.000488281)"/>
</clipPath>
</defs>
</svg>
