<svg width="180" height="161" viewBox="0 0 180 161" fill="none" xmlns="http://www.w3.org/2000/svg">
<g id="undraw_Security_on_ff2u 2" clip-path="url(#clip0)">
<path id="Vector" d="M90.3678 2.25391L34.1929 37.057C34.1929 37.057 34.1929 108.838 90.3678 147.992C146.543 108.838 146.543 37.057 146.543 37.057L90.3678 2.25391Z" fill="#3F3D56"/>
<path id="Vector_2" opacity="0.04" d="M90.7029 2.25391L89.7427 2.84883L89.7427 147.313C90.0616 147.54 90.3803 147.767 90.7029 147.992C146.878 108.838 146.878 37.057 146.878 37.057L90.7029 2.25391Z" fill="#DE756D"/>
<g id="Group" opacity="0.7">
<path id="Vector_3" opacity="0.7" d="M76.768 72.7786L87.3578 82.5516L100.486 63.4854L105.781 67.9277L87.3578 91.4364L72.3555 74.5555L76.768 72.7786Z" fill="url(#paint0_linear)"/>
</g>
<path id="Vector_4" d="M79.2674 73.366L87.8577 81.2937L100.027 63.2759L104.323 66.8795L87.8577 88.5009L75.688 74.8074L79.2674 73.366Z" fill="#3AD29F"/>
<path id="Vector_5" opacity="0.5" d="M34.9411 10.0567C34.7689 9.98119 34.6303 9.84458 34.5517 9.67286C34.473 9.50114 34.4599 9.30631 34.5147 9.12544C34.5235 9.09771 34.5291 9.06903 34.5313 9.03998C34.5363 8.95712 34.5147 8.87483 34.4696 8.80531C34.4245 8.73579 34.3584 8.68274 34.281 8.654C34.2037 8.62527 34.1192 8.62239 34.0401 8.64579C33.9609 8.66919 33.8914 8.71762 33.8418 8.7839C33.8247 8.80742 33.8105 8.83289 33.7993 8.85977C33.7243 9.03314 33.5886 9.17268 33.4181 9.25185C33.2475 9.33102 33.054 9.34429 32.8743 9.28912C32.8468 9.28019 32.8183 9.27457 32.7894 9.27236C32.7071 9.26732 32.6254 9.2891 32.5563 9.33448C32.4873 9.37985 32.4346 9.44642 32.406 9.5243C32.3775 9.60219 32.3746 9.68726 32.3979 9.76692C32.4211 9.84657 32.4692 9.91657 32.5351 9.96655C32.5584 9.98373 32.5837 9.99809 32.6104 10.0093C32.7826 10.0848 32.9212 10.2214 32.9999 10.3931C33.0785 10.5649 33.0917 10.7597 33.0369 10.9406C33.028 10.9683 33.0224 10.997 33.0202 11.026C33.0152 11.1089 33.0369 11.1912 33.0819 11.2607C33.127 11.3302 33.1931 11.3833 33.2705 11.412C33.3479 11.4407 33.4324 11.4436 33.5115 11.4202C33.5906 11.3968 33.6601 11.3484 33.7098 11.2821C33.7268 11.2586 33.7411 11.2331 33.7522 11.2062C33.8272 11.0329 33.9629 10.8933 34.1335 10.8141C34.3041 10.735 34.4976 10.7217 34.6772 10.7769C34.7048 10.7858 34.7333 10.7914 34.7621 10.7936C34.8444 10.7987 34.9262 10.7769 34.9952 10.7315C35.0643 10.6861 35.117 10.6196 35.1455 10.5417C35.174 10.4638 35.1769 10.3787 35.1537 10.2991C35.1304 10.2194 35.0823 10.1494 35.0165 10.0995C34.9931 10.0823 34.9678 10.0679 34.9411 10.0567Z" fill="#4D8AF0"/>
<path id="Vector_6" opacity="0.5" d="M4.53144 78.2073C4.35924 78.1318 4.22063 77.9952 4.142 77.8235C4.06336 77.6518 4.05018 77.4569 4.10498 77.2761C4.11385 77.2483 4.11943 77.2197 4.12162 77.1906C4.12663 77.1078 4.105 77.0255 4.05993 76.9559C4.01485 76.8864 3.94874 76.8334 3.87137 76.8046C3.79401 76.7759 3.70951 76.773 3.63039 76.7964C3.55127 76.8198 3.48175 76.8683 3.43211 76.9345C3.41504 76.9581 3.40078 76.9835 3.38964 77.0104C3.31464 77.1838 3.17894 77.3233 3.00838 77.4025C2.83781 77.4817 2.64429 77.4949 2.46464 77.4398C2.4371 77.4308 2.40861 77.4252 2.37976 77.423C2.29745 77.418 2.21572 77.4397 2.14666 77.4851C2.07761 77.5305 2.02491 77.5971 1.99637 77.6749C1.96783 77.7528 1.96497 77.8379 1.98821 77.9176C2.01145 77.9972 2.05956 78.0672 2.1254 78.1172C2.14876 78.1344 2.17406 78.1487 2.20076 78.1599C2.37296 78.2354 2.51157 78.3721 2.5902 78.5438C2.66884 78.7155 2.68201 78.9103 2.62722 79.0912C2.61835 79.1189 2.61277 79.1476 2.61058 79.1767C2.60556 79.2595 2.6272 79.3418 2.67227 79.4113C2.71734 79.4809 2.78346 79.5339 2.86082 79.5626C2.93819 79.5914 3.02269 79.5943 3.1018 79.5709C3.18092 79.5475 3.25045 79.499 3.30009 79.4327C3.31716 79.4092 3.33142 79.3838 3.34256 79.3569C3.41756 79.1835 3.55325 79.044 3.72382 78.9648C3.89438 78.8856 4.08791 78.8724 4.26756 78.9275C4.2951 78.9365 4.32359 78.9421 4.35244 78.9443C4.43475 78.9493 4.51648 78.9275 4.58553 78.8822C4.65458 78.8368 4.70728 78.7702 4.73582 78.6923C4.76436 78.6145 4.76722 78.5294 4.74398 78.4497C4.72074 78.3701 4.67264 78.3001 4.6068 78.2501C4.58343 78.2329 4.55814 78.2186 4.53144 78.2073Z" fill="#4D8AF0"/>
<path id="Vector_7" opacity="0.5" d="M156.394 54.521C157.084 54.521 157.644 53.9577 157.644 53.2628C157.644 52.5679 157.084 52.0046 156.394 52.0046C155.704 52.0046 155.145 52.5679 155.145 53.2628C155.145 53.9577 155.704 54.521 156.394 54.521Z" fill="#F55F44"/>
<path id="Vector_8" opacity="0.5" d="M25.7995 144.48C26.4897 144.48 27.0492 143.917 27.0492 143.222C27.0492 142.527 26.4897 141.964 25.7995 141.964C25.1093 141.964 24.5498 142.527 24.5498 143.222C24.5498 143.917 25.1093 144.48 25.7995 144.48Z" fill="#F55F44"/>
<path id="Vector_9" opacity="0.5" d="M177.639 102.96C178.33 102.96 178.889 102.397 178.889 101.702C178.889 101.007 178.33 100.444 177.639 100.444C176.949 100.444 176.39 101.007 176.39 101.702C176.39 102.397 176.949 102.96 177.639 102.96Z" fill="#F55F44"/>
<path id="Vector_10" opacity="0.5" d="M147.207 16.1378C147.035 16.0622 146.896 15.9256 146.817 15.7539C146.739 15.5822 146.725 15.3874 146.78 15.2065C146.789 15.1788 146.795 15.1501 146.797 15.121C146.802 15.0382 146.78 14.9559 146.735 14.8864C146.69 14.8168 146.624 14.7638 146.547 14.7351C146.469 14.7063 146.385 14.7034 146.306 14.7268C146.227 14.7502 146.157 14.7987 146.107 14.865C146.09 14.8885 146.076 14.9139 146.065 14.9408C145.99 15.1142 145.854 15.2537 145.684 15.3329C145.513 15.4121 145.32 15.4253 145.14 15.3702C145.112 15.3612 145.084 15.3556 145.055 15.3534C144.973 15.3484 144.891 15.3702 144.822 15.4155C144.753 15.4609 144.7 15.5275 144.672 15.6054C144.643 15.6832 144.64 15.7683 144.664 15.848C144.687 15.9276 144.735 15.9976 144.801 16.0476C144.824 16.0648 144.849 16.0791 144.876 16.0904C145.048 16.1659 145.187 16.3025 145.265 16.4742C145.344 16.6459 145.357 16.8407 145.303 17.0216C145.294 17.0493 145.288 17.078 145.286 17.1071C145.281 17.1899 145.302 17.2722 145.348 17.3417C145.393 17.4113 145.459 17.4643 145.536 17.4931C145.613 17.5218 145.698 17.5247 145.777 17.5013C145.856 17.4779 145.926 17.4294 145.975 17.3632C145.992 17.3396 146.007 17.3142 146.018 17.2873C146.093 17.1139 146.229 16.9744 146.399 16.8952C146.57 16.816 146.763 16.8028 146.943 16.8579C146.97 16.8669 146.999 16.8725 147.028 16.8747C147.11 16.8797 147.192 16.858 147.261 16.8126C147.33 16.7672 147.383 16.7006 147.411 16.6228C147.44 16.5449 147.442 16.4598 147.419 16.3801C147.396 16.3005 147.348 16.2305 147.282 16.1805C147.259 16.1633 147.233 16.149 147.207 16.1378Z" fill="#4D8AF0"/>
<path id="Vector_11" opacity="0.5" d="M168.035 147.826C167.863 147.75 167.725 147.614 167.646 147.442C167.567 147.27 167.554 147.076 167.609 146.895C167.618 146.867 167.623 146.838 167.626 146.809C167.631 146.726 167.609 146.644 167.564 146.575C167.519 146.505 167.453 146.452 167.375 146.423C167.298 146.395 167.213 146.392 167.134 146.415C167.055 146.438 166.986 146.487 166.936 146.553C166.919 146.577 166.905 146.602 166.894 146.629C166.819 146.802 166.683 146.942 166.512 147.021C166.342 147.1 166.148 147.114 165.969 147.058C165.941 147.049 165.913 147.044 165.884 147.042C165.801 147.037 165.72 147.058 165.651 147.104C165.582 147.149 165.529 147.216 165.5 147.294C165.472 147.371 165.469 147.457 165.492 147.536C165.515 147.616 165.563 147.686 165.629 147.736C165.653 147.753 165.678 147.767 165.705 147.779C165.877 147.854 166.015 147.991 166.094 148.162C166.173 148.334 166.186 148.529 166.131 148.71C166.122 148.738 166.117 148.766 166.114 148.795C166.109 148.878 166.131 148.96 166.176 149.03C166.221 149.1 166.287 149.153 166.365 149.181C166.442 149.21 166.527 149.213 166.606 149.19C166.685 149.166 166.754 149.118 166.804 149.051C166.821 149.028 166.835 149.002 166.846 148.976C166.921 148.802 167.057 148.663 167.228 148.583C167.398 148.504 167.592 148.491 167.771 148.546C167.799 148.555 167.827 148.561 167.856 148.563C167.939 148.568 168.02 148.546 168.089 148.501C168.158 148.455 168.211 148.389 168.24 148.311C168.268 148.233 168.271 148.148 168.248 148.068C168.225 147.989 168.177 147.919 168.111 147.869C168.087 147.852 168.062 147.837 168.035 147.826Z" fill="#4D8AF0"/>
<path id="Vector_12" opacity="0.5" d="M3.07343 38.3653C2.90123 38.2898 2.76263 38.1532 2.68399 37.9815C2.60535 37.8097 2.59218 37.6149 2.64697 37.434C2.65584 37.4063 2.66142 37.3776 2.66361 37.3486C2.66862 37.2657 2.64699 37.1834 2.60192 37.1139C2.55685 37.0444 2.49073 36.9913 2.41337 36.9626C2.336 36.9339 2.2515 36.931 2.17238 36.9544C2.09327 36.9778 2.02374 37.0262 1.9741 37.0925C1.95703 37.116 1.94277 37.1415 1.93163 37.1684C1.85663 37.3417 1.72094 37.4813 1.55037 37.5604C1.37981 37.6396 1.18628 37.6529 1.00663 37.5977C0.979091 37.5888 0.950601 37.5832 0.92175 37.581C0.839441 37.5759 0.757708 37.5977 0.688656 37.6431C0.619604 37.6884 0.566905 37.755 0.538366 37.8329C0.509827 37.9108 0.506965 37.9959 0.530204 38.0755C0.553444 38.1552 0.601549 38.2252 0.667394 38.2751C0.690755 38.2923 0.716049 38.3067 0.742751 38.3179C0.914948 38.3934 1.05356 38.53 1.1322 38.7017C1.21083 38.8734 1.224 39.0683 1.16921 39.2491C1.16034 39.2769 1.15476 39.3056 1.15257 39.3346C1.14756 39.4175 1.16919 39.4998 1.21426 39.5693C1.25934 39.6388 1.32545 39.6918 1.40281 39.7206C1.48018 39.7493 1.56468 39.7522 1.6438 39.7288C1.72291 39.7054 1.79244 39.657 1.84209 39.5907C1.85916 39.5672 1.87341 39.5417 1.88456 39.5148C1.95955 39.3414 2.09525 39.2019 2.26581 39.1227C2.43638 39.0436 2.6299 39.0303 2.80955 39.0855C2.83709 39.0944 2.86558 39.1 2.89443 39.1022C2.97674 39.1073 3.05847 39.0855 3.12753 39.0401C3.19658 38.9947 3.24927 38.9282 3.27781 38.8503C3.30635 38.7724 3.30921 38.6873 3.28597 38.6077C3.26273 38.528 3.21463 38.458 3.14879 38.408C3.12543 38.3909 3.10013 38.3765 3.07343 38.3653Z" fill="#4D8AF0"/>
<path id="Vector_13" opacity="0.5" d="M17.0515 60.812C17.7417 60.812 18.3012 60.2487 18.3012 59.5538C18.3012 58.859 17.7417 58.2957 17.0515 58.2957C16.3613 58.2957 15.8018 58.859 15.8018 59.5538C15.8018 60.2487 16.3613 60.812 17.0515 60.812Z" fill="#47E6B1"/>
<path id="Vector_14" opacity="0.5" d="M178.264 70.8772C178.954 70.8772 179.514 70.3139 179.514 69.619C179.514 68.9241 178.954 68.3608 178.264 68.3608C177.574 68.3608 177.014 68.9241 177.014 69.619C177.014 70.3139 177.574 70.8772 178.264 70.8772Z" fill="#47E6B1"/>
<g id="Group_2" opacity="0.5">
<path id="Vector_15" opacity="0.5" d="M122.652 0.000488285L122.027 0.000488281L122.027 3.56529L122.652 3.56529L122.652 0.000488285Z" fill="#47E6B1"/>
<path id="Vector_16" opacity="0.5" d="M124.11 2.09734L124.11 1.46826L120.569 1.46826L120.569 2.09734L124.11 2.09734Z" fill="#47E6B1"/>
</g>
<g id="Group_3" opacity="0.5">
<path id="Vector_17" opacity="0.5" d="M124.943 139.657L124.318 139.657L124.318 143.222L124.943 143.222L124.943 139.657Z" fill="#47E6B1"/>
<path id="Vector_18" opacity="0.5" d="M126.401 141.754L126.401 141.125L122.861 141.125L122.861 141.754L126.401 141.754Z" fill="#47E6B1"/>
</g>
<g id="Group_4" opacity="0.5">
<path id="Vector_19" opacity="0.5" d="M6.63706 147.206L6.01221 147.206L6.01221 150.771L6.63706 150.771L6.63706 147.206Z" fill="#47E6B1"/>
<path id="Vector_20" opacity="0.5" d="M8.09521 149.303L8.09521 148.674L4.55437 148.674L4.55437 149.303L8.09521 149.303Z" fill="#47E6B1"/>
</g>
<g id="Group_5" opacity="0.5">
<path id="Vector_21" opacity="0.5" d="M148.896 83.0396L148.271 83.0396L148.271 86.6044L148.896 86.6044L148.896 83.0396Z" fill="#47E6B1"/>
<path id="Vector_22" opacity="0.5" d="M150.354 85.1364L150.354 84.5073L146.813 84.5073L146.813 85.1364L150.354 85.1364Z" fill="#47E6B1"/>
</g>
<path id="Vector_23" opacity="0.5" d="M166.227 25.7967L167.569 27.0351L169.47 24.2202L170.141 24.7832L167.569 28.1612L165.667 26.0219L166.227 25.7967Z" fill="#47E6B1"/>
<path id="Vector_24" d="M127.915 50.1745L123.286 50.3552L123.517 56.3474L128.146 56.1667L127.915 50.1745Z" fill="#DE756D"/>
<path id="Vector_25" d="M107.033 71.1604C107.033 71.1604 100.622 68.0767 100.724 70.7399C100.827 73.4031 107.186 75.1552 107.186 75.1552L107.033 71.1604Z" fill="#FFB9B9"/>
<path id="Vector_26" d="M110.55 93.6942C110.55 93.6942 107.525 101.147 106.408 106.525C105.29 111.903 103.588 119.304 105.777 124.553C107.967 129.802 114.19 145.229 114.255 146.893C114.319 148.558 113.721 150.248 115.044 150.197C116.367 150.145 123.564 147.864 123.857 146.852C124.149 145.84 121.401 143.281 121.401 143.281L114.615 121.874L121.695 107.929L126.801 128.733L127.802 154.7C127.802 154.7 132.71 153.174 133.423 154.48C133.423 154.48 135.622 151.394 135.901 150.049C136.181 148.705 134.863 123.084 134.863 123.084C134.863 123.084 139.368 93.9027 135.731 94.0447C132.094 94.1867 117.847 85.4077 110.55 93.6942Z" fill="#DE756D"/>
<path id="Vector_27" d="M114.993 148.865C114.993 148.865 111.638 156.331 111.32 156.677C111.002 157.023 108.816 160.442 110.469 160.377C112.123 160.313 116.026 158.493 118.9 155.714C121.773 152.935 125.562 148.119 125.218 147.799C124.875 147.479 122.521 146.571 122.521 146.571L114.993 148.865Z" fill="#575A89"/>
<path id="Vector_28" d="M128.399 153.009C128.399 153.009 128.197 156.351 127.587 157.709C126.977 159.066 127.053 161.064 128.707 160.999C130.36 160.934 134.633 160.101 134.633 160.101C134.633 160.101 134.887 158.091 134.543 157.771C134.2 157.451 132.736 153.84 133.359 152.816C133.982 151.791 128.399 153.009 128.399 153.009Z" fill="#575A89"/>
<path id="Vector_29" d="M130.845 44.5588C130.845 44.5588 134.37 50.089 135.744 51.369C137.118 52.649 133.252 55.4671 133.252 55.4671L126.334 56.4039C126.334 56.4039 126.421 50.0659 126.065 49.4131C125.708 48.7602 130.845 44.5588 130.845 44.5588Z" fill="#FFB9B9"/>
<path id="Vector_30" d="M124.831 51.7952C124.831 51.7952 126.257 54.4068 127.579 54.3551C128.902 54.3035 135.743 51.3692 136.035 50.3576C136.328 49.346 138.302 57.6039 138.302 57.6039L121.561 87.2633L117.478 84.4221L119.457 67.0081L121.081 57.6094L124.831 51.7952Z" fill="#DE756D"/>
<path id="Vector_31" d="M136.653 78.3389C135.985 79.7453 135.568 81.2119 135.626 82.7132C135.629 82.7798 135.631 82.8464 135.637 82.9128C135.796 85.9939 136.923 89.5573 137.327 92.1487C137.621 94.0076 137.537 95.3645 136.457 95.6834C133.837 96.4525 136.839 97.0021 126.704 100.398C116.569 103.795 114.8 100.863 114.774 100.197C114.749 99.5315 116.21 94.4735 115.866 94.1535C115.523 93.8335 111.06 98.3419 109.712 97.7277C108.363 97.1136 109.558 93.733 109.558 93.733C109.558 93.733 112.595 86.613 112.531 84.9485C112.467 83.284 117.132 75.4337 117.132 75.4337L120.305 54.639C120.305 54.639 121.525 51.9242 123.165 51.5267C124.806 51.1293 126.167 52.0763 126.167 52.0763L123.422 58.1847L120.526 68.9666L121.01 72.9485C121.01 72.9485 124.378 65.8156 126.59 63.062C128.802 60.3085 133.519 53.7897 133.519 53.7897C133.519 53.7897 134.62 50.0493 133.788 48.9316C132.957 47.8105 137.256 47.6427 139.089 52.2387C140.06 54.6746 141.637 58.3071 142.625 61.6892C143.505 64.6854 143.921 67.4864 143.049 69.0874C141.716 71.5333 138.363 74.7482 136.653 78.3389Z" fill="#575A89"/>
<path id="Vector_32" opacity="0.1" d="M143.049 69.0875C141.716 71.5333 138.363 74.7482 136.653 78.339C136.206 76.7194 135.662 75.0437 135.662 75.0437C135.662 75.0437 133.572 63.7896 139.752 60.8812C140.776 60.7815 141.801 61.0696 142.625 61.6892C143.505 64.6854 143.921 67.4864 143.049 69.0875Z" fill="black"/>
<path id="Vector_33" d="M118.516 68.3782L113.277 69.9163L106.002 70.2003L105.254 76.5641L117.209 77.431C117.209 77.431 120.195 68.9794 118.516 68.3782Z" fill="#575A89"/>
<path id="Vector_34" d="M127.059 89.7754C127.059 89.7754 120.05 90.9461 121.65 93.0697C123.25 95.1932 129.459 92.9607 129.459 92.9607L127.059 89.7754Z" fill="#FFB9B9"/>
<path id="Vector_35" opacity="0.1" d="M135.637 82.9128C135.796 85.9939 136.923 89.5573 137.328 92.1487C135.095 94.2763 132.971 96.1529 132.171 96.1841C130.518 96.2487 127.86 96.019 126.881 96.3907C125.901 96.7623 125.327 90.4501 125.327 90.4501C125.327 90.4501 125.912 88.4269 128.518 87.3249C130.278 86.5794 133.651 84.5574 135.637 82.9128Z" fill="black"/>
<path id="Vector_36" d="M139.676 58.8838C139.676 58.8838 145.271 57.9985 144.969 67.3455C144.667 76.6925 145.559 82.6589 143.308 84.4137C141.058 86.1686 133.747 94.1222 132.094 94.1867C130.441 94.2513 127.783 94.0217 126.803 94.3933C125.824 94.7649 125.25 88.4527 125.25 88.4527C125.25 88.4527 125.834 86.4295 128.441 85.3276C131.048 84.2256 137.19 80.3184 137.138 78.9868C137.087 77.6552 135.585 73.0463 135.585 73.0463C135.585 73.0463 133.496 61.7922 139.676 58.8838Z" fill="#575A89"/>
<path id="Vector_37" d="M125.911 52.7477C129.932 52.7477 133.191 49.4662 133.191 45.4184C133.191 41.3705 129.932 38.0891 125.911 38.0891C121.89 38.0891 118.631 41.3705 118.631 45.4184C118.631 49.4662 121.89 52.7477 125.911 52.7477Z" fill="#FFB9B9"/>
<path id="Vector_38" d="M121.009 34.9133C120.833 35.0656 120.623 35.1719 120.397 35.2226C120.283 35.243 120.166 35.2173 120.071 35.1511C119.976 35.085 119.911 34.9838 119.89 34.8696C119.724 35.2173 119.536 35.588 119.196 35.7664C118.856 35.9448 118.33 35.7952 118.281 35.4123C118.231 35.703 118.104 35.9745 117.912 36.1974C117.701 36.3999 117.318 36.451 117.134 36.2236C117.283 37.0429 117.191 37.8856 117.238 38.7172C117.284 39.5488 117.505 40.4305 118.129 40.9774C119.039 41.7749 120.408 41.5781 121.605 41.427C121.786 41.3887 121.974 41.3991 122.15 41.457C122.598 41.6493 122.578 42.2775 122.584 42.7681C122.62 43.6288 122.958 44.4486 123.539 45.0819C124.119 45.7153 124.903 46.1212 125.752 46.2275C126.227 46.3014 126.712 46.1822 127.1 45.8963C127.44 45.6062 127.614 45.1334 128.003 44.9155C128.637 44.561 129.405 45.078 129.869 45.6393C130.332 46.2006 130.788 46.891 131.506 46.9937C132.455 47.1296 133.178 46.1558 133.533 45.2591C134.022 44.0023 134.257 42.6596 134.222 41.3102C134.188 39.9607 133.886 38.6319 133.333 37.4019C131.351 33.0526 124.581 32.3647 121.009 34.9133Z" fill="#2F2E41"/>
</g>
<defs>
<linearGradient id="paint0_linear" x1="72.3554" y1="77.4609" x2="105.781" y2="77.4609" gradientUnits="userSpaceOnUse">
<stop stop-color="#808080" stop-opacity="0.25"/>
<stop offset="0.53514" stop-color="#808080" stop-opacity="0.12"/>
<stop offset="1" stop-color="#808080" stop-opacity="0.1"/>
</linearGradient>
<clipPath id="clip0">
<rect width="179" height="161" fill="white" transform="translate(0.513672 0.000488281)"/>
</clipPath>
</defs>
</svg>
