<svg width="193" height="178" viewBox="0 0 193 178" fill="none" xmlns="http://www.w3.org/2000/svg">
<g id="undraw_file_searching_duff 1" clip-path="url(#clip0)">
<g id="Group" opacity="0.5">
<path id="Vector" opacity="0.5" d="M137.92 29.7563L35.6631 29.7563L35.6631 167.463L137.92 167.463L137.92 29.7563Z" fill="url(#paint0_linear)"/>
</g>
<path id="Vector_2" d="M136.058 31.6255L36.9951 31.6255L36.9951 164.529L136.058 164.529L136.058 31.6255Z" fill="#F9EEEE"/>
<path id="Vector_3" d="M78.804 37.229L44.7183 37.229L44.7183 38.2962L78.804 38.2962L78.804 37.229Z" fill="#C6C6C6"/>
<path id="Vector_4" opacity="0.7" d="M78.804 42.0325L44.7183 42.0325L44.7183 43.0997L78.804 43.0997L78.804 42.0325Z" fill="#DE756D"/>
<path id="Vector_5" d="M117.949 37.229L83.8638 37.229L83.8638 38.2962L117.949 38.2962L117.949 37.229Z" fill="#E0E0E0"/>
<path id="Vector_6" d="M123.274 67.6543L89.1885 67.6543L89.1885 68.7215L123.274 68.7215L123.274 67.6543Z" fill="#E0E0E0"/>
<path id="Vector_7" d="M124.074 70.5886L89.9888 70.5886L89.9888 71.6558L124.074 71.6558L124.074 70.5886Z" fill="#E0E0E0"/>
<path id="Vector_8" d="M125.673 73.5249L91.5874 73.5249L91.5874 74.5921L125.673 74.5921L125.673 73.5249Z" fill="#E0E0E0"/>
<path id="Vector_9" d="M123.274 114.89L89.1885 114.89L89.1885 115.957L123.274 115.957L123.274 114.89Z" fill="#E0E0E0"/>
<path id="Vector_10" d="M124.074 117.826L89.9888 117.826L89.9888 118.893L124.074 118.893L124.074 117.826Z" fill="#E0E0E0"/>
<path id="Vector_11" d="M125.673 120.76L91.5874 120.76L91.5874 121.828L125.673 121.828L125.673 120.76Z" fill="#E0E0E0"/>
<g id="Group_2" opacity="0.5">
<path id="Vector_12" opacity="0.5" d="M81.2003 56.7104L44.9849 56.7104L44.9849 93.539L81.2003 93.539L81.2003 56.7104Z" fill="url(#paint1_linear)"/>
</g>
<path id="Vector_13" d="M80.8583 57.5125L45.2129 57.5125L45.2129 92.739L80.8583 92.739L80.8583 57.5125Z" fill="#F5F5F5"/>
<g id="Group_3" opacity="0.5">
<path id="Vector_14" opacity="0.5" d="M79.7163 59.647L46.4697 59.647L46.4697 82.5974L79.7163 82.5974L79.7163 59.647Z" fill="url(#paint2_linear)"/>
</g>
<path id="&#60;Rectangle&#62;" d="M79.486 59.9143L46.6978 59.9143L46.6978 82.0649L79.486 82.0649L79.486 59.9143Z" fill="white"/>
<g id="Group_4">
<path id="Vector_15" opacity="0.4" d="M43.9179 81.2651L52.1748 68.4542L55.6363 74.0576L63.0928 66.3198L69.4845 74.0576L75.0757 62.5835L89.4552 85.5339L42.853 83.932L43.9179 81.2651Z" fill="#DE756D"/>
<path id="Vector_16" opacity="0.4" d="M50.3097 65.5176C51.6333 65.5176 52.7062 64.4423 52.7062 63.1159C52.7062 61.7894 51.6333 60.7141 50.3097 60.7141C48.9861 60.7141 47.9131 61.7894 47.9131 63.1159C47.9131 64.4423 48.9861 65.5176 50.3097 65.5176Z" fill="#DE756D"/>
</g>
<g id="Group_5" opacity="0.5">
<path id="Vector_17" opacity="0.5" d="M81.2003 103.948L44.9849 103.948L44.9849 140.777L81.2003 140.777L81.2003 103.948Z" fill="url(#paint3_linear)"/>
</g>
<path id="Vector_18" d="M80.8583 104.748L45.2129 104.748L45.2129 139.974L80.8583 139.974L80.8583 104.748Z" fill="#F5F5F5"/>
<g id="Group_6" opacity="0.5">
<path id="Vector_19" opacity="0.5" d="M79.7163 106.885L46.4697 106.885L46.4697 129.835L79.7163 129.835L79.7163 106.885Z" fill="url(#paint4_linear)"/>
</g>
<path id="&#60;Rectangle&#62;_2" d="M79.486 107.15L46.6978 107.15L46.6978 129.3L79.486 129.3L79.486 107.15Z" fill="white"/>
<g id="Group_7">
<path id="Vector_20" opacity="0.4" d="M43.9179 128.5L52.1748 115.689L55.6363 121.295L63.0928 113.555L69.4845 121.295L75.0757 109.819L89.4552 132.769L42.853 131.169L43.9179 128.5Z" fill="#DE756D"/>
<path id="Vector_21" opacity="0.4" d="M50.3097 112.755C51.6333 112.755 52.7062 111.68 52.7062 110.353C52.7062 109.027 51.6333 107.952 50.3097 107.952C48.9861 107.952 47.9131 109.027 47.9131 110.353C47.9131 111.68 48.9861 112.755 50.3097 112.755Z" fill="#DE756D"/>
</g>
<g id="Group_8" opacity="0.5">
<path id="Vector_22" opacity="0.5" d="M77.4596 22.9523L50.6758 158.018L150.972 177.993L177.755 42.9273L77.4596 22.9523Z" fill="url(#paint5_linear)"/>
</g>
<path id="Vector_23" d="M78.4013 25.0452L52.5518 155.4L149.714 174.751L175.564 44.3962L78.4013 25.0452Z" fill="#F9EEEE"/>
<path id="Vector_24" d="M153.227 46.2014L84.272 32.4683L84.0644 33.515L153.019 47.2481L153.227 46.2014Z" fill="#C6C6C6"/>
<path id="Vector_25" d="M133.606 145.147L64.6514 131.414L64.4438 132.46L133.399 146.193L133.606 145.147Z" fill="#C6C6C6"/>
<path id="Vector_26" d="M116.739 148.044L63.4556 137.432L63.248 138.478L116.532 149.09L116.739 148.044Z" fill="#C6C6C6"/>
<path id="Vector_27" opacity="0.7" d="M82.1116 147.407L62.2622 143.454L62.0546 144.501L81.904 148.454L82.1116 147.407Z" fill="#DE756D"/>
<path id="Vector_28" opacity="0.7" d="M117.553 45.3561L83.0762 38.4897L82.8686 39.5365L117.345 46.4028L117.553 45.3561Z" fill="#DE756D"/>
<path id="Vector_29" opacity="0.7" d="M110.543 80.0702L76.0664 73.2039L75.8588 74.2506L110.335 81.1169L110.543 80.0702Z" fill="#DE756D"/>
<path id="Vector_30" opacity="0.7" d="M105.935 102.417L71.4585 95.5503L71.2509 96.597L105.727 103.463L105.935 102.417Z" fill="#DE756D"/>
<path id="Vector_31" d="M144.047 56.8899L81.8848 44.5095L81.6772 45.5562L143.84 57.9366L144.047 56.8899Z" fill="#C6C6C6"/>
<path id="Vector_32" d="M137.038 91.604L74.875 79.2236L74.6674 80.2704L136.83 92.6507L137.038 91.604Z" fill="#C6C6C6"/>
<path id="Vector_33" d="M132.43 113.95L70.2671 101.57L70.0595 102.617L132.222 114.997L132.43 113.95Z" fill="#C6C6C6"/>
<path id="Vector_34" d="M129.358 127.965L67.1953 115.585L66.9877 116.632L129.15 129.012L129.358 127.965Z" fill="#C6C6C6"/>
<path id="Vector_35" opacity="0.7" d="M95.8381 53.5479L80.6899 50.531L80.4824 51.5777L95.6305 54.5946L95.8381 53.5479Z" fill="#F2E544"/>
<path id="Vector_36" opacity="0.7" d="M88.8283 88.262L73.6802 85.2451L73.4726 86.2918L88.6207 89.3088L88.8283 88.262Z" fill="#F2E544"/>
<path id="Vector_37" opacity="0.7" d="M84.2204 110.608L69.0723 107.592L68.8647 108.638L84.0128 111.655L84.2204 110.608Z" fill="#F2E544"/>
<path id="Vector_38" opacity="0.7" d="M81.1481 124.623L66 121.606L65.7924 122.653L80.9406 125.67L81.1481 124.623Z" fill="#F2E544"/>
<path id="Vector_39" d="M148.452 70.2846L79.4971 56.5515L79.2895 57.5982L148.245 71.3314L148.452 70.2846Z" fill="#C6C6C6"/>
<path id="Vector_40" d="M147.258 76.3068L78.3032 62.5737L78.0957 63.6205L147.051 77.3536L147.258 76.3068Z" fill="#C6C6C6"/>
<path id="Vector_41" d="M116.007 97.5928C113.147 97.5928 113.143 102.047 116.007 102.047C118.871 102.047 118.871 97.5928 116.007 97.5928Z" fill="url(#paint6_linear)"/>
<path id="Vector_42" d="M118.796 96.2378C115.936 96.2378 115.932 100.692 118.796 100.692C121.66 100.692 121.66 96.2378 118.796 96.2378Z" fill="#DE756D"/>
<path id="Vector_43" d="M29.0046 151.718L28.2065 151.718L28.2065 156.254L29.0046 156.254L29.0046 151.718Z" fill="#F2E544"/>
<path id="Vector_44" d="M30.8701 154.385L30.8701 153.585L26.3438 153.585L26.3438 154.385L30.8701 154.385Z" fill="#F2E544"/>
<path id="Vector_45" d="M130.915 1.81715C130.695 1.72105 130.518 1.54703 130.417 1.32829C130.317 1.10955 130.3 0.861383 130.37 0.63112C130.382 0.595501 130.388 0.558679 130.391 0.521429C130.398 0.415526 130.371 0.310126 130.313 0.221003C130.256 0.131881 130.171 0.0638306 130.072 0.0270384C129.972 -0.00975382 129.864 -0.0133093 129.762 0.0169044C129.661 0.0471181 129.572 0.109476 129.508 0.194644C129.487 0.224372 129.468 0.256587 129.454 0.290623C129.358 0.51144 129.184 0.68916 128.966 0.789891C128.748 0.890622 128.5 0.907315 128.27 0.836789C128.235 0.825608 128.198 0.818704 128.161 0.816222C128.054 0.808517 127.948 0.835857 127.859 0.894086C127.769 0.952316 127.701 1.03825 127.665 1.13884C127.628 1.23943 127.626 1.34917 127.657 1.45138C127.689 1.5536 127.753 1.64271 127.839 1.70517C127.869 1.72716 127.901 1.74557 127.935 1.76002C128.155 1.85611 128.333 2.03013 128.433 2.24887C128.534 2.46761 128.55 2.71578 128.48 2.94604C128.469 2.98166 128.462 3.01848 128.46 3.05573C128.451 3.16307 128.478 3.27024 128.536 3.36076C128.594 3.45129 128.681 3.52015 128.782 3.55676C128.883 3.59337 128.993 3.5957 129.095 3.56339C129.198 3.53109 129.287 3.46593 129.349 3.37795C129.371 3.34822 129.389 3.31601 129.404 3.28197C129.499 3.06115 129.673 2.88343 129.891 2.7827C130.11 2.68197 130.357 2.66528 130.587 2.7358C130.623 2.74698 130.659 2.75389 130.696 2.75637C130.802 2.76361 130.907 2.73636 130.996 2.6787C131.085 2.62104 131.153 2.53606 131.19 2.43649C131.227 2.33692 131.23 2.22811 131.2 2.12635C131.17 2.02459 131.108 1.93535 131.023 1.87199C130.989 1.84918 130.953 1.83075 130.915 1.81715Z" fill="#DE756D"/>
<path id="Vector_46" d="M31.853 35.4441C31.6327 35.348 31.4553 35.174 31.3548 34.9552C31.2543 34.7365 31.2376 34.4883 31.308 34.2581C31.3192 34.2225 31.3261 34.1856 31.3285 34.1484C31.3358 34.0425 31.3086 33.9371 31.251 33.848C31.1935 33.7588 31.1087 33.6908 31.0094 33.654C30.91 33.6172 30.8014 33.6136 30.6999 33.6439C30.5983 33.6741 30.5093 33.7364 30.4461 33.8216C30.4241 33.8513 30.4058 33.8835 30.3913 33.9176C30.2955 34.1384 30.1218 34.3161 29.9035 34.4168C29.6853 34.5176 29.4376 34.5343 29.2079 34.4637C29.1723 34.4526 29.1356 34.4457 29.0984 34.4432C28.9927 34.4359 28.8876 34.4632 28.7986 34.5208C28.7097 34.5785 28.6418 34.6635 28.6051 34.7631C28.5684 34.8626 28.5648 34.9714 28.595 35.0732C28.6251 35.175 28.6874 35.2642 28.7723 35.3276C28.802 35.3495 28.8342 35.3679 28.8681 35.3824C29.0885 35.4785 29.2658 35.6525 29.3663 35.8712C29.4668 36.09 29.4835 36.3382 29.4131 36.5684C29.4019 36.604 29.3951 36.6409 29.3926 36.6781C29.3854 36.784 29.4125 36.8894 29.4701 36.9785C29.5276 37.0677 29.6124 37.1357 29.7118 37.1725C29.8111 37.2093 29.9197 37.2128 30.0212 37.1826C30.1228 37.1524 30.2118 37.0901 30.275 37.0049C30.297 36.9752 30.3154 36.943 30.3298 36.9089C30.4257 36.6881 30.5993 36.5104 30.8176 36.4096C31.0358 36.3089 31.2835 36.2922 31.5133 36.3628C31.5488 36.3739 31.5855 36.3808 31.6227 36.3833C31.7284 36.3906 31.8336 36.3633 31.9225 36.3056C32.0114 36.248 32.0793 36.163 32.116 36.0634C32.1527 35.9639 32.1563 35.8551 32.1261 35.7533C32.096 35.6515 32.0338 35.5623 31.9488 35.4989C31.9191 35.477 31.887 35.4585 31.853 35.4441Z" fill="#FDD835"/>
<path id="Vector_47" d="M172.725 174.216C172.504 174.12 172.327 173.946 172.226 173.727C172.126 173.508 172.109 173.26 172.18 173.03C172.191 172.994 172.198 172.958 172.2 172.92C172.207 172.814 172.18 172.709 172.123 172.62C172.065 172.531 171.98 172.463 171.881 172.426C171.782 172.389 171.673 172.386 171.571 172.416C171.47 172.446 171.381 172.508 171.318 172.594C171.296 172.623 171.277 172.656 171.263 172.69C171.167 172.91 170.993 173.088 170.775 173.189C170.557 173.29 170.309 173.306 170.079 173.236C170.044 173.225 170.007 173.218 169.97 173.215C169.864 173.208 169.759 173.235 169.67 173.293C169.581 173.35 169.513 173.435 169.477 173.535C169.44 173.635 169.436 173.743 169.467 173.845C169.497 173.947 169.559 174.036 169.644 174.1C169.674 174.122 169.706 174.14 169.74 174.154C169.96 174.25 170.137 174.424 170.238 174.643C170.338 174.862 170.355 175.11 170.285 175.34C170.274 175.376 170.267 175.413 170.264 175.45C170.257 175.556 170.284 175.661 170.342 175.751C170.399 175.84 170.484 175.908 170.583 175.944C170.683 175.981 170.791 175.985 170.893 175.955C170.994 175.924 171.083 175.862 171.147 175.777C171.169 175.747 171.187 175.715 171.201 175.681C171.297 175.46 171.471 175.282 171.689 175.182C171.907 175.081 172.155 175.064 172.385 175.135C172.42 175.146 172.457 175.153 172.494 175.155C172.6 175.163 172.705 175.135 172.794 175.078C172.883 175.02 172.951 174.935 172.988 174.835C173.024 174.736 173.028 174.627 172.998 174.525C172.968 174.424 172.905 174.334 172.82 174.271C172.791 174.249 172.759 174.231 172.725 174.216Z" fill="#FDD835"/>
<path id="Vector_48" d="M73.744 18.8169C74.6268 18.8169 75.3425 18.0997 75.3425 17.215C75.3425 16.3303 74.6268 15.613 73.744 15.613C72.8612 15.613 72.1455 16.3303 72.1455 17.215C72.1455 18.0997 72.8612 18.8169 73.744 18.8169Z" fill="#F55F44"/>
<path id="Vector_49" d="M188.251 38.8308C189.134 38.8308 189.849 38.1136 189.849 37.2289C189.849 36.3442 189.134 35.627 188.251 35.627C187.368 35.627 186.652 36.3442 186.652 37.2289C186.652 38.1136 187.368 38.8308 188.251 38.8308Z" fill="#F55F44"/>
<path id="Vector_50" d="M179.198 86.6011C180.081 86.6011 180.797 85.8839 180.797 84.9992C180.797 84.1144 180.081 83.3972 179.198 83.3972C178.315 83.3972 177.6 84.1144 177.6 84.9992C177.6 85.8839 178.315 86.6011 179.198 86.6011Z" fill="#DE756D"/>
<path id="Vector_51" opacity="0.5" d="M2.11118 8.14039C2.99399 8.14039 3.70966 7.42318 3.70966 6.53846C3.70966 5.65373 2.99399 4.93652 2.11118 4.93652C1.22836 4.93652 0.512695 5.65373 0.512695 6.53846C0.512695 7.42318 1.22836 8.14039 2.11118 8.14039Z" fill="#47E6B1"/>
</g>
<defs>
<linearGradient id="paint0_linear" x1="86.7916" y1="167.463" x2="86.7916" y2="29.7563" gradientUnits="userSpaceOnUse">
<stop stop-color="#808080" stop-opacity="0.25"/>
<stop offset="0.54" stop-color="#808080" stop-opacity="0.12"/>
<stop offset="1" stop-color="#808080" stop-opacity="0.1"/>
</linearGradient>
<linearGradient id="paint1_linear" x1="9983.96" y1="15131.4" x2="9983.96" y2="9196.08" gradientUnits="userSpaceOnUse">
<stop stop-color="#808080" stop-opacity="0.25"/>
<stop offset="0.54" stop-color="#808080" stop-opacity="0.12"/>
<stop offset="1" stop-color="#808080" stop-opacity="0.1"/>
</linearGradient>
<linearGradient id="paint2_linear" x1="9170.66" y1="8354.85" x2="9170.66" y2="6049.94" gradientUnits="userSpaceOnUse">
<stop stop-color="#808080" stop-opacity="0.25"/>
<stop offset="0.54" stop-color="#808080" stop-opacity="0.12"/>
<stop offset="1" stop-color="#808080" stop-opacity="0.1"/>
</linearGradient>
<linearGradient id="paint3_linear" x1="9983.96" y1="22791.4" x2="9983.96" y2="16856.2" gradientUnits="userSpaceOnUse">
<stop stop-color="#808080" stop-opacity="0.25"/>
<stop offset="0.54" stop-color="#808080" stop-opacity="0.12"/>
<stop offset="1" stop-color="#808080" stop-opacity="0.1"/>
</linearGradient>
<linearGradient id="paint4_linear" x1="9170.66" y1="13146.2" x2="9170.66" y2="10841.3" gradientUnits="userSpaceOnUse">
<stop stop-color="#808080" stop-opacity="0.25"/>
<stop offset="0.54" stop-color="#808080" stop-opacity="0.12"/>
<stop offset="1" stop-color="#808080" stop-opacity="0.1"/>
</linearGradient>
<linearGradient id="paint5_linear" x1="77614.9" y1="95510.4" x2="89675.9" y2="34951.5" gradientUnits="userSpaceOnUse">
<stop stop-color="#808080" stop-opacity="0.25"/>
<stop offset="0.54" stop-color="#808080" stop-opacity="0.12"/>
<stop offset="1" stop-color="#808080" stop-opacity="0.1"/>
</linearGradient>
<linearGradient id="paint6_linear" x1="116.007" y1="102.044" x2="116.007" y2="97.5928" gradientUnits="userSpaceOnUse">
<stop stop-opacity="0.12"/>
<stop offset="0.55" stop-opacity="0.09"/>
<stop offset="1" stop-opacity="0.02"/>
</linearGradient>
<clipPath id="clip0">
<rect width="192" height="178" fill="white" transform="translate(0.512695 0.000488281)"/>
</clipPath>
</defs>
</svg>
