<svg width="224" height="161" viewBox="0 0 224 161" fill="none" xmlns="http://www.w3.org/2000/svg">
<g id="undraw_adventure_4hum 2" clip-path="url(#clip0)">
<path id="Vector" d="M44.215 27.0359C48.514 27.0359 51.9991 23.5337 51.9991 19.2134C51.9991 14.8931 48.514 11.3909 44.215 11.3909C39.916 11.3909 36.4309 14.8931 36.4309 19.2134C36.4309 23.5337 39.916 27.0359 44.215 27.0359Z" fill="#2F2E41"/>
<path id="Vector_2" d="M20.5066 113.391L25.289 96.7229L26.917 97.2342C26.917 97.2342 24.9837 109.709 21.9311 112.879L20.5066 113.391Z" fill="#2F2E41"/>
<path id="Vector_3" d="M38.7204 23.917C38.7204 23.917 39.3309 30.4614 37.9063 32.302C36.4818 34.1426 38.8221 37.7215 38.8221 37.7215L43.0957 42.8343L49.4044 39.9711L50.3202 34.6539L49.7097 30.9727C49.7097 30.9727 47.5729 28.8253 48.4886 24.9396C49.4044 21.0539 38.7204 23.917 38.7204 23.917Z" fill="#FFB9B9"/>
<path id="Vector_4" opacity="0.1" d="M38.7204 23.917C38.7204 23.917 39.3309 30.4614 37.9063 32.302C36.4818 34.1426 38.8221 37.7215 38.8221 37.7215L43.0957 42.8343L49.4044 39.9711L50.3202 34.6539L49.7097 30.9727C49.7097 30.9727 47.5729 28.8253 48.4886 24.9396C49.4044 21.0539 38.7204 23.917 38.7204 23.917Z" fill="black"/>
<path id="Vector_5" d="M42.3835 146.317L42.3835 150.509L47.9799 151.634L47.4711 144.681L42.3835 146.317Z" fill="#FFB9B9"/>
<path id="Vector_6" d="M59.1726 144.681L57.9514 150.509L60.3936 152.248L64.6673 149.078L64.1585 144.067L59.1726 144.681Z" fill="#FFB9B9"/>
<path id="Vector_7" d="M48.4887 151.123C48.4887 151.123 46.3519 147.493 42.3835 149.768C42.3835 149.768 41.6713 153.781 40.959 154.088C40.2467 154.395 36.2784 160.223 40.959 160.735C45.6396 161.246 47.9799 159.712 47.9799 159.712C47.9799 159.712 47.0641 160.504 48.4887 160.095C49.9132 159.686 49.3027 157.436 49.3027 157.436L48.4887 151.123Z" fill="#2F2E41"/>
<path id="Vector_8" d="M62.4288 148.669C62.4288 148.669 59.2744 150.918 58.7657 149.896C58.2569 148.873 57.4429 148.975 57.4429 148.975C57.4429 148.975 54.5938 159.769 56.4254 160.28C57.6047 160.572 58.8435 160.507 59.9867 160.095C59.9867 160.095 62.4288 158.376 62.4288 159.706C62.4288 161.035 69.2462 160.939 72.0953 160.837C74.9444 160.735 73.4181 158.587 73.4181 158.587L69.6532 154.906L65.3796 148.669C65.3796 148.669 63.4463 146.93 62.4288 148.669Z" fill="#2F2E41"/>
<path id="Vector_9" d="M32.4116 80.2597L36.6852 121.469C36.6852 121.469 39.0256 146.623 39.4326 147.032C39.8396 147.441 42.4852 148.771 48.2851 147.032L46.9623 114.106L49.4043 93.6552L55.0007 107.766C55.0007 107.766 56.3235 145.703 57.2393 145.703C58.1551 145.703 63.7515 147.544 65.0743 145.294C66.3971 143.044 66.1936 118.81 66.1936 118.81C66.1936 118.81 65.583 80.5665 61.1059 79.3394C56.6288 78.1124 32.4116 80.2597 32.4116 80.2597Z" fill="#2F2E41"/>
<path id="Vector_10" d="M44.215 27.7006C48.0926 27.7006 51.236 24.5417 51.236 20.645C51.236 16.7483 48.0926 13.5894 44.215 13.5894C40.3375 13.5894 37.1941 16.7483 37.1941 20.645C37.1941 24.5417 40.3375 27.7006 44.215 27.7006Z" fill="#FFB9B9"/>
<path id="Vector_11" d="M44.6219 40.278C44.6219 40.278 43.9096 35.881 43.9096 35.063C43.9096 34.2449 40.7552 33.7337 40.7552 33.7337C40.7552 33.7337 38.3132 30.9728 37.8044 31.3818C37.2956 31.7908 29.5624 37.0058 28.3414 37.7216C27.1204 38.4374 25.7976 41.5051 25.8993 41.7096C26.0011 41.9141 32.3098 55.2073 32.3098 55.2073C32.3098 55.2073 35.0571 63.3877 33.1238 67.6824C31.1905 71.9772 28.7484 80.4644 32.3098 82.2027C35.8711 83.941 53.1691 87.7245 56.3234 84.4523C59.4778 81.1801 61.7163 80.2598 62.5303 80.2598C63.3444 80.2598 59.1725 66.0464 60.0883 64.717C61.0041 63.3877 59.6813 55.105 59.6813 55.105L64.3619 41.9141C64.3619 41.9141 63.9549 34.5517 54.6954 32.9156L49.156 30.2166L44.6219 40.278Z" fill="#575A89"/>
<path id="Vector_12" d="M25.5941 82.1005C25.5941 82.1005 25.0853 87.0088 25.0853 88.4403C25.0853 89.8719 22.6432 98.2569 26.2046 99.2794C29.7659 100.302 29.4607 88.1336 29.4607 88.1336L29.4607 81.896L25.5941 82.1005Z" fill="#FFB9B9"/>
<path id="Vector_13" d="M67.8217 77.499C67.8217 77.499 68.4322 82.2028 68.127 83.2253C67.8217 84.2479 71.0778 93.1441 66.7024 93.6554C62.3271 94.1666 63.4463 83.0208 63.4463 83.0208L63.4463 77.499L67.8217 77.499Z" fill="#FFB9B9"/>
<path id="Vector_14" d="M24.6785 111.754L27.6293 96.0071L28.5451 96.0071C29.1854 96.8366 29.6053 97.8161 29.7655 98.8536C29.9257 99.891 29.8209 100.952 29.4609 101.938C28.2398 105.415 27.2223 111.754 27.2223 111.754L24.6785 111.754Z" fill="#2F2E41"/>
<path id="Vector_15" d="M27.4258 40.4824L25.8995 41.7095C25.8995 41.7095 23.8645 74.2267 24.3732 76.6808C24.882 79.1349 22.5417 82.6116 24.5767 82.9184C26.6118 83.2252 29.0539 84.5545 30.1731 83.7364C31.2924 82.9184 31.4959 79.953 31.9029 79.2372C32.3099 78.5214 33.0222 70.0342 33.0222 70.0342C33.0222 70.0342 35.159 61.547 33.8362 55.2072C32.5134 48.8674 31.2924 42.4253 31.2924 42.4253L27.4258 40.4824Z" fill="#575A89"/>
<path id="Vector_16" d="M59.6814 37.926L64.362 41.914L67.9234 62.7741C67.9234 62.7741 70.1619 79.0327 68.4321 79.2372C66.7023 79.4417 64.0568 78.9304 62.9375 79.2372C61.8182 79.544 60.9024 78.7259 60.9024 78.7259C60.9024 78.7259 59.6814 72.1816 59.6814 72.0793C59.6814 71.9771 58.8674 64.5124 58.8674 64.5124L57.8499 56.1275L59.3761 46.9245L59.6814 37.926Z" fill="#575A89"/>
<path id="Vector_17" d="M37.601 134.455C37.601 134.455 36.9396 136.364 36.0279 138.964C35.6046 140.172 35.1274 141.531 34.6359 142.917C34.3195 143.813 33.9979 144.72 33.6815 145.605C33.1768 147.021 32.6863 148.381 32.258 149.549C31.6922 151.09 31.2333 152.298 30.9871 152.861C29.8678 155.417 9.41547 151.327 7.78742 150.305C6.15938 149.282 5.75237 145.805 5.54886 140.897C5.54784 140.872 5.54682 140.846 5.54682 140.821C5.52037 139.83 5.7717 138.354 6.19195 136.623C6.40155 135.758 6.65389 134.829 6.93473 133.865C7.31123 132.572 7.73859 131.216 8.18527 129.866C10.1043 124.068 12.3663 118.401 12.3663 118.401C12.3663 118.401 16.3347 115.64 17.7592 113.8C19.1837 111.959 27.0187 110.527 27.0187 110.527C29.2573 110.63 34.3449 119.321 36.38 121.98C38.415 124.639 37.601 134.455 37.601 134.455Z" fill="#3F3D56"/>
<path id="Vector_18" d="M26.2046 118.912C26.7104 118.912 27.1204 118.5 27.1204 117.992C27.1204 117.484 26.7104 117.072 26.2046 117.072C25.6988 117.072 25.2888 117.484 25.2888 117.992C25.2888 118.5 25.6988 118.912 26.2046 118.912Z" fill="#2F2E41"/>
<path id="Vector_19" d="M27.6291 119.526C27.9101 119.526 28.1379 119.297 28.1379 119.015C28.1379 118.732 27.9101 118.503 27.6291 118.503C27.3481 118.503 27.1204 118.732 27.1204 119.015C27.1204 119.297 27.3481 119.526 27.6291 119.526Z" fill="#2F2E41"/>
<path id="Vector_20" d="M36.028 138.964C35.6047 140.172 35.1275 141.531 34.636 142.917L6.93481 133.865C7.31131 132.572 7.73867 131.216 8.18535 129.866L36.028 138.964Z" fill="#F2F2F2"/>
<path id="Vector_21" d="M33.6815 145.605C33.1768 147.021 32.6863 148.381 32.258 149.549L5.54682 140.821C5.52037 139.83 5.7717 138.354 6.19195 136.623L33.6815 145.605Z" fill="#F2F2F2"/>
<path id="Vector_22" d="M26.2046 118.197C26.2046 118.197 28.2396 127.195 27.0186 135.171C25.7976 143.147 30.0712 150.612 30.0712 150.612" stroke="#2F2E41" stroke-width="3" stroke-miterlimit="10"/>
<path id="Vector_23" d="M27.6292 118.912C27.6292 118.912 23.6608 133.433 23.559 135.478C23.4573 137.523 21.8292 152.145 19.7942 153.679" stroke="#2F2E41" stroke-width="3" stroke-miterlimit="10"/>
<path id="Vector_24" d="M38.8249 16.3394C38.8249 16.3394 37.2356 12.187 39.54 10.8295L40.1757 12.6661C40.1757 12.6661 45.9764 9.15253 47.4862 9.95108L46.0559 11.8676C46.0559 11.8676 52.8102 11.8676 53.2869 14.5028L50.9031 14.5826C50.9031 14.5826 53.4459 16.2596 53.5253 18.9746L48.4398 19.2941L50.9031 20.7314C50.9031 20.7314 41.6855 22.0091 39.4606 18.3358L38.8249 16.3394Z" fill="#2F2E41"/>
<path id="Vector_25" d="M37.4485 16.5037C37.4485 16.5037 39.28 20.1849 41.7221 19.2646C44.1642 18.3443 41.7221 14.9699 41.7221 14.9699L40.0941 14.1519L37.4485 16.5037Z" fill="#2F2E41"/>
<path id="Vector_26" d="M195.387 74.5782L162.175 32.8713C160.667 34.2572 158.809 35.2 156.804 35.5967C150.552 36.8342 144.446 32.5434 143.166 26.013C142.725 23.8534 142.879 21.6136 143.612 19.5355C144.345 17.4574 145.628 15.6199 147.324 14.2214L136 0.000488712L71.4851 55.4109L130.872 129.989L195.387 74.5782Z" fill="#F2F2F2"/>
<path id="Vector_27" d="M154.121 33.6151C159.292 33.6151 163.484 29.4025 163.484 24.206C163.484 19.0095 159.292 14.7969 154.121 14.7969C148.95 14.7969 144.758 19.0095 144.758 24.206C144.758 29.4025 148.95 33.6151 154.121 33.6151Z" fill="#F2F2F2"/>
<path id="Vector_28" d="M95.5354 66.1316L92.6707 69.4634L102.322 77.8442L105.187 74.5124L95.5354 66.1316Z" fill="#DE756D"/>
<path id="Vector_29" d="M157.579 125.715L154.714 129.047L163.27 136.476L166.134 133.144L157.579 125.715Z" fill="#DE756D"/>
<path id="Vector_30" d="M173.037 100.899L173.037 101.157C173.031 101.806 173.013 102.452 172.981 103.095C172.424 114.097 167.701 124.469 159.78 132.084C151.859 139.699 141.34 143.982 130.378 144.054C119.416 144.126 108.841 139.982 100.822 132.472C92.8019 124.961 87.9443 114.652 87.2442 103.658C87.1858 102.746 87.1566 101.826 87.1566 100.899C87.1411 91.9616 89.9013 83.2419 95.0523 75.956C95.4642 75.3689 95.8926 74.7925 96.3376 74.227C96.6443 73.8336 96.9598 73.4491 97.2782 73.0674C104.527 64.4377 114.853 59.0068 126.04 57.94C137.227 56.8731 148.385 60.2553 157.12 67.3608C157.637 67.7806 158.145 68.215 158.642 68.6583C159.039 69.0135 159.429 69.3765 159.813 69.7474C167.369 77.0102 172.019 86.8 172.888 97.2708C172.987 98.4685 173.037 99.6779 173.037 100.899Z" fill="#3F3D56"/>
<path id="Vector_31" d="M130.097 149.482C103.44 149.482 81.7525 127.688 81.7525 100.899C81.7367 88.6426 86.3464 76.8361 94.6518 67.8606L95.7224 68.8591C87.668 77.5633 83.1976 89.0131 83.213 100.899C83.213 126.879 104.245 148.014 130.097 148.014C136.378 148.036 142.599 146.778 148.383 144.318C154.168 141.857 159.397 138.245 163.754 133.699L164.803 134.72C160.309 139.409 154.918 143.133 148.953 145.67C142.988 148.207 136.574 149.504 130.097 149.482Z" fill="#DE756D"/>
<path id="Vector_32" d="M137.108 148.455L124.839 148.455L124.839 160.784L137.108 160.784L137.108 148.455Z" fill="#DE756D"/>
<path id="Vector_33" d="M96.3376 74.2269C96.3586 74.2358 96.3783 74.2476 96.396 74.2621C96.6268 74.4529 96.3376 74.8199 96.3726 75.1222C96.4135 75.5097 96.9276 75.5948 97.3161 75.633C97.7046 75.6741 98.1954 75.9882 98.0114 76.3346C97.0357 76.6722 96.0484 76.3405 95.0523 75.9559C89.9013 83.2419 87.1411 91.9615 87.1566 100.899C87.1566 101.827 87.1858 102.747 87.2442 103.658C87.3259 103.718 87.4153 103.767 87.51 103.802C87.8021 103.914 88.141 103.893 88.4097 104.052C88.623 104.178 88.7661 104.401 88.9793 104.519C89.5898 104.853 90.437 104.21 91.0066 104.61C91.1538 104.744 91.2933 104.887 91.4243 105.038C91.9501 105.496 92.8147 105.188 93.4223 105.531C93.8138 105.752 94.0153 106.192 94.2256 106.591C94.7485 107.589 95.5956 108.57 96.7144 108.649C97.0673 108.633 97.4208 108.644 97.7718 108.684C98.1165 108.763 98.4554 109.066 98.3999 109.415C98.3035 110.017 98.5985 110.674 98.5196 111.276C98.3765 112.377 96.8254 112.858 96.694 113.959C96.6935 114.202 96.6799 114.444 96.6531 114.684C96.583 114.972 96.3668 115.207 96.2909 115.495C96.1448 116.038 96.5333 116.581 96.9569 116.945C97.3833 117.312 97.8916 117.629 98.1253 118.139C98.3707 118.683 98.2509 119.314 98.3298 119.904C98.505 121.192 99.6121 122.146 100.751 122.763C101.116 122.916 101.441 123.153 101.698 123.456C101.99 123.881 101.961 124.442 102.06 124.95C102.3 126.192 103.339 127.216 103.369 128.481C103.389 129.382 102.893 130.199 102.595 131.047C102.288 131.936 102.197 132.886 102.329 133.818C103.994 135.238 105.765 136.528 107.625 137.678C107.726 137.528 107.8 137.361 107.844 137.185C107.879 136.991 107.855 136.79 107.774 136.609C107.693 136.429 107.559 136.278 107.391 136.175C107.705 136.056 107.991 135.872 108.229 135.635C108.347 135.514 108.424 135.359 108.451 135.192C108.479 135.025 108.454 134.854 108.381 134.702C108.895 134.766 109.506 134.799 109.845 134.402C110.116 134.085 110.099 133.61 109.991 133.207C109.842 132.816 109.744 132.408 109.699 131.992C110.89 132.05 112.084 132.01 113.268 131.872C113.097 131.291 112.707 130.8 112.182 130.504C112.719 130.413 113.207 129.767 113.376 129.247C113.523 128.717 113.531 128.158 113.4 127.624C113.359 127.487 113.353 127.342 113.382 127.201C113.469 127.015 113.621 126.868 113.809 126.787C114.697 126.274 115.585 125.761 116.473 125.249C116.631 125.169 116.775 125.063 116.899 124.935C117.177 124.603 117.136 124.107 116.993 123.699C116.85 123.291 116.622 122.907 116.566 122.478C116.403 121.195 117.77 120.274 118.231 119.064C118.388 118.581 118.473 118.078 118.482 117.57C118.52 117.024 118.523 116.393 118.109 116.043C117.708 115.706 117.086 115.782 116.668 115.468C116.286 115.18 116.154 114.626 115.737 114.394C115.357 114.182 114.884 114.317 114.46 114.218C113.718 114.044 113.251 113.184 112.491 113.105C112.065 113.058 111.58 113.269 111.229 113.02C110.92 112.797 110.908 112.354 110.85 111.978C110.746 111.392 110.466 110.853 110.049 110.432C109.631 110.011 109.095 109.729 108.513 109.623C108.072 109.553 107.593 109.579 107.216 109.336C106.836 109.089 106.664 108.628 106.363 108.285C105.884 107.736 105.124 107.539 104.414 107.372C103.45 107.146 102.487 106.919 101.525 106.691C101.014 106.568 100.354 106.503 100.077 106.955C99.9945 107.127 99.9374 107.31 99.9072 107.498C99.8028 107.837 99.5947 108.134 99.3126 108.347C99.0304 108.56 98.6885 108.678 98.3356 108.684C98.0941 108.27 97.7028 107.965 97.2431 107.833C96.9428 107.782 96.6462 107.712 96.3551 107.621C96.2031 107.547 96.0679 107.441 95.9578 107.312C95.8476 107.183 95.7649 107.033 95.7146 106.87C95.6643 106.708 95.6474 106.537 95.6652 106.368C95.6829 106.199 95.7348 106.035 95.8176 105.887C95.9833 105.589 96.047 105.244 95.999 104.906C95.9509 104.569 95.7938 104.256 95.5518 104.017C95.0611 103.573 94.3512 103.465 93.6911 103.509C93.5187 103.13 93.8079 102.704 94.1176 102.428C94.4301 102.155 94.8069 101.885 94.8741 101.474C94.9822 100.829 94.1614 100.338 93.5392 100.529C92.917 100.723 92.5197 101.331 92.2568 101.929C92.1293 102.283 91.9554 102.617 91.7398 102.925C91.6293 103.077 91.4791 103.195 91.3059 103.266C91.1327 103.338 90.9432 103.36 90.7583 103.33C90.2442 103.198 90.0485 102.584 89.9345 102.067C89.752 101.377 89.6597 100.665 89.66 99.9509C89.6644 99.2294 89.9496 98.5382 90.4545 98.0252C91.3045 97.2385 92.6132 97.3148 93.7612 97.441C93.6382 97.2762 93.5793 97.072 93.5954 96.8667C93.6115 96.6613 93.7016 96.4689 93.8488 96.3255C94.0024 96.1885 94.1871 96.0911 94.3866 96.042C94.5862 95.9929 94.7946 95.9935 94.9939 96.0437C95.34 96.1157 95.6518 96.3029 95.879 96.5751C96.2062 96.9743 96.2996 97.5174 96.545 97.9694C96.7933 98.4244 97.3483 98.8119 97.8011 98.5683C98.1954 98.3569 98.2568 97.8109 98.1604 97.3735C98.0611 96.9391 97.8536 96.5134 97.8887 96.0672C97.9559 95.2188 98.8351 94.7051 99.6092 94.3558C100.383 94.0065 101.268 93.5338 101.391 92.6884C101.397 92.524 101.428 92.3615 101.485 92.207C101.57 92.0691 101.69 91.9558 101.832 91.8782C104.09 90.3781 106.389 88.8575 108.971 88.0385C109.106 87.9945 109.12 88.0415 109.258 88.0092C109.45 87.8976 109.322 87.5894 109.138 87.4661C108.954 87.3428 108.708 87.2459 108.662 87.0287C108.63 86.8702 108.723 86.7117 108.746 86.5502C108.753 86.4527 108.735 86.3552 108.695 86.2662C108.654 86.1772 108.593 86.0994 108.516 86.0397C108.439 85.98 108.349 85.9402 108.253 85.9238C108.157 85.9074 108.059 85.9148 107.967 85.9455C107.759 85.6696 108.168 85.3496 108.501 85.2557C109.498 84.9812 110.521 84.8139 111.554 84.7566C111.673 84.7368 111.795 84.7575 111.901 84.8153C111.977 84.8889 112.022 84.9889 112.027 85.0948C112.032 85.2007 111.996 85.3045 111.928 85.3848C111.787 85.5417 111.631 85.6843 111.463 85.8105C111.295 85.9741 111.176 86.1807 111.117 86.408C111.058 86.6352 111.063 86.8743 111.13 87.0992C111.67 87.3751 112.255 87.6599 112.854 87.563C113.449 87.4661 113.978 86.7909 113.698 86.2537C113.438 85.7518 112.652 85.6373 112.518 85.0883C112.36 84.4455 113.265 83.873 113.061 83.2448C112.973 82.9689 112.699 82.8045 112.488 82.6078C112.241 82.3629 112.073 82.0488 112.005 81.7063C111.938 81.3639 111.975 81.009 112.112 80.688C111.77 80.748 111.418 80.725 111.087 80.6208C110.756 80.5167 110.454 80.3344 110.207 80.0891C109.751 79.6283 109.389 78.8973 108.741 78.9208C108.148 78.9384 107.636 79.6341 107.081 79.4228C106.944 79.3699 106.801 79.2643 106.67 79.3259C106.626 79.3539 106.59 79.3915 106.563 79.4357C106.536 79.4799 106.52 79.5297 106.515 79.5813C106.374 80.2594 106.617 81.0314 106.249 81.6186C105.849 82.2556 104.923 82.3436 104.438 82.919C104.175 83.2302 104.073 83.6499 103.83 83.9787C103.588 84.3075 103.077 84.5189 102.784 84.2312C102.928 83.9365 102.967 83.6017 102.896 83.2817C102.824 82.9616 102.647 82.6754 102.393 82.4699C102.124 82.2924 101.833 82.1503 101.528 82.0471C101.188 81.9026 100.863 81.7215 100.562 81.507C100.411 81.4149 100.289 81.2828 100.208 81.1254C100.144 80.9274 100.153 80.7131 100.231 80.5207C100.379 80.0967 100.639 79.7213 100.984 79.4347C101.328 79.1482 101.744 78.9614 102.186 78.8944C102.571 78.8416 103.021 78.8592 103.278 78.5627C103.412 78.4071 103.483 78.1693 103.681 78.1077C103.806 78.0814 103.937 78.0969 104.052 78.1517C104.534 78.322 105.013 78.4922 105.495 78.6625C105.656 78.7366 105.833 78.766 106.009 78.7476C106.097 78.7363 106.176 78.6921 106.232 78.6239C106.288 78.5558 106.316 78.4688 106.31 78.3807C106.263 78.14 105.895 78.0255 105.93 77.7818C105.948 77.7022 105.989 77.6302 106.05 77.5763C106.571 77.0195 107.208 76.5852 107.916 76.3045C108.623 76.0239 109.384 75.9038 110.143 75.953C110.324 76.2554 110.038 76.6106 109.795 76.8659C109.556 77.1243 109.363 77.5822 109.655 77.7789C109.773 77.841 109.905 77.8713 110.038 77.867C110.393 77.9149 110.738 78.0199 111.06 78.1781C111.559 78.3954 112.05 78.6361 112.529 78.8944C112.459 78.5797 112.471 78.2519 112.564 77.9433C112.617 77.7918 112.724 77.6655 112.865 77.589C113.005 77.5124 113.169 77.4912 113.324 77.5294C113.61 77.6409 113.756 78.0225 114.063 78.0578C114.469 78.1047 114.63 77.5 114.46 77.1243C114.291 76.7485 113.952 76.4374 113.926 76.0235C113.905 75.7475 114.01 75.4041 113.791 75.2367C113.713 75.1849 113.624 75.1526 113.531 75.1428C111.697 74.8052 109.861 74.4666 108.025 74.1271C107.698 74.0655 107.227 74.1124 107.213 74.4441C107.204 74.632 107.371 74.817 107.298 74.9872C107.219 75.1692 106.962 75.1545 106.775 75.2191C106.634 75.2831 106.518 75.3914 106.445 75.5275C106.371 75.6637 106.343 75.8202 106.366 75.9735C106.416 76.2788 106.533 76.5688 106.71 76.8219C106.351 76.6722 105.811 76.6458 105.451 76.4931C105.399 76.075 105.293 75.6655 105.136 75.2749C105.127 75.2127 105.105 75.1533 105.07 75.1008C105.036 75.0482 104.991 75.0039 104.937 74.9709C104.884 74.9379 104.824 74.917 104.762 74.9096C104.7 74.9023 104.637 74.9088 104.578 74.9285C104.105 75.0019 103.632 75.0723 103.158 75.1457C103.04 75.1514 102.926 75.1957 102.834 75.272C102.65 75.4686 102.831 75.7827 102.825 76.0528C102.808 76.2038 102.745 76.3457 102.644 76.4588C102.543 76.5719 102.409 76.6506 102.262 76.6839C101.964 76.7446 101.658 76.7406 101.362 76.6722C100.699 76.5695 100.039 76.4667 99.3755 76.364C99.9608 76.1765 100.481 75.8264 100.877 75.3542C101.14 75.043 101.28 74.4618 100.9 74.315C100.788 74.284 100.671 74.2751 100.556 74.2886C99.656 74.2944 98.9461 73.54 98.1049 73.22C97.8403 73.1209 97.5605 73.0692 97.2782 73.0674L96.3376 74.2269Z" fill="#DE756D"/>
<path id="Vector_34" d="M172.981 103.095C172.878 103.234 172.743 103.345 172.587 103.419C172.431 103.494 172.26 103.528 172.088 103.52C171.173 103.441 170.788 102.117 169.882 101.968C169.802 101.947 169.717 101.955 169.643 101.991C169.508 102.064 169.485 102.246 169.476 102.399C169.438 103.156 169.406 103.943 169.701 104.642C170.13 105.663 171.243 106.521 171.01 107.604C169.754 107.02 169.099 105.602 168.804 104.243C168.506 102.883 168.46 101.457 167.928 100.171C167.522 100.691 166.675 100.262 166.307 99.716C165.956 99.1994 165.74 98.6005 165.401 98.0751C165.062 97.5525 164.542 97.0829 163.923 97.0535C163.272 97.0242 162.705 97.4733 162.208 97.8989C161.776 98.2196 161.414 98.6251 161.142 99.0908C160.795 99.7953 160.885 100.623 160.868 101.407C160.85 102.252 160.672 103.148 160.096 103.77C159.521 104.389 158.461 104.607 157.827 104.046C157.52 103.725 157.302 103.329 157.193 102.898C156.504 100.88 155.93 98.8236 155.475 96.7394C155.37 97.215 154.952 97.8285 154.555 97.5496C154.466 97.4737 154.395 97.3796 154.345 97.2737C153.603 96.0143 152.233 95.257 150.845 94.802C149.461 94.3499 148.003 94.1385 146.633 93.6395C145.865 93.3591 145.131 92.9918 144.445 92.5445C144.271 92.8023 144.169 93.1026 144.151 93.4136C144.132 93.7246 144.198 94.0349 144.34 94.3117C144.494 94.5826 144.733 94.7947 145.019 94.9152C145.305 95.0357 145.623 95.0578 145.923 94.9781C146.227 94.8783 146.484 94.6669 146.785 94.5613C147.086 94.4585 147.492 94.5084 147.623 94.802C147.752 95.0808 147.559 95.4184 147.655 95.712C147.799 96.1552 148.468 96.1905 148.701 96.5956C148.77 96.756 148.786 96.9343 148.746 97.1044C148.707 97.2745 148.614 97.4274 148.482 97.5408C148.213 97.7611 147.917 97.9447 147.6 98.0868C146.618 98.6358 145.92 99.5722 145.062 100.3C144.203 101.031 142.99 101.562 141.968 101.096C142.211 99.854 140.741 98.944 140.47 97.7081C140.379 97.3001 140.426 96.8686 140.3 96.4723C140.116 95.8969 139.608 95.5036 139.193 95.0691C138.689 94.5357 138.296 93.9065 138.038 93.2183C137.78 92.5302 137.661 91.7971 137.689 91.0621C137.712 90.5513 137.806 90.0317 137.689 89.5327C137.575 89.0366 137.163 88.5552 136.655 88.5757C135.495 88.6286 134.031 88.7166 133.424 87.7215C133.205 87.3663 133.111 86.8467 133.427 86.5737C133.55 86.4951 133.688 86.442 133.832 86.4173C133.976 86.3926 134.123 86.3969 134.265 86.4298C135.139 86.515 136.009 86.603 136.882 86.6882C137.493 86.7469 138.153 86.7968 138.679 86.4768C139.205 86.1568 139.433 85.3026 138.945 84.9239C138.591 84.648 137.954 84.6627 137.849 84.2253C137.765 83.8583 138.168 83.4444 137.949 83.1362C137.794 82.919 137.443 82.9777 137.23 83.1421C137.044 83.3362 136.842 83.514 136.625 83.6734C136.208 83.8906 135.711 83.6822 135.261 83.5413C134.811 83.4004 134.21 83.3886 133.993 83.8084C133.748 84.2752 134.207 84.8916 133.967 85.3613C133.646 85.9807 132.565 85.6284 132.115 86.1627C131.601 86.7733 132.466 87.6892 132.293 88.47C132.072 88.5806 131.825 88.6315 131.578 88.6176C131.33 88.6037 131.091 88.5255 130.883 88.3908C130.678 88.2511 130.515 88.0582 130.411 87.8328C130.307 87.6074 130.266 87.3579 130.292 87.1109C130.333 86.7586 130.517 86.3976 130.395 86.0658C130.262 85.8097 130.044 85.6089 129.778 85.4993C128.931 85.0267 128.084 84.556 127.237 84.0873C127 84.5276 127.298 85.0707 127.672 85.4024C128.043 85.7312 128.511 85.9807 128.756 86.4151C128.911 86.7162 128.946 87.0656 128.854 87.3919C128.762 87.7181 128.549 87.9966 128.259 88.1706C128.223 88.1959 128.181 88.213 128.137 88.2206C128.093 88.2282 128.048 88.2262 128.005 88.2146C127.965 88.1907 127.929 88.159 127.901 88.1211C127.873 88.0833 127.853 88.0403 127.842 87.9945C127.395 86.8408 126.72 85.7047 125.645 85.103C124.567 84.4982 123.022 84.6245 122.315 85.6372C122.148 85.8779 122.034 86.1539 121.888 86.4093C121.114 87.7625 119.449 88.4025 117.895 88.3614C117.743 88.3712 117.592 88.3354 117.46 88.2586C117.209 88.0855 117.221 87.7156 117.258 87.4103C117.314 86.9788 117.367 86.5502 117.422 86.1187C117.423 85.8552 117.525 85.6021 117.705 85.4112C117.995 85.1822 118.409 85.3261 118.777 85.3202C119.055 85.3077 119.322 85.2094 119.543 85.0387C119.763 84.8679 119.925 84.6331 120.007 84.3661C120.081 84.0968 120.081 83.8122 120.006 83.5432C119.93 83.2742 119.783 83.0309 119.581 82.8397C119.414 82.6812 119.189 82.4815 119.277 82.2672C119.313 82.2082 119.361 82.1577 119.418 82.1192C119.475 82.0806 119.539 82.055 119.607 82.0441C120.264 81.8533 120.962 81.8034 121.608 81.5745C122.256 81.3484 122.885 80.8846 123.039 80.2124C123.086 80.0069 123.107 79.7574 123.291 79.6546C123.384 79.6172 123.483 79.5973 123.583 79.5959C123.934 79.5453 124.254 79.3646 124.479 79.0892C124.704 78.8138 124.819 78.4637 124.801 78.1076C125.11 77.8904 125.546 78.0518 125.847 78.2837C126.144 78.5156 126.41 78.8209 126.775 78.9208C127.456 79.1086 128.113 78.501 128.82 78.498C129.118 78.498 129.425 78.6037 129.702 78.501C129.986 78.3982 130.155 78.1164 130.371 77.908C130.59 77.6966 130.97 77.5704 131.172 77.7965C131.113 77.3708 131.058 76.9481 130.999 76.5254C131.343 76.6125 131.702 76.6245 132.051 76.5607C132.401 76.4969 132.732 76.3588 133.024 76.1555C132.288 75.906 131.554 75.6565 130.818 75.4069C130.741 75.3878 130.67 75.3494 130.611 75.2954C130.45 75.1222 130.611 74.8521 130.739 74.6554C131.052 74.1828 131.105 73.4049 130.59 73.1701C130.24 73.0086 129.84 73.2024 129.504 73.3902C128.966 73.6897 128.429 73.992 127.891 74.2914C127.842 74.5997 128.216 74.7758 128.446 74.9813C128.587 75.1066 128.686 75.2718 128.732 75.4552C128.777 75.6385 128.766 75.8313 128.701 76.0083C128.635 76.1852 128.517 76.338 128.363 76.4466C128.21 76.5551 128.027 76.6143 127.839 76.6164C127.945 76.7552 128.018 76.9162 128.054 77.0874C128.09 77.2585 128.087 77.4356 128.046 77.6056C127.687 77.6321 127.325 77.6585 126.962 77.6849C126.902 77.6969 126.84 77.6969 126.78 77.6848C126.72 77.6727 126.663 77.6488 126.612 77.6144C126.495 77.5117 126.513 77.3297 126.483 77.177C126.435 76.9946 126.334 76.8308 126.192 76.7068C126.051 76.5828 125.875 76.5043 125.689 76.4813C125.317 76.4393 124.94 76.4742 124.582 76.5841C124.426 76.6392 124.256 76.635 124.103 76.5723C124.016 76.5147 123.95 76.4302 123.916 76.3316C123.852 76.1303 123.841 75.9159 123.884 75.7092C123.927 75.5025 124.023 75.3104 124.161 75.1515C124.442 74.8385 124.751 74.5525 125.084 74.2973C125.84 73.6323 126.395 72.768 126.688 71.8021C127.284 71.5496 127.9 71.2091 128.499 70.9567C128.98 70.7325 129.485 70.5622 130.003 70.4488C130.491 70.3739 130.986 70.3503 131.478 70.3784C132.15 70.3901 132.825 70.4019 133.497 70.4165C134.097 70.3912 134.696 70.4778 135.264 70.6719C135.816 70.9009 136.304 71.397 136.342 71.9958C136.354 72.0641 136.347 72.1342 136.324 72.1994C136.301 72.2646 136.262 72.3229 136.211 72.3687C136.133 72.4118 136.045 72.4321 135.956 72.4274C135.399 72.445 135.162 72.5859 134.604 72.6064C134.957 72.9851 135.355 73.3844 135.869 73.4519C136.774 73.5693 137.426 72.627 137.844 71.808C137.858 72.0164 137.954 72.2108 138.109 72.3495C138.265 72.4883 138.468 72.5605 138.676 72.5507C138.9 72.512 139.113 72.4281 139.304 72.3041C141.101 71.3173 143.113 70.7948 145.161 70.7835C145.141 70.6277 145.179 70.47 145.268 70.3409C145.357 70.2118 145.491 70.1205 145.643 70.0848C146.061 70.0026 146.434 70.3637 146.636 70.7394C146.835 71.1152 146.96 71.5496 147.282 71.8315C147.6 72.1133 148.216 72.0986 148.342 71.6935C148.465 71.3031 148.059 70.9684 147.723 70.7365C147.384 70.5075 147.03 70.0819 147.258 69.7414C148.976 69.3568 150.708 68.9752 152.469 68.8989C152.769 68.908 153.067 68.8561 153.346 68.7462C153.484 68.6875 153.599 68.5845 153.673 68.4534C153.747 68.3223 153.775 68.1704 153.755 68.0212C153.37 68.1113 152.968 68.0846 152.599 67.9446C152.229 67.8045 151.91 67.5573 151.681 67.2344C153.489 67.0847 155.382 66.9526 157.12 67.3607L158.642 68.6582C158.353 68.9605 157.967 69.2453 158.177 69.5476C158.247 69.6171 158.331 69.6698 158.423 69.7018C158.516 69.7338 158.615 69.7444 158.712 69.7326C159.08 69.7384 159.448 69.7472 159.813 69.7472C167.369 77.0101 172.019 86.7998 172.888 97.2707C172.275 97.2472 171.711 98.0281 171.79 98.7091C171.883 99.4988 172.45 100.133 172.856 100.814C172.923 100.925 172.984 101.039 173.037 101.157L172.981 103.095Z" fill="#DE756D"/>
<path id="Vector_35" d="M0.513184 160.748L223.513 160.748" stroke="#3F3D56" stroke-width="2" stroke-miterlimit="10"/>
<path id="Vector_36" d="M92.5139 20.1961C94.5604 20.1961 96.2194 18.5289 96.2194 16.4723C96.2194 14.4157 94.5604 12.7485 92.5139 12.7485C90.4674 12.7485 88.8083 14.4157 88.8083 16.4723C88.8083 18.5289 90.4674 20.1961 92.5139 20.1961Z" stroke="#3F3D56" stroke-width="2" stroke-miterlimit="10"/>
<path id="Vector_37" d="M202.005 91.1112C204.051 91.1112 205.71 89.444 205.71 87.3874C205.71 85.3308 204.051 83.6636 202.005 83.6636C199.958 83.6636 198.299 85.3308 198.299 87.3874C198.299 89.444 199.958 91.1112 202.005 91.1112Z" stroke="#3F3D56" stroke-width="2" stroke-miterlimit="10"/>
<path id="Vector_38" d="M176.708 54.0133C178.754 54.0133 180.413 52.3461 180.413 50.2895C180.413 48.2329 178.754 46.5657 176.708 46.5657C174.661 46.5657 173.002 48.2329 173.002 50.2895C173.002 52.3461 174.661 54.0133 176.708 54.0133Z" stroke="#3F3D56" stroke-width="2" stroke-miterlimit="10"/>
<path id="Vector_39" d="M152.396 85.9262C154.693 85.9262 156.555 84.0553 156.555 81.7473C156.555 79.4393 154.693 77.5684 152.396 77.5684C150.1 77.5684 148.238 79.4393 148.238 81.7473C148.238 84.0553 150.1 85.9262 152.396 85.9262Z" fill="#3F3D56"/>
<path id="Vector_40" d="M165.754 73.8241C168.781 73.8241 171.236 71.3578 171.236 68.3155C171.236 65.2732 168.781 62.8069 165.754 62.8069C162.727 62.8069 160.272 65.2732 160.272 68.3155C160.272 71.3578 162.727 73.8241 165.754 73.8241Z" fill="white"/>
<path id="Vector_41" d="M171.298 62.6046C169.826 61.1623 167.845 60.3664 165.79 60.392C163.735 60.4175 161.774 61.2625 160.339 62.741C157.35 65.8199 153.083 81.3684 153.083 81.3684C153.083 81.3684 168.445 76.6966 171.433 73.6177C172.869 72.1392 173.661 70.1483 173.635 68.0829C173.61 66.0176 172.769 64.047 171.298 62.6046ZM163.246 70.8988C162.738 70.4003 162.388 69.7615 162.241 69.0632C162.094 68.3649 162.156 67.6384 162.419 66.9756C162.683 66.3128 163.136 65.7434 163.722 65.3395C164.308 64.9357 164.999 64.7154 165.71 64.7065C166.42 64.6977 167.117 64.9007 167.712 65.2899C168.308 65.6791 168.775 66.237 169.055 66.893C169.335 67.549 169.415 68.2738 169.285 68.9755C169.155 69.6773 168.821 70.3246 168.325 70.8355C167.66 71.5207 166.751 71.9123 165.799 71.9241C164.846 71.936 163.928 71.5672 163.246 70.8988Z" fill="#57B894"/>
</g>
<defs>
<clipPath id="clip0">
<rect width="223" height="161" fill="white" transform="translate(0.513184 0.000488281)"/>
</clipPath>
</defs>
</svg>
