<svg width="211" height="146" viewBox="0 0 211 146" fill="none" xmlns="http://www.w3.org/2000/svg">
<g id="undraw_secure_login_pdn4 1" clip-path="url(#clip0)">
<path id="Vector" d="M42.3543 146.001C65.4625 146.001 84.1954 144.579 84.1954 142.825C84.1954 141.071 65.4625 139.65 42.3543 139.65C19.2461 139.65 0.513184 141.071 0.513184 142.825C0.513184 144.579 19.2461 146.001 42.3543 146.001Z" fill="#E6E6E6"/>
<path id="Vector_2" d="M32.4958 32.3952C39.7775 29.3004 48.8468 31.2613 57.704 32.6222C57.7865 30.9741 58.7855 28.9683 57.739 27.8185C56.4676 26.4217 56.5846 24.9539 57.3497 23.4777C59.3061 19.7029 56.5031 15.6863 53.6729 12.3465C53.035 11.5955 52.2288 11.0053 51.3198 10.6241C50.4108 10.2428 49.4246 10.0812 48.4413 10.1523L43.1986 10.5265C41.9229 10.6176 40.7054 11.0958 39.709 11.8972C38.7127 12.6986 37.985 13.7849 37.6234 15.0109C36.3716 16.7121 35.7016 18.4087 36.1234 20.0965C34.2483 21.377 33.9333 22.9226 34.7759 24.665C35.4904 25.7621 35.4828 26.8301 34.7434 27.8684C33.7724 29.1923 33.0286 30.6684 32.5427 32.2363L32.4958 32.3952Z" fill="#2F2E41"/>
<path id="Vector_3" d="M205.537 126.215L57.1288 126.215C55.809 126.215 54.5433 125.691 53.6101 124.759C52.6769 123.826 52.1526 122.561 52.1526 121.242C105.951 114.995 158.737 114.995 210.513 121.242C210.513 122.561 209.989 123.826 209.056 124.759C208.123 125.691 206.857 126.215 205.537 126.215Z" fill="#2F2E41"/>
<path id="Vector_4" d="M210.513 121.535L52.1526 121.243L70.506 90.3837L70.5938 90.2374L70.5938 22.2278C70.5938 21.4023 70.7564 20.5849 71.0725 19.8222C71.3887 19.0595 71.852 18.3665 72.4361 17.7828C73.0203 17.1991 73.7138 16.7361 74.477 16.4202C75.2402 16.1044 76.0583 15.9418 76.8844 15.9419L184.903 15.9419C185.729 15.9418 186.547 16.1044 187.311 16.4202C188.074 16.7361 188.767 17.1991 189.352 17.7828C189.936 18.3665 190.399 19.0595 190.715 19.8222C191.031 20.5849 191.194 21.4023 191.194 22.2278L191.194 90.7054L210.513 121.535Z" fill="#3F3D56"/>
<path id="Vector_5" d="M76.7409 20.3293C76.1977 20.33 75.6768 20.5459 75.2927 20.9297C74.9086 21.3136 74.6925 21.834 74.6919 22.3769L74.6919 84.3873C74.6925 84.9301 74.9086 85.4506 75.2927 85.8344C75.6769 86.2183 76.1977 86.4342 76.7409 86.4348L185.925 86.4348C186.468 86.4342 186.989 86.2182 187.373 85.8344C187.757 85.4505 187.973 84.9301 187.974 84.3873L187.974 22.3769C187.973 21.834 187.757 21.3136 187.373 20.9298C186.989 20.5459 186.468 20.33 185.925 20.3293L76.7409 20.3293Z" fill="white"/>
<path id="Vector_6" d="M77.1985 94.625C77.0307 94.6253 76.8664 94.6735 76.725 94.764C76.5837 94.8545 76.4711 94.9835 76.4007 95.1358L70.7454 107.421C70.6839 107.555 70.657 107.702 70.6671 107.848C70.6773 107.995 70.7243 108.137 70.8038 108.261C70.8832 108.385 70.9925 108.487 71.1217 108.557C71.251 108.628 71.3959 108.665 71.5431 108.665L190.47 108.665C190.62 108.665 190.767 108.627 190.898 108.554C191.029 108.481 191.139 108.376 191.217 108.249C191.296 108.122 191.341 107.976 191.348 107.827C191.354 107.678 191.323 107.529 191.256 107.395L185.109 95.11C185.036 94.964 184.924 94.8411 184.785 94.7554C184.647 94.6697 184.486 94.6245 184.323 94.625L77.1985 94.625Z" fill="#2F2E41"/>
<path id="Vector_7" d="M130.894 19.3056C131.621 19.3056 132.211 18.7163 132.211 17.9894C132.211 17.2624 131.621 16.6731 130.894 16.6731C130.166 16.6731 129.577 17.2624 129.577 17.9894C129.577 18.7163 130.166 19.3056 130.894 19.3056Z" fill="white"/>
<path id="Vector_8" d="M119.204 111.005C119.011 111.005 118.824 111.069 118.671 111.186C118.517 111.304 118.407 111.468 118.357 111.654L116.938 116.919C116.903 117.049 116.898 117.186 116.924 117.318C116.951 117.45 117.007 117.574 117.089 117.681C117.171 117.788 117.276 117.875 117.397 117.935C117.518 117.994 117.651 118.025 117.786 118.025L144.764 118.025C144.904 118.025 145.042 117.992 145.166 117.928C145.291 117.863 145.398 117.771 145.479 117.657C145.56 117.543 145.613 117.411 145.633 117.272C145.653 117.134 145.639 116.993 145.593 116.861L143.77 111.596C143.71 111.423 143.598 111.274 143.449 111.168C143.3 111.062 143.122 111.005 142.94 111.005L119.204 111.005Z" fill="#2F2E41"/>
<path id="Vector_9" d="M191.194 89.2136L191.194 90.3835L70.5059 90.3835L70.5967 90.2374L70.5967 89.2136L191.194 89.2136Z" fill="#2F2E41"/>
<path id="Vector_10" d="M187.828 40.9508C199.144 40.9508 208.318 31.7837 208.318 20.4756C208.318 9.16752 199.144 0.000488493 187.828 0.000488418C176.511 0.000488342 167.337 9.16752 167.337 20.4756C167.337 31.7837 176.511 40.9508 187.828 40.9508Z" fill="#DE756D"/>
<path id="Vector_11" d="M196.317 29.3969L179.339 29.3969C179.028 29.3966 178.731 29.2733 178.511 29.0539C178.292 28.8345 178.168 28.5371 178.168 28.2269L178.168 17.9893C178.168 17.6791 178.292 17.3817 178.511 17.1624C178.731 16.943 179.028 16.8197 179.339 16.8193L196.317 16.8193C196.627 16.8197 196.925 16.943 197.144 17.1624C197.364 17.3817 197.487 17.6791 197.487 17.9893L197.487 28.2269C197.487 28.5371 197.364 28.8345 197.144 29.0539C196.925 29.2733 196.627 29.3966 196.317 29.3969ZM179.339 17.9893L179.339 28.2269L196.317 28.2269L196.317 17.9893L179.339 17.9893Z" fill="white"/>
<path id="Vector_12" d="M193.096 17.9893L182.559 17.9893L182.559 13.3093C182.559 9.91951 184.775 7.45923 187.828 7.45923C190.881 7.45923 193.096 9.91951 193.096 13.3093L193.096 17.9893ZM183.729 16.8193L191.926 16.8193L191.926 13.3093C191.926 10.5538 190.24 8.62924 187.828 8.62924C185.415 8.62924 183.729 10.5538 183.729 13.3093L183.729 16.8193Z" fill="white"/>
<path id="Vector_13" d="M187.828 23.9858C188.474 23.9858 188.998 23.4619 188.998 22.8158C188.998 22.1696 188.474 21.6458 187.828 21.6458C187.181 21.6458 186.657 22.1696 186.657 22.8158C186.657 23.4619 187.181 23.9858 187.828 23.9858Z" fill="white"/>
<path id="Vector_14" d="M173.523 65.4017L89.1422 65.4016C88.7279 65.4012 88.3307 65.2365 88.0378 64.9438C87.7449 64.651 87.5801 64.2542 87.5796 63.8402L87.5796 42.9243C87.5801 42.5103 87.7449 42.1134 88.0378 41.8207C88.3307 41.5279 88.7279 41.3633 89.1422 41.3628L173.523 41.3628C173.938 41.3633 174.335 41.5279 174.628 41.8207C174.921 42.1134 175.086 42.5103 175.086 42.9243L175.086 63.8402C175.086 64.2542 174.921 64.651 174.628 64.9438C174.335 65.2365 173.938 65.4012 173.523 65.4017ZM89.1422 41.9874C88.8936 41.9877 88.6553 42.0865 88.4795 42.2621C88.3038 42.4377 88.2049 42.6759 88.2046 42.9243L88.2046 63.8402C88.2049 64.0886 88.3038 64.3267 88.4795 64.5024C88.6553 64.678 88.8936 64.7768 89.1422 64.7771L173.523 64.7771C173.772 64.7768 174.01 64.678 174.186 64.5024C174.362 64.3267 174.461 64.0886 174.461 63.8402L174.461 42.9243C174.461 42.6759 174.362 42.4377 174.186 42.2621C174.01 42.0864 173.772 41.9876 173.523 41.9874L89.1422 41.9874Z" fill="#E6E6E6"/>
<path id="Vector_15" d="M102.253 58.9401C105.769 58.9401 108.619 56.0924 108.619 52.5796C108.619 49.0667 105.769 46.219 102.253 46.219C98.738 46.219 95.8882 49.0667 95.8882 52.5796C95.8882 56.0924 98.738 58.9401 102.253 58.9401Z" fill="#E6E6E6"/>
<path id="Vector_16" d="M116.954 48.3394C116.815 48.3391 116.677 48.3664 116.548 48.4196C116.419 48.4727 116.302 48.5508 116.203 48.6493C116.104 48.7477 116.026 48.8647 115.973 48.9934C115.919 49.1221 115.892 49.2601 115.892 49.3994C115.892 49.5388 115.919 49.6768 115.973 49.8055C116.026 49.9342 116.104 50.0512 116.203 50.1496C116.302 50.2481 116.419 50.3261 116.548 50.3793C116.677 50.4325 116.815 50.4598 116.954 50.4595L166.967 50.4595C167.248 50.4595 167.518 50.3478 167.717 50.149C167.916 49.9502 168.028 49.6806 168.028 49.3994C168.028 49.1183 167.916 48.8487 167.717 48.6498C167.518 48.451 167.248 48.3394 166.967 48.3394L116.954 48.3394Z" fill="#E6E6E6"/>
<path id="Vector_17" d="M116.954 54.6997C116.673 54.6997 116.403 54.8114 116.204 55.0102C116.005 55.209 115.893 55.4786 115.893 55.7598C115.893 56.041 116.005 56.3106 116.204 56.5094C116.403 56.7082 116.673 56.8199 116.954 56.8199L138.475 56.8199C138.756 56.8199 139.026 56.7082 139.225 56.5094C139.424 56.3106 139.535 56.041 139.535 55.7598C139.535 55.4786 139.424 55.209 139.225 55.0102C139.026 54.8114 138.756 54.6997 138.475 54.6997L116.954 54.6997Z" fill="#E6E6E6"/>
<path id="Vector_18" d="M70.2984 55.1286L54.6999 63.4154L54.5024 56.5097C59.5937 55.6604 64.4375 54.1818 68.9163 51.7744L70.5477 47.7469C70.7255 47.308 71.0144 46.9229 71.3861 46.6293C71.7578 46.3357 72.1995 46.1438 72.6679 46.0723C73.1363 46.0008 73.6152 46.0523 74.0576 46.2216C74.5001 46.391 74.8909 46.6724 75.1916 47.0383C75.6316 47.5735 75.8516 48.2559 75.8069 48.9472C75.7623 49.6385 75.4563 50.2869 74.9511 50.7612L70.2984 55.1286Z" fill="#FFB8B8"/>
<path id="Vector_19" d="M32.1849 102.973C32.0711 102.556 32.0469 102.12 32.114 101.693C32.181 101.266 32.3378 100.858 32.5739 100.496L36.0005 95.2409C36.811 93.9981 38.0545 93.1003 39.49 92.7219C40.9254 92.3435 42.4504 92.5114 43.7689 93.193C42.3288 95.6424 42.5296 97.7912 44.2663 99.6586C41.5703 100.974 39.0786 102.671 36.8683 104.698C36.4648 104.973 36.0014 105.148 35.5167 105.207C35.0321 105.267 34.5401 105.21 34.0819 105.041C33.6237 104.873 33.2125 104.597 32.8825 104.237C32.5525 103.878 32.3133 103.444 32.1849 102.973Z" fill="#2F2E41"/>
<path id="Vector_20" d="M71.0088 96.1027C70.4903 96.9662 69.7584 97.6821 68.8833 98.1816C68.0082 98.6811 67.0193 98.9474 66.0115 98.955L43.2477 99.1274L42.2605 93.4055L52.3304 90.446L43.8401 83.935L53.1202 73.0833L69.9758 88.7817C70.961 89.6993 71.6011 90.9269 71.7891 92.2595C71.9772 93.592 71.7017 94.9487 71.0088 96.1027Z" fill="#2F2E41"/>
<path id="Vector_21" d="M39.6935 135.234L34.3624 135.234C29.5758 102.448 24.7035 69.5705 39.1012 57.2991L56.0819 60.0613L53.9099 74.4645L44.4323 85.3162L39.6935 135.234Z" fill="#2F2E41"/>
<path id="Vector_22" d="M44.38 142.661C43.9626 142.775 43.5259 142.799 43.0985 142.732C42.6712 142.665 42.2629 142.508 41.9004 142.272L36.1119 141.495C34.8681 140.685 33.9696 139.442 33.5908 138.008C33.212 136.574 33.3799 135.05 34.062 133.732C36.5133 135.171 38.6637 134.97 40.5324 133.235C41.8527 135.899 44.0282 135.736 46.1059 137.981C46.381 138.384 46.5557 138.847 46.6154 139.331C46.6752 139.816 46.6183 140.307 46.4494 140.765C46.2805 141.223 46.0046 141.634 45.6447 141.964C45.2847 142.293 44.8511 142.533 44.38 142.661Z" fill="#2F2E41"/>
<path id="Vector_23" d="M52.3305 35.3982L42.458 33.0305C44.0977 29.6767 44.2327 25.945 43.4452 21.9815L50.1585 21.7842C50.3689 26.7129 51.0053 31.3175 52.3305 35.3982Z" fill="#FFB8B8"/>
<path id="Vector_24" d="M55.0436 66.0019C47.8568 70.8955 42.7789 66.1693 38.9038 58.8773C39.4422 54.4153 38.5704 49.0756 36.9556 43.2736C36.2374 40.7145 36.5055 37.9793 37.707 35.6081C38.9084 33.2369 40.9559 31.402 43.4451 30.4656L51.9354 34.0171C59.1447 39.8891 60.5637 46.2497 57.8589 52.9582L55.0436 66.0019Z" fill="#DE756D"/>
<path id="Vector_25" d="M34.3624 40.3307L26.4644 44.4741L40.4833 52.7608L42.434 57.5689C42.5642 57.8898 42.6276 58.2338 42.6204 58.58C42.6132 58.9262 42.5355 59.2673 42.392 59.5825C42.2486 59.8978 42.0424 60.1805 41.786 60.4135C41.5297 60.6465 41.2285 60.8248 40.9009 60.9377C40.5285 61.066 40.1314 61.1065 39.7408 61.0559C39.3501 61.0052 38.9765 60.8649 38.6492 60.6459C38.3218 60.4269 38.0497 60.1352 37.854 59.7935C37.6584 59.4519 37.5445 59.0696 37.5214 58.6767L37.3241 55.3258L19.5062 49.4502C18.9059 49.2522 18.3585 48.9204 17.9056 48.4797C17.4526 48.039 17.1059 47.5012 16.8918 46.9068C16.5797 46.0404 16.5638 45.0951 16.8466 44.2187C17.1295 43.3424 17.6951 42.5845 18.4549 42.0635L32.7828 32.2412L34.3624 40.3307Z" fill="#FFB8B8"/>
<path id="Vector_26" d="M42.2604 41.1201C38.9665 39.6776 35.9712 41.2446 32.1905 42.5012L31.5981 32.0441C35.3522 30.0447 38.9315 29.5057 42.2604 31.0576L42.2604 41.1201Z" fill="#DE756D"/>
<path id="Vector_27" d="M46.2007 26.964C49.6818 26.964 52.5039 24.1441 52.5039 20.6655C52.5039 17.1869 49.6818 14.3669 46.2007 14.3669C42.7195 14.3669 39.8975 17.1869 39.8975 20.6655C39.8975 24.1441 42.7195 26.964 46.2007 26.964Z" fill="#FFB8B8"/>
<path id="Vector_28" d="M53.7414 19.8707C47.5006 20.4815 42.7453 19.4616 39.7061 16.5576L39.7061 14.219L53.2117 14.219L53.7414 19.8707Z" fill="#2F2E41"/>
</g>
<defs>
<clipPath id="clip0">
<rect width="210" height="146" fill="white" transform="translate(0.513184 0.000488281)"/>
</clipPath>
</defs>
</svg>
