<svg width="238" height="194" viewBox="0 0 238 194" fill="none" xmlns="http://www.w3.org/2000/svg">
<g id="undraw_studying_s3l7 1" clip-path="url(#clip0)">
<path id="Vector" opacity="0.1" d="M233.629 86.3876C233.586 86.6629 233.544 86.9381 233.497 87.2133C231.98 96.5864 229.502 105.623 225.819 113.919C225.698 114.195 225.575 114.47 225.45 114.745C223.086 119.976 220.184 124.893 216.799 129.397C214.964 131.827 212.964 134.135 210.585 135.801C207.251 138.136 203.353 139.084 199.522 139.861C195.541 140.67 191.509 141.336 187.485 142.073C186.059 142.328 184.642 142.596 183.234 142.876C179.347 143.648 175.489 144.54 171.723 145.722C167.067 147.197 162.549 149.096 158.297 151.787C157.957 152 157.621 152.219 157.288 152.444C156.954 152.665 156.617 152.891 156.292 153.122C155.968 153.353 155.641 153.581 155.319 153.815L154.822 154.184C154.659 154.301 154.497 154.429 154.336 154.547C153.857 154.906 153.385 155.285 152.913 155.648L152.895 155.663C152.584 155.909 152.275 156.154 151.967 156.4C150.223 157.818 148.518 159.303 146.82 160.792L145.748 161.733C145.195 162.215 144.641 162.696 144.088 163.176C143.763 163.458 143.434 163.738 143.108 164.019C142.87 164.223 142.635 164.427 142.394 164.628C141.183 165.653 139.957 166.656 138.706 167.614C138.408 167.842 138.106 168.071 137.811 168.295C135.307 170.176 132.644 171.787 129.858 173.107L129.822 173.124C128.45 173.766 127.039 174.301 125.598 174.724C124.772 174.969 123.946 175.163 123.109 175.316C120.88 175.739 118.604 175.782 116.363 175.444C111.957 174.758 107.828 172.495 103.433 171.738C94.3664 170.192 85.5611 175.178 77.0288 179.093C74.9403 180.053 72.8286 180.954 70.6939 181.796C69.2797 182.357 67.8587 182.89 66.4311 183.396C57.7335 186.486 48.7713 188.591 39.684 189.68C35.9739 190.125 32.105 190.336 28.3278 190.017C26.9014 189.902 25.482 189.699 24.0762 189.41C19.2942 188.427 14.8301 186.34 11.2341 182.529C8.24678 179.41 6.13888 175.333 4.53222 171.079C3.88628 169.37 3.31716 167.622 2.82487 165.835C2.05108 163.033 1.46989 160.172 1.08619 157.275C0.998918 156.621 0.920599 155.965 0.862419 155.309C0.74606 154.184 0.659535 153.053 0.602847 151.918C0.289544 145.883 0.826194 139.832 2.19384 133.978C3.71771 127.492 6.25972 121.282 7.37856 114.735C7.42555 114.46 7.46807 114.185 7.51058 113.91C7.65976 112.926 7.77314 111.925 7.85071 110.906C8.41461 102.9 6.23287 95.0627 4.50985 87.2133C4.44943 86.9381 4.38901 86.6628 4.33083 86.3876C4.14436 85.5176 3.96758 84.6469 3.8005 83.7752C2.20503 75.4737 1.76868 66.5897 3.18514 58.3054C3.22989 58.0302 3.28136 57.7524 3.33283 57.4797C4.28832 52.3483 5.97553 47.4677 8.56006 43.1203C11.2117 38.6574 14.6936 34.9441 18.4059 31.6805C20.2184 30.0913 22.0928 28.6045 24.0292 27.2201C25.421 26.2272 26.8382 25.2876 28.2808 24.4013C39.9369 17.2744 53.2355 13.7921 66.3841 14.5712C67.0808 14.6105 67.7759 14.6629 68.4696 14.7284C69.1976 14.7973 69.9234 14.8792 70.6469 14.9742C79.1121 16.0481 87.349 18.7096 95.5367 21.6218C98.2801 22.6048 101.017 23.5878 103.753 24.5709C104.971 25.0067 106.187 25.4367 107.403 25.8611C113.367 27.9278 119.428 29.7931 125.546 31.1988C126.965 31.5265 128.382 31.8255 129.798 32.0958C134.72 33.0641 139.7 33.6276 144.699 33.7817C146.638 33.8341 148.577 33.812 150.517 33.7153C151.497 33.6662 152.478 33.5941 153.459 33.4991C163.598 32.5455 173.375 29.3483 183.191 26.3452C184.61 25.9102 186.031 25.4777 187.443 25.0599C189.309 24.5094 191.178 23.9761 193.053 23.4846C204.729 20.4053 215.134 22.1748 225.989 28.525C228.451 29.9676 230.912 31.7075 232.434 34.401C233.955 37.0944 234.325 40.4293 234.607 43.6388C235.005 48.2049 235.278 52.8349 235.365 57.4846C235.365 57.7598 235.365 58.0351 235.381 58.3103C235.578 67.7251 235.056 77.2112 233.629 86.3876Z" fill="#DE756D"/>
<path id="Vector_2" opacity="0.1" d="M156.185 113.92L155.422 113.92L155.422 114.286L155.422 114.745L156.285 114.745L156.185 113.92ZM147.536 113.92C147.535 113.926 147.535 113.933 147.536 113.939L147.469 114.622L147.469 114.684L147.469 114.745L154.093 114.745L154.093 114.696L154.565 113.92L147.536 113.92ZM129.825 113.92L129.825 87.2135L137.433 87.2135C137.352 87.1398 137.27 87.0661 137.185 86.9973L137.073 86.9039C137.026 86.8621 136.979 86.8228 136.929 86.7859C136.88 86.7491 136.764 86.6557 136.677 86.5918C136.589 86.5279 136.536 86.4861 136.453 86.4345L136.401 86.3976L136.39 86.3976L129.825 86.3976L129.825 84.9354L129.648 85.0288L129.46 85.1443L129.447 85.1443L129.406 85.1713L129.29 85.2549C129.25 85.2819 129.209 85.3089 129.171 85.3384C129.055 85.4244 128.948 85.5178 128.825 85.6137L128.713 85.712C128.637 85.7759 128.565 85.8422 128.489 85.9086C128.191 86.1764 127.898 86.4566 127.594 86.7147C127.518 86.781 127.442 86.8449 127.37 86.9063C127.207 87.0372 127.039 87.1586 126.864 87.2701C126.792 87.3194 126.717 87.3646 126.641 87.4052L126.515 87.4691L126.401 87.5232C126.132 87.6477 125.854 87.7448 125.569 87.8132L125.569 113.92L114.157 113.92C114.157 113.949 114.172 113.976 114.179 114.006C114.242 114.251 114.304 114.497 114.365 114.743L125.571 114.743L125.571 143.371L125.745 143.371L125.945 143.385L126.307 143.415L126.893 143.479L127.157 143.513L127.448 143.552L127.491 143.552C127.659 143.577 127.829 143.607 128.001 143.636L128.111 143.656L128.357 143.7L128.71 143.769L129.559 143.72L129.675 143.747C129.722 143.747 129.769 143.766 129.818 143.779L129.818 114.745L147.453 114.745L147.453 114.684L147.453 114.622L147.52 113.939C147.519 113.933 147.519 113.926 147.52 113.92L129.825 113.92ZM156.185 113.92L155.422 113.92L155.422 114.286L155.422 114.745L156.285 114.745L156.185 113.92ZM147.059 113.92L146.983 114.745L154.352 114.745L154.853 113.92L147.059 113.92ZM129.829 113.92L129.829 87.2135L137.437 87.2135C137.357 87.1398 137.274 87.0661 137.189 86.9973L137.077 86.9039C137.03 86.8621 136.983 86.8228 136.934 86.7859C136.885 86.7491 136.768 86.6557 136.681 86.5918C136.594 86.5279 136.54 86.4861 136.457 86.4345L136.406 86.3976L136.39 86.3976L129.825 86.3976L129.825 84.9354L129.648 85.0288L129.46 85.1443L129.447 85.1443L129.406 85.1713L129.29 85.2549C129.25 85.2819 129.209 85.3089 129.171 85.3384C129.055 85.4244 128.948 85.5178 128.825 85.6137L128.713 85.712C128.637 85.7759 128.565 85.8422 128.489 85.9086C128.191 86.1764 127.898 86.4566 127.594 86.7147C127.518 86.781 127.442 86.8449 127.37 86.9063C127.207 87.0372 127.039 87.1586 126.864 87.2701C126.792 87.3194 126.717 87.3646 126.641 87.4052L126.515 87.4691L126.401 87.5232C126.132 87.6477 125.854 87.7448 125.569 87.8132L125.569 113.92L114.157 113.92C114.157 113.949 114.172 113.976 114.179 114.006C114.242 114.251 114.306 114.497 114.367 114.743L125.571 114.743L125.571 143.368L125.745 143.38L125.945 143.395L126.307 143.425L126.893 143.489L127.157 143.523L127.448 143.562L127.491 143.562C127.659 143.587 127.829 143.616 128.001 143.646L128.111 143.665L128.357 143.71L128.71 143.779L129.559 143.729L129.675 143.756C129.722 143.756 129.769 143.776 129.818 143.788L129.818 114.745L146.983 114.745L147.064 113.92L129.829 113.92ZM187.485 58.3056L235.423 58.3056C235.423 58.0303 235.423 57.7551 235.408 57.4799L187.485 57.4799L187.485 25.0552C186.062 25.473 184.641 25.9055 183.234 26.3405L183.234 57.4799L131.096 57.4799L130.964 57.3226L131.163 57.0768L150.555 33.7032C148.615 33.8015 146.676 33.8237 144.737 33.7696L129.825 51.7341L129.825 32.0911C128.402 31.8208 126.984 31.5218 125.573 31.1941L125.573 50.8298L103.771 24.5661C101.035 23.5831 98.298 22.5829 95.5546 21.6171L125.188 57.3226L125.056 57.4799L70.6649 57.4799L70.6649 14.9646C69.9399 14.8744 69.2141 14.7925 68.4876 14.7188C67.7939 14.6516 67.0987 14.5992 66.4021 14.5615L66.4021 57.4799L28.2988 57.4799L28.2988 24.4015C26.8532 25.2862 25.436 26.2258 24.0472 27.2203L24.0472 57.4799L3.32396 57.4799C3.27249 57.7526 3.22102 58.0303 3.17627 58.3056L24.0293 58.3056L24.0293 86.3878L4.33092 86.3878C4.3891 86.663 4.44951 86.9383 4.50993 87.2135L24.0382 87.2135L24.0382 113.92L7.50395 113.92C7.46144 114.195 7.41892 114.47 7.37193 114.745L24.0382 114.745L24.0382 189.417C25.444 189.707 26.8634 189.909 28.2898 190.024L28.2898 114.745L66.4021 114.745L66.4021 183.404C67.8312 182.894 69.2521 182.361 70.6649 181.804L70.6649 114.745L125.564 114.745L125.564 174.734C127.005 174.311 128.417 173.776 129.789 173.134L129.825 173.117L129.825 114.745L183.22 114.745L183.22 142.877C184.636 142.596 186.053 142.329 187.472 142.073L187.472 114.745L225.439 114.745C225.564 114.47 225.687 114.195 225.808 113.92L187.485 113.92L187.485 87.2135L233.499 87.2135C233.546 86.9383 233.589 86.663 233.631 86.3878L187.485 86.3878L187.485 58.3056ZM28.301 58.3056L66.4021 58.3056L66.4021 86.3878L28.2988 86.3878L28.301 58.3056ZM28.301 113.92L28.301 87.2135L66.4021 87.2135L66.4021 113.92L28.301 113.92ZM70.6671 58.3056L125.564 58.3056L125.564 86.3878L70.6649 86.3878L70.6671 58.3056ZM70.6671 113.92L70.6671 87.2135L125.564 87.2135L125.564 113.92L70.6671 113.92ZM183.223 113.92L129.825 113.92L129.825 87.2135L183.22 87.2135L183.223 113.92ZM183.223 86.3952L129.825 86.3952L129.825 59.0576L130.574 58.3056L183.22 58.3056L183.223 86.3952ZM147.538 113.92C147.537 113.926 147.537 113.933 147.538 113.939L147.471 114.622L147.471 114.684L147.471 114.745L154.095 114.745L154.095 114.696L154.567 113.92L147.538 113.92ZM156.187 113.92L155.424 113.92L155.424 114.286L155.424 114.745L156.288 114.745L156.187 113.92ZM129.827 113.92L129.827 87.2135L137.435 87.2135C137.355 87.1398 137.272 87.0661 137.187 86.9973L137.075 86.9039C137.028 86.8621 136.981 86.8228 136.932 86.7859C136.882 86.7491 136.766 86.6557 136.679 86.5918C136.592 86.5279 136.538 86.4861 136.455 86.4345L136.404 86.3976L136.392 86.3976L129.825 86.3976L129.825 84.9354L129.648 85.0288L129.46 85.1443L129.447 85.1443L129.406 85.1713L129.29 85.2549C129.25 85.2819 129.209 85.3089 129.171 85.3384C129.055 85.4244 128.948 85.5178 128.825 85.6137L128.713 85.712C128.637 85.7759 128.565 85.8422 128.489 85.9086C128.191 86.1764 127.898 86.4566 127.594 86.7147C127.518 86.781 127.442 86.8449 127.37 86.9063C127.207 87.0372 127.039 87.1586 126.864 87.2701C126.792 87.3194 126.717 87.3646 126.641 87.4052L126.515 87.4691L126.401 87.5232C126.132 87.6477 125.854 87.7448 125.569 87.8132L125.569 113.92L114.157 113.92C114.157 113.949 114.172 113.976 114.179 114.006C114.242 114.251 114.304 114.497 114.365 114.743L125.571 114.743L125.571 143.371L125.745 143.371L125.945 143.385L126.307 143.415L126.893 143.479L127.157 143.513L127.448 143.552L127.491 143.552C127.659 143.577 127.829 143.607 128.001 143.636L128.111 143.656L128.357 143.7L128.71 143.769L129.559 143.72L129.675 143.747C129.722 143.747 129.769 143.766 129.818 143.779L129.818 114.745L147.453 114.745L147.453 114.684L147.453 114.622L147.52 113.939C147.519 113.933 147.519 113.926 147.52 113.92L129.827 113.92Z" fill="#DE756D"/>
<path id="Vector_3" opacity="0.1" d="M46.6182 38.9695L46.9584 38.9695C46.842 38.8955 46.7441 38.7911 46.6734 38.6654C46.6027 38.5398 46.5615 38.3969 46.5533 38.2495C46.5533 37.6793 47.1889 37.2148 47.9653 37.2148L57.8447 37.2148C58.6212 37.2148 59.2567 37.6793 59.2567 38.2495C59.2567 38.8172 58.6212 39.2841 57.8447 39.2841L57.5158 39.2841C57.6316 39.3585 57.729 39.4632 57.7992 39.5888C57.8695 39.7143 57.9105 39.857 57.9186 40.0041C57.9186 40.4956 57.4576 40.8987 56.84 41.0093L59.6841 41.0093C60.4583 41.0093 61.0938 41.4737 61.0938 42.0439C61.0938 42.614 60.4583 43.0761 59.6841 43.0761L49.7935 43.0761C49.0193 43.0761 48.3838 42.6116 48.3838 42.0439C48.3838 41.5524 48.8447 41.1494 49.4623 41.0388L46.6182 41.0388C45.844 41.0388 45.2085 40.5743 45.2085 40.0041C45.2085 39.434 45.8395 38.9695 46.6182 38.9695Z" fill="#DE756D"/>
<path id="Vector_4" opacity="0.1" d="M153.696 48.8169L154.028 48.8169C153.911 48.7426 153.813 48.6377 153.742 48.5116C153.672 48.3855 153.63 48.2422 153.623 48.0944C153.623 47.5267 154.258 47.0623 155.034 47.0623L164.914 47.0623C165.69 47.0623 166.326 47.5267 166.326 48.0944C166.326 48.6646 165.69 49.129 164.914 49.129L164.585 49.129C164.701 49.2039 164.798 49.3089 164.869 49.435C164.939 49.561 164.98 49.7041 164.988 49.8516C164.988 50.3431 164.527 50.7436 163.909 50.8542L166.753 50.8542C167.527 50.8542 168.163 51.3212 168.163 51.8889C168.163 52.4565 167.527 52.9235 166.753 52.9235L156.876 52.9235C156.102 52.9235 155.466 52.459 155.466 51.8889C155.466 51.3973 155.927 50.9943 156.545 50.8862L153.696 50.8862C152.922 50.8862 152.287 50.4193 152.287 49.8516C152.287 49.2839 152.927 48.8169 153.696 48.8169Z" fill="#DE756D"/>
<path id="Vector_5" opacity="0.1" d="M31.4625 90.9561L31.7937 90.9561C31.6776 90.8813 31.5802 90.7762 31.51 90.6502C31.4397 90.5242 31.3988 90.3811 31.3909 90.2336C31.3909 89.6659 32.0241 89.199 32.8006 89.199L42.68 89.199C43.4565 89.199 44.092 89.6659 44.092 90.2336C44.092 90.8037 43.4565 91.2682 42.68 91.2682L42.3511 91.2682C42.4671 91.3431 42.5645 91.4481 42.6347 91.5741C42.705 91.7002 42.7459 91.8432 42.7538 91.9907C42.7538 92.4822 42.2929 92.8828 41.6753 92.9934L44.5194 92.9934C45.2958 92.9934 45.9291 93.4579 45.9291 94.028C45.9291 94.5982 45.2958 95.0626 44.5194 95.0626L34.6378 95.0626C33.8635 95.0626 33.228 94.5957 33.228 94.028C33.228 93.5365 33.6912 93.1335 34.3066 93.0229L31.4625 93.0229C30.6882 93.0229 30.0527 92.5584 30.0527 91.9907C30.0527 91.423 30.6882 90.9561 31.4625 90.9561Z" fill="#DE756D"/>
<path id="Vector_6" d="M145.721 161.743C145.168 162.225 144.614 162.705 144.061 163.185C143.736 163.468 143.407 163.748 143.081 164.028C142.843 164.232 142.608 164.436 142.367 164.638C141.156 165.663 139.93 166.665 138.679 167.624C138.381 167.852 138.079 168.081 137.784 168.305C135.28 170.185 132.617 171.797 129.831 173.116L129.795 173.134L129.795 161.743L145.721 161.743Z" fill="#65617D"/>
<path id="Vector_7" d="M170.622 116.977L170.872 108.486C170.722 108.358 170.57 108.24 170.425 108.122C170.487 105.591 170.355 103.058 170.031 100.55C169.02 92.0597 162.452 91.8753 160.599 93.6276C160.354 93.8603 160.086 94.063 159.8 94.2321C159.968 93.0206 160.176 91.8065 160.326 90.6073C161.136 84.139 159.879 76.8623 155.309 72.682C153.396 70.9347 151.058 69.8608 148.957 68.3985C145.193 65.7911 142.219 61.9401 138.413 59.4015C134.606 56.8629 129.26 55.9118 125.94 59.1754C124.653 60.4386 123.823 62.1908 122.503 63.4098C120.041 65.6805 116.204 65.8304 114.055 68.3666C113.948 68.4944 113.845 68.6246 113.747 68.7623C111.956 71.2837 112.446 74.8594 113.017 77.9878C113.704 81.7528 113.42 84.7706 116.36 85.8519C116.371 86.0018 116.38 86.1517 116.396 86.2992C116.635 88.6088 117.331 90.8331 118.435 92.8163C119.539 94.7996 121.024 96.494 122.787 97.7808L122.31 97.9676C121.039 98.4591 119.896 98.9358 119.164 99.2627C116.479 100.464 110.826 102.03 110.826 102.03C110.826 102.03 110.692 103.799 110.717 106.409C108.833 108.658 105.689 112.61 104.764 114.952C103.422 118.368 95.8361 128.151 93.8155 129.628C91.7948 131.105 89.6042 132.857 89.6042 132.857C89.6042 132.857 86.4043 134.796 84.8894 134.98C83.8399 135.108 80.593 134.425 80.593 134.425C80.593 134.425 67.6256 116.977 68.467 130.365C69.3083 143.754 79.6666 144.208 79.6666 144.208L90.1099 144.024C90.1099 144.024 95.7533 144.855 98.2797 142.55C100.437 140.584 111.616 129.797 115.208 124.905C115.291 125.005 115.373 125.104 115.461 125.199C115.461 125.199 116.89 123.17 117.061 125.199C117.231 127.229 116.132 128.148 116.723 128.886C117.313 129.623 119.081 132.208 119.164 133.223C119.247 134.238 116.808 138.384 120.932 141.53C120.997 141.579 121.066 141.626 121.142 141.672C121.878 143.513 124.219 145.314 124.219 145.314L136.851 145.13L160.684 147.16C160.684 147.16 161.394 146.474 162.354 145.354C163.636 146.646 165.415 147.755 167.42 147.074C167.42 147.074 170.284 143.292 170.369 140.8C170.369 140.8 168.516 135.538 167.684 133.97C166.851 132.402 168.274 128.987 168.274 128.987C168.274 128.987 169.284 125.664 169.874 125.664C170.465 125.664 170.042 123.452 170.042 123.452C169.819 123.091 169.679 122.675 169.635 122.241C169.591 121.806 169.644 121.367 169.789 120.96C170.284 119.562 170.622 116.977 170.622 116.977Z" fill="url(#paint0_linear)"/>
<path id="Vector_8" d="M156.334 115.064L155.439 116.215L151.823 120.84L147.099 121.154L139.538 121.665C139.538 121.665 129.343 108.174 131.259 105.237C131.955 104.178 132.069 102.779 131.93 101.46C131.912 101.278 131.887 101.096 131.858 100.916C131.629 99.5201 131.229 98.1643 130.668 96.8861L130.919 96.7607L131.08 96.6796L139.995 92.2118L142.201 91.106C142.311 91.7738 142.515 92.4189 142.805 93.0179C142.848 93.1113 142.895 93.2047 142.944 93.2932C145.985 98.8226 155.737 95.3255 155.737 95.3255L156.334 115.064Z" fill="#EE8E9E"/>
<path id="Vector_9" d="M169.516 108.161C169.449 111.509 168.953 112.954 168.953 112.954L156.334 115.065L155.862 111.467L153.994 97.2599L155.748 95.3332C156.449 95.4992 157.175 95.4863 157.871 95.2954C158.566 95.1045 159.213 94.7408 159.76 94.2322C161.597 92.4874 168.116 92.6717 169.118 101.113C169.413 103.448 169.546 105.804 169.516 108.161Z" fill="#EE8E9E"/>
<path id="Vector_10" d="M166.529 147.366C166.529 147.366 169.369 143.604 169.454 141.127L166.612 135.895L164.106 132.946L159.425 142.869C159.425 142.869 162.517 148.743 166.529 147.366Z" fill="#DFE5EE"/>
<path id="Vector_11" opacity="0.1" d="M166.529 147.366C166.529 147.366 169.369 143.604 169.454 141.127L166.612 135.895L164.106 132.946L159.425 142.869C159.425 142.869 162.517 148.743 166.529 147.366Z" fill="black"/>
<path id="Vector_12" d="M143.081 164.028C142.843 164.232 142.609 164.436 142.367 164.638C141.156 165.663 139.93 166.665 138.679 167.624C138.382 167.852 138.079 168.081 137.784 168.305L125.564 168.305L70.6647 168.305L66.4019 168.305L45.2826 167.474L28.2986 167.317L24.047 167.071L2.83371 165.842C2.05656 163.039 1.47237 160.175 1.08607 157.275C0.998804 156.621 0.920485 155.965 0.862305 155.309L24.038 156.72L28.2896 156.983L66.3929 159.317L70.6557 159.578L125.555 162.945L129.78 163.205L129.816 163.205L143.081 164.028Z" fill="#D48A9B"/>
<path id="Vector_13" d="M171.709 145.722C167.053 147.197 162.535 149.097 158.283 151.787C157.945 152.001 157.612 152.22 157.274 152.444C156.936 152.667 156.603 152.891 156.278 153.122C155.954 153.353 155.627 153.581 155.305 153.815L154.808 154.184L154.323 154.547C153.844 154.909 153.372 155.285 152.899 155.648L152.882 155.663C152.57 155.909 152.262 156.155 151.953 156.4C150.21 157.818 148.505 159.303 146.806 160.792C146.448 161.106 146.089 161.42 145.73 161.733L144.074 163.176C143.75 163.458 143.421 163.738 143.094 164.019C142.857 164.223 142.622 164.427 142.38 164.628L129.849 163.972L129.813 163.972L125.588 163.756L70.6645 160.898L66.4017 160.674L28.2984 158.686L24.0468 158.462L1.08588 157.275C0.99861 156.621 0.920291 155.965 0.862111 155.309C0.745752 154.184 0.659227 153.053 0.602539 151.918L24.0445 142.825L28.2961 141.171L32.1584 139.672L39.1959 140.075L55.4616 140.992L66.4084 141.623L70.6712 141.869L73.3945 142.026L74.0456 142.066L96.964 143.38L97.2057 143.397L107.432 143.982L107.548 143.982L107.615 143.982L108.638 144.039L112.124 144.24L116.483 144.486L117.92 144.57L118.191 144.587L120.222 144.702L120.802 144.734L122.742 144.847L123.514 144.894L123.539 144.894L123.7 144.894L125.515 145L128.325 145.162L128.339 145.162L129.211 145.211L129.305 145.211L129.827 145.243L131.107 145.317L132.225 145.381L132.237 145.381L133.492 145.452L133.512 145.452L134.463 145.509L135.193 145.55L137.782 145.7L138.247 145.727L138.408 145.727L138.632 145.742L139.391 145.786L139.731 145.806L142.371 145.956L142.613 145.956L146.511 145.919L146.538 145.919L161.358 145.786L161.642 145.786L161.942 145.786L162.824 145.786L167.594 145.744L168.306 145.744L171.709 145.722Z" fill="#EFC6CD"/>
<path id="Vector_14" d="M71.6875 146.059L73.0659 154.112L110.543 153.493C110.543 153.493 113.362 154.387 113.299 151.91C113.299 151.91 119.003 145.99 147.894 152.874L136.802 143.306L106.481 145.095L71.3228 144.063L71.6875 146.059Z" fill="#DE756D"/>
<path id="Vector_15" d="M72.3765 144.132L73.6922 152.874C73.6922 152.874 105.915 151.842 110.981 152.805L107.152 144.82C107.152 144.82 87.6688 142.825 72.3765 144.132Z" fill="white"/>
<path id="Vector_16" opacity="0.1" d="M72.3765 144.132L73.6922 152.874C73.6922 152.874 105.915 151.842 110.981 152.805L107.152 144.82C107.152 144.82 87.6688 142.825 72.3765 144.132Z" fill="black"/>
<path id="Vector_17" d="M72.8574 144.1L74.1553 152.23C74.1553 152.23 105.968 151.271 110.981 152.166L107.206 144.742C107.206 144.742 87.9573 142.884 72.8574 144.1Z" fill="white"/>
<path id="Vector_18" opacity="0.1" d="M73.4414 144.351L74.7057 151.954C74.7057 151.954 105.821 151.057 110.732 151.895L107.04 144.948C107.04 144.948 88.2124 143.203 73.4414 144.351Z" fill="black"/>
<path id="Vector_19" d="M73.6924 144.073L74.9634 151.691C74.9634 151.691 106.078 150.795 110.99 151.633L107.289 144.678C107.289 144.678 88.4634 142.935 73.6924 144.073Z" fill="white"/>
<path id="Vector_20" d="M51.6781 123.398C51.6781 123.398 53.3071 125.735 50.9284 129.267C48.5498 132.798 46.5851 135.777 47.3795 137.979C47.3795 137.979 50.9598 131.422 53.8911 131.343C56.8225 131.265 54.8936 127.34 51.6781 123.398Z" fill="#DE756D"/>
<path id="Vector_21" opacity="0.1" d="M51.6779 123.398C51.821 123.625 51.9333 123.873 52.0113 124.135C54.8621 127.822 56.3815 131.262 53.6403 131.336C51.0871 131.415 48.026 136.428 47.292 137.696C47.3174 137.791 47.3464 137.887 47.3793 137.984C47.3793 137.984 50.9596 131.427 53.8909 131.348C56.8223 131.27 54.8934 127.34 51.6779 123.398Z" fill="black"/>
<path id="Vector_22" d="M54.7055 126.379C54.7055 127.2 54.6205 127.868 54.5176 127.868C54.4146 127.868 54.3296 127.2 54.3296 126.379C54.3296 125.558 54.4348 125.942 54.5377 125.942C54.6406 125.942 54.7055 125.556 54.7055 126.379Z" fill="#FFD037"/>
<path id="Vector_23" d="M55.7438 127.36C55.0859 127.755 54.513 127.994 54.4638 127.893C54.4146 127.792 54.9113 127.401 55.5648 126.998C56.2182 126.595 55.9631 126.89 56.0123 126.998C56.0615 127.107 56.4017 126.966 55.7438 127.36Z" fill="#FFD037"/>
<path id="Vector_24" d="M43.0786 123.398C43.0786 123.398 41.4496 125.735 43.8305 129.267C46.2114 132.798 48.1716 135.777 47.3795 137.979C47.3795 137.979 43.788 131.422 40.8656 131.343C37.9432 131.265 39.8631 127.34 43.0786 123.398Z" fill="#DE756D"/>
<path id="Vector_25" opacity="0.1" d="M43.0787 123.398C42.9367 123.626 42.8244 123.874 42.7452 124.135C39.8944 127.822 38.375 131.262 41.1162 131.336C43.6694 131.415 46.7328 136.428 47.4668 137.696C47.4429 137.791 47.4138 137.887 47.3795 137.984C47.3795 137.984 43.788 131.427 40.8656 131.348C37.9432 131.27 39.8631 127.34 43.0787 123.398Z" fill="black"/>
<path id="Vector_26" d="M40.0508 126.379C40.0508 127.2 40.1358 127.868 40.2387 127.868C40.3417 127.868 40.4267 127.2 40.4267 126.379C40.4267 125.558 40.3215 125.942 40.2186 125.942C40.1157 125.942 40.0508 125.556 40.0508 126.379Z" fill="#FFD037"/>
<path id="Vector_27" d="M39.0128 127.36C39.6707 127.755 40.2458 127.994 40.295 127.893C40.3442 127.792 39.8475 127.401 39.1941 126.998C38.5407 126.595 38.7958 126.89 38.7465 126.998C38.6973 127.107 38.3549 126.966 39.0128 127.36Z" fill="#FFD037"/>
<path id="Vector_28" d="M56.1334 134.826L56.0528 135.563L55.9387 136.593L55.8917 137.023L55.7776 138.055L55.7284 138.485L55.612 139.517L54.3097 151.245C54.1933 152.291 52.6359 153.107 50.7562 153.107L43.994 153.107C42.1143 153.107 40.5591 152.291 40.4428 151.245L39.1382 139.517L39.0241 138.485L38.9771 138.055L38.8607 137.023L38.8137 136.593L38.6996 135.563L38.6168 134.826C38.5519 134.233 39.3933 133.735 40.4584 133.735L54.3007 133.735C55.3636 133.735 56.2072 134.233 56.1334 134.826Z" fill="#65617D"/>
<path id="Vector_29" d="M56.0592 135.555L55.9451 136.588L38.8133 136.588L38.6992 135.555L56.0592 135.555Z" fill="#9D9CB5"/>
<path id="Vector_30" d="M55.8981 137.018L55.784 138.05L38.9767 138.05L38.8604 137.018L55.8981 137.018Z" fill="#9D9CB5"/>
<path id="Vector_31" d="M55.7345 138.48L55.6204 139.51L39.1376 139.51L39.0234 138.48L55.7345 138.48Z" fill="#9D9CB5"/>
<path id="Vector_32" d="M76.7846 133.877C76.7846 133.877 72.439 129.289 72.6068 135.253C72.7746 141.218 76.7846 133.877 76.7846 133.877Z" fill="#EE8E9E"/>
<path id="Vector_33" d="M115.808 123.415C115.712 123.877 115.244 124.644 114.514 125.605C110.746 130.589 100.025 140.947 97.9243 142.869C95.4181 145.164 89.8194 144.344 89.8194 144.344L79.4589 144.528C79.4589 144.528 69.1812 144.068 68.3443 130.766C67.5074 117.463 80.3763 134.803 80.3763 134.803C80.3763 134.803 83.5986 135.482 84.6391 135.354C86.1428 135.172 89.3181 133.245 89.3181 133.245C89.3181 133.245 91.4909 131.501 93.4959 130.033C95.5008 128.566 103.022 118.837 104.36 115.441C105.208 113.285 107.94 109.761 109.827 107.476C110.91 106.161 111.713 105.264 111.713 105.264C111.713 105.264 116.392 120.569 115.808 123.415Z" fill="#EE8E9E"/>
<path id="Vector_34" opacity="0.1" d="M115.808 123.415C115.711 123.877 115.244 124.644 114.514 125.605C110.71 121.351 109.916 112.863 109.826 107.466C110.909 106.151 111.713 105.254 111.713 105.254C111.713 105.254 116.392 120.569 115.808 123.415Z" fill="black"/>
<path id="Vector_35" opacity="0.1" d="M155.437 116.215L151.823 120.84L147.099 121.154L139.538 121.666C139.538 121.666 129.343 108.174 131.259 105.237C131.955 104.178 132.069 102.78 131.93 101.46C131.912 101.278 131.887 101.096 131.858 100.917C131.629 99.5204 131.229 98.1646 130.668 96.8864L130.919 96.761L131.08 96.6799C131.478 97.8973 131.752 99.159 131.899 100.442C131.923 100.617 131.946 100.799 131.968 100.986C132.046 101.649 132.118 102.386 132.192 103.197C132.774 110.624 137.027 113.418 138.947 114.308C139.565 114.594 140.168 114.914 140.755 115.269C142.603 116.387 144.733 116.81 146.82 116.473C151.559 115.79 155.423 112.008 155.423 112.008L155.444 115.731L155.437 116.215Z" fill="black"/>
<path id="Vector_36" d="M155.582 145.074C155.582 145.074 124.499 144.98 120.401 141.862C116.304 138.743 118.732 134.612 118.647 133.602C118.562 132.592 116.81 130.024 116.226 129.286C115.642 128.549 116.727 127.635 116.559 125.617C116.392 123.6 114.973 125.617 114.973 125.617C109.121 119.1 110.374 102.583 110.374 102.583C110.374 102.583 115.969 101.025 118.654 99.828C119.381 99.5036 120.513 99.0416 121.787 98.5427L122.259 98.3559C125.541 97.0657 129.444 95.6084 129.444 95.6084C129.444 95.6084 130.194 95.026 130.948 96.7684C131.292 97.5695 131.639 98.8597 131.917 100.922C131.941 101.096 131.964 101.278 131.986 101.465C132.064 102.128 132.136 102.865 132.21 103.676C132.792 111.103 137.045 113.897 138.965 114.787C139.583 115.073 140.186 115.394 140.773 115.748C142.62 116.867 144.751 117.29 146.837 116.952C151.577 116.269 155.441 112.487 155.441 112.487L155.462 116.21L155.52 127.397L155.582 145.074Z" fill="#DFE5EE"/>
<path id="Vector_37" d="M154.245 130.574L153.743 134.061C153.743 134.061 141.376 137.455 136.531 138.465C131.686 139.475 121.239 138.19 120.487 140.392C119.735 142.594 123.662 145.624 123.662 145.624L136.193 145.44L159.841 147.46C159.841 147.46 168.866 138.74 165.941 132.683C163.016 126.625 154.245 130.574 154.245 130.574Z" fill="#EE8E9E"/>
<path id="Vector_38" opacity="0.1" d="M128.759 103.042C128.759 103.042 123.076 108.181 124.163 110.661C125.251 113.14 128.759 103.042 128.759 103.042Z" fill="black"/>
<path id="Vector_39" opacity="0.1" d="M121.74 112.31C121.74 112.31 115.973 123.231 116.309 124.057C116.645 124.882 118.231 127.819 118.146 125.617C118.061 123.415 121.74 112.31 121.74 112.31Z" fill="black"/>
<path id="Vector_40" opacity="0.1" d="M124.08 114.239C124.08 114.239 122.738 121.029 121.406 123.875C120.075 126.721 124.08 114.239 124.08 114.239Z" fill="black"/>
<path id="Vector_41" opacity="0.1" d="M142.955 93.3007C141.85 95.5259 140.276 97.4282 138.365 98.8485C136.453 100.269 134.26 101.166 131.968 101.465L131.942 101.465C128.336 101.93 124.704 100.885 121.769 98.5402C125.126 97.2082 129.426 95.6059 129.426 95.6059C129.426 95.6059 130.176 95.0235 130.93 96.7659L142.213 91.1135C142.339 91.8855 142.591 92.6262 142.955 93.3007Z" fill="black"/>
<path id="Vector_42" d="M144.719 85.1466C144.723 87.9103 144.067 90.627 142.817 93.0254C142.219 94.1692 141.495 95.2274 140.662 96.176C138.335 98.8359 135.236 100.519 131.899 100.934L131.87 100.934C131.336 101.001 130.8 101.035 130.263 101.035C126.711 101.035 123.284 99.5986 120.635 97.0004C117.985 94.4023 116.3 90.8239 115.899 86.9479C115.837 86.3532 115.807 85.755 115.808 85.1564C115.808 80.9459 117.331 76.9079 120.042 73.9306C122.752 70.9534 126.429 69.2808 130.263 69.2808C134.097 69.2808 137.774 70.9534 140.485 73.9306C143.196 76.9079 144.719 80.9459 144.719 85.1564L144.719 85.1466Z" fill="#EE8E9E"/>
<path id="Vector_43" opacity="0.1" d="M154.079 115.188L155.422 112.976C155.422 112.976 162.775 103.34 169.967 109.489L169.716 117.933C169.716 117.933 169.38 120.501 168.879 121.865C168.735 122.269 168.683 122.706 168.726 123.138C168.77 123.57 168.908 123.984 169.13 124.344C169.13 124.344 169.548 126.556 168.964 126.556C168.38 126.556 167.375 129.859 167.375 129.859C167.375 129.859 165.954 133.255 166.791 134.816C167.628 136.376 169.465 141.606 169.465 141.606C169.465 141.606 166.541 139.679 165.704 136.467C165.704 136.467 158.601 130.409 153.085 134.256L154.079 115.188Z" fill="black"/>
<path id="Vector_44" opacity="0.1" d="M169.517 108.161C169.45 111.509 168.953 112.954 168.953 112.954L156.334 115.065L155.862 111.467C157.514 109.574 163.52 103.558 169.517 108.161Z" fill="black"/>
<path id="Vector_45" d="M154.079 114.696L155.422 112.484C155.422 112.484 162.775 102.848 169.967 108.997L169.716 117.441C169.716 117.441 169.38 120.009 168.879 121.373C168.735 121.778 168.683 122.215 168.726 122.647C168.77 123.079 168.908 123.493 169.13 123.853C169.13 123.853 169.548 126.065 168.964 126.065C168.38 126.065 167.375 129.368 167.375 129.368C167.375 129.368 165.954 132.764 166.791 134.324C167.628 135.885 169.465 141.115 169.465 141.115C169.465 141.115 166.541 139.188 165.704 135.976C165.704 135.976 158.601 129.918 153.085 133.764L154.079 114.696Z" fill="#DFE5EE"/>
<path id="Vector_46" opacity="0.1" d="M165.943 108.456C165.943 108.456 153.829 116.625 154.413 123.789C154.413 123.789 161.182 110.658 165.943 108.456Z" fill="black"/>
<path id="Vector_47" opacity="0.1" d="M155.435 116.217L155.493 127.404C153.202 127.517 151.042 127.19 149.335 125.561C148.147 124.425 147.455 122.857 147.097 121.162C146.831 119.795 146.733 118.396 146.807 117.001C146.805 116.987 146.805 116.973 146.807 116.959C146.948 113.87 147.594 110.781 147.254 107.712C146.914 104.642 145.22 101.403 142.454 100.757C141.908 100.627 141.295 100.58 140.906 100.14C140.476 99.6484 140.496 98.8841 140.543 98.2034L140.624 97.0557C140.644 96.7608 140.653 96.4684 140.653 96.1759C140.651 93.5667 139.825 91.0391 138.315 89.0248C136.805 87.0105 134.705 85.6345 132.373 85.1318L132.284 85.1146C131.505 84.9425 130.695 84.773 129.916 84.9696C128.435 85.3456 127.477 86.9233 126.112 87.6729C123.494 89.1081 119.129 87.5377 116.387 87.0437C116.208 87.0118 116.038 86.9749 115.875 86.9331C115.813 86.3384 115.782 85.7402 115.783 85.1416C115.784 82.71 116.294 80.3111 117.273 78.1301C118.252 75.949 119.674 74.0441 121.429 72.5622C123.184 71.0802 125.226 70.061 127.397 69.583C129.568 69.105 131.81 69.181 133.95 69.8052C136.09 70.4295 138.07 71.5852 139.739 73.1833C141.408 74.7813 142.72 76.7791 143.574 79.0223C144.429 81.2655 144.803 83.6943 144.667 86.1214C144.531 88.5484 143.89 90.9088 142.792 93.0204C142.835 93.1138 142.882 93.2072 142.931 93.2957C145.972 98.8251 155.724 95.3281 155.724 95.3281L156.31 115.06L155.435 116.217Z" fill="black"/>
<path id="Vector_48" d="M126.638 87.4003C127.994 86.6483 128.952 85.0705 130.442 84.697C131.219 84.5004 132.029 84.67 132.812 84.8395L132.901 84.8592C135.366 85.3948 137.566 86.9047 139.085 89.1027C140.604 91.3008 141.336 94.0344 141.143 96.7856L141.062 97.9333C141.013 98.6115 140.993 99.3807 141.427 99.8673C141.814 100.307 142.427 100.359 142.973 100.482C145.739 101.131 147.433 104.352 147.773 107.439C148.113 110.526 147.455 113.625 147.325 116.726C147.196 119.827 147.715 123.251 149.849 125.288C153.206 128.483 158.308 126.664 162.75 126.372C160.785 126.372 159.313 124.145 159.205 121.992C159.098 119.84 159.971 117.79 160.805 115.849C161.64 113.907 162.477 111.818 162.291 109.67C162.036 106.721 159.919 104.36 159.109 101.521C158.165 98.2183 159.075 94.6721 159.503 91.2389C160.306 84.81 159.055 77.5726 154.524 73.4169C152.626 71.6794 150.306 70.6104 148.22 69.1556C144.484 66.553 141.536 62.7365 137.759 60.2052C133.982 57.674 128.679 56.7352 125.383 59.9791C124.107 61.2349 123.284 62.9773 121.972 64.1889C119.41 66.5604 115.338 66.6046 113.283 69.5144C111.516 72.0186 111.995 75.5746 112.561 78.6834C113.315 82.8293 112.89 86.056 116.924 86.7933C119.654 87.2676 124.018 88.8379 126.638 87.4003Z" fill="#603556"/>
<path id="Vector_49" opacity="0.1" d="M159.881 124.391C156.648 124.826 153.443 125.05 151.089 122.808C148.955 120.771 148.429 117.35 148.565 114.246C148.702 111.142 149.355 108.041 149.013 104.957C148.67 101.873 146.979 98.6507 144.213 98.0019C143.667 97.8741 143.056 97.8274 142.667 97.3875C142.235 96.896 142.253 96.1293 142.302 95.451L142.383 94.3033C142.576 91.5524 141.844 88.8192 140.325 86.6215C138.806 84.4239 136.606 82.9145 134.141 82.3794L134.052 82.3597C133.269 82.1902 132.458 82.0206 131.682 82.2172C130.201 82.5932 129.243 84.1832 127.878 84.9205C125.258 86.3581 120.896 84.7878 118.151 84.2938C114.123 83.5688 114.544 80.3372 113.787 76.184C113.364 73.864 112.991 71.2935 113.563 69.0964C113.456 69.2218 113.353 69.3422 113.255 69.4921C111.487 71.9963 111.966 75.5524 112.532 78.6611C113.286 82.807 112.861 86.0337 116.895 86.771C119.639 87.2625 124.002 88.8353 126.623 87.3977C127.979 86.6457 128.936 85.0679 130.427 84.6944C131.203 84.4978 132.013 84.6673 132.796 84.8369L132.886 84.8566C135.351 85.3922 137.551 86.9021 139.07 89.1001C140.589 91.2982 141.321 94.0318 141.127 96.783L141.047 97.9306C140.997 98.6089 140.977 99.3781 141.411 99.8647C141.799 100.305 142.412 100.356 142.958 100.479C145.723 101.128 147.417 104.35 147.758 107.436C148.098 110.523 147.442 113.622 147.31 116.723C147.178 119.825 147.699 123.248 149.834 125.285C153.191 128.48 158.293 126.662 162.734 126.369C161.528 126.377 160.515 125.536 159.881 124.391Z" fill="black"/>
<path id="Vector_50" d="M69.0668 132.589L82.8622 126.937C83.1883 126.803 83.5494 126.817 83.8662 126.976C84.183 127.134 84.4295 127.424 84.5516 127.782C84.6734 128.14 84.6607 128.537 84.5164 128.885C84.372 129.233 84.1079 129.504 83.7819 129.638L69.9865 135.29L67.0283 134.966L69.0668 132.589Z" fill="#5C5C8E"/>
<path id="Vector_51" opacity="0.1" d="M84.1356 127.32C84.2572 127.679 84.2442 128.076 84.0994 128.424C83.9547 128.771 83.69 129.042 83.3636 129.176L69.5593 134.848L67.3395 134.602L67.0195 134.975L69.9778 135.3L83.7731 129.648C84.0991 129.513 84.3632 129.243 84.5076 128.895C84.6519 128.547 84.6646 128.15 84.5428 127.792C84.4412 127.493 84.2523 127.24 84.0058 127.072C84.0554 127.151 84.0989 127.234 84.1356 127.32Z" fill="white"/>
<path id="Vector_52" d="M69.0693 132.589L69.9867 135.29L67.5611 135.022L67.0308 134.963L67.7558 134.118L69.0693 132.589Z" fill="#EFC8C4"/>
<path id="Vector_53" d="M67.7535 134.111C67.8101 134.157 67.8586 134.215 67.8967 134.28C67.9193 134.319 67.9314 134.365 67.9314 134.412C67.9314 134.458 67.9193 134.504 67.8967 134.543C67.8585 134.586 67.8139 134.622 67.7646 134.649C67.7092 134.689 67.6628 134.743 67.6287 134.806C67.5947 134.869 67.5738 134.94 67.5677 135.012L67.0352 134.956L67.7535 134.111Z" fill="#727A9C"/>
<path id="Vector_54" d="M112.382 149.839C112.382 149.839 124.331 147.084 144.381 150.576L136.527 144.245L122.237 141.033L112.127 143.982L112.382 149.839Z" fill="white"/>
<path id="Vector_55" opacity="0.1" d="M112.382 149.839C112.382 149.839 124.331 147.084 144.381 150.576L136.527 144.245L122.237 141.033L112.127 143.982L112.382 149.839Z" fill="black"/>
<path id="Vector_56" d="M110.981 152.817C110.981 152.817 116.998 134.941 147.903 152.874L136.811 145.034C136.811 145.034 110.238 136.971 107.168 146.263L110.981 152.817Z" fill="white"/>
<path id="Vector_57" opacity="0.1" d="M110.981 152.805C110.981 152.805 116.998 133.693 147.903 153.149L136.811 144.646C136.811 144.646 110.229 135.003 107.152 145.096L110.981 152.805Z" fill="black"/>
<path id="Vector_58" d="M110.981 152.812C110.981 152.812 116.998 133.417 147.903 152.874L136.811 144.371C136.811 144.371 110.238 135.003 107.168 145.108L110.981 152.812Z" fill="white"/>
<path id="Vector_59" opacity="0.1" d="M110.981 152.817C110.981 152.817 116.998 131.262 147.903 153.149L136.802 143.582C136.802 143.582 110.229 133.752 107.159 145.096L110.981 152.817Z" fill="black"/>
<path id="Vector_60" d="M110.981 152.805C110.981 152.805 116.998 130.987 147.903 152.874L136.802 143.306C136.802 143.306 110.229 133.476 107.159 144.82L110.981 152.805Z" fill="white"/>
<path id="Vector_61" opacity="0.1" d="M203.697 150.75C203.697 150.75 196.279 159.477 202.957 163.716C202.957 163.716 203.829 164.871 205.076 164.267C205.076 164.267 204.655 163.856 205.499 163.065C205.797 162.781 206.063 162.459 206.293 162.106C206.604 161.63 206.766 161.056 206.754 160.47C206.754 160.47 207.725 157.007 204.639 152.512C204.639 152.512 204.36 151.008 204.122 150.844L203.558 152.94C203.558 152.94 204.975 153.336 205.508 154.52C205.508 154.52 203.641 152.91 203.46 153.247C203.424 153.316 203.207 154.375 203.207 154.375C203.207 154.375 205.669 155.073 206.438 156.931C206.438 156.931 204.449 154.687 203.122 154.776L202.88 156.393C202.88 156.393 205.514 156.992 206.461 159.071C206.461 159.071 204.308 156.803 202.845 156.752L202.802 158.376C202.802 158.376 205.36 159.015 206.141 160.75C206.141 160.75 203.413 158.408 202.816 158.749C202.816 158.749 202.858 160.246 203.039 160.637C203.039 160.637 204.865 161.128 205.237 162.195C205.237 162.195 203.263 160.841 203.093 161.047C203.093 161.047 203.623 162.979 204.362 163.802C204.362 163.802 203.189 162.674 202.822 161.153C202.822 161.153 202.326 162.104 202.451 163.038C202.451 163.038 201.719 162.148 202.699 160.684C202.699 160.684 202.341 159.16 202.431 158.919C202.431 158.919 201.278 160.214 200.983 161.377C200.983 161.377 200.759 159.922 202.428 158.499L202.428 156.862C202.428 156.862 200.822 158.487 200.491 159.492C200.491 159.492 200.468 157.968 202.462 156.452L202.686 154.862C202.686 154.862 201.204 156.145 200.616 157.177C200.616 157.177 200.871 155.756 202.764 154.409L203.026 153.368C203.026 153.368 201.961 154.326 201.683 154.631C201.406 154.935 201.301 154.876 201.301 154.876C201.737 154.052 202.372 153.377 203.136 152.925C203.136 152.925 203.82 150.807 203.697 150.75Z" fill="#DE756D"/>
<path id="Vector_62" opacity="0.1" d="M236.858 8.75415C236.858 8.75415 226.947 13.6692 231.619 20.4004C231.619 20.4004 232.02 21.838 233.38 21.8086C233.38 21.8086 233.136 21.2507 234.192 20.8772C234.568 20.7424 234.927 20.5584 235.262 20.3291C235.716 20.0216 236.067 19.5601 236.262 19.0143C236.262 19.0143 238.375 16.2324 237.106 10.7792C237.106 10.7792 237.377 9.27269 237.216 9.01956L235.958 10.7153C235.958 10.7153 237.126 11.6786 237.202 12.9983C237.202 12.9983 236.047 10.7226 235.761 10.9586C235.703 11.0052 235.132 11.89 235.132 11.89C235.132 11.89 237.146 13.5758 237.216 15.618C237.216 15.618 236.168 12.7034 234.911 12.2217L234.121 13.6127C234.121 13.6127 236.341 15.2814 236.488 17.6013C236.488 17.6013 235.298 14.5982 233.966 13.9297L233.356 15.4042C233.356 15.4042 235.493 17.0778 235.593 19.0094C235.593 19.0094 233.899 15.6918 233.228 15.7557C233.228 15.7557 232.742 17.1515 232.78 17.5914C232.78 17.5914 234.289 18.8202 234.262 19.9605C234.262 19.9605 232.919 17.8765 232.695 17.9945C232.695 17.9945 232.505 19.9998 232.899 21.0738C232.899 21.0738 232.212 19.5353 232.409 17.9773C232.409 17.9773 231.615 18.6457 231.404 19.5599C231.404 19.5599 231.042 18.427 232.46 17.4907C232.46 17.4907 232.664 15.9351 232.832 15.7507C232.832 15.7507 231.313 16.4561 230.637 17.3948C230.637 17.3948 230.939 15.9572 232.982 15.3526L233.564 13.8486C233.564 13.8486 231.512 14.6645 230.852 15.4509C230.852 15.4509 231.366 14.0354 233.738 13.4849L234.501 12.1136C234.501 12.1136 232.684 12.6715 231.778 13.3719C231.778 13.3719 232.514 12.1726 234.734 11.7302L235.34 10.8799C235.34 10.8799 234.02 11.3124 233.651 11.4746C233.282 11.6368 233.203 11.541 233.203 11.541C233.899 10.963 234.727 10.609 235.595 10.5187C235.595 10.5187 236.938 8.85245 236.858 8.75415Z" fill="#DE756D"/>
<path id="Vector_63" opacity="0.1" d="M142.792 11.7966C142.792 11.7966 127.902 16.4659 135.141 23.4158C135.141 23.4158 135.783 24.8904 137.844 24.8904C137.844 24.8904 137.459 24.3202 139.053 23.9737C139.601 23.8525 140.139 23.6782 140.659 23.4527C141.273 23.2165 141.796 22.758 142.141 22.1527C142.141 22.1527 145.273 19.4002 143.217 13.8511C143.217 13.8511 143.591 12.3373 143.34 12.0768L141.478 13.7528C141.478 13.7528 143.268 14.7629 143.418 16.0973C143.418 16.0973 141.613 13.7651 141.181 13.9937C141.093 14.0404 140.25 14.9152 140.25 14.9152C140.25 14.9152 143.356 16.6797 143.497 18.7465C143.497 18.7465 141.841 15.7705 139.916 15.247L138.753 16.6281C138.753 16.6281 142.154 18.3804 142.434 20.7298C142.434 20.7298 140.559 17.6603 138.527 16.9452L137.632 18.4197C137.632 18.4197 140.908 20.1744 141.123 22.1305C141.123 22.1305 138.475 18.7269 137.459 18.7686C137.459 18.7686 136.759 20.1694 136.822 20.6143C136.822 20.6143 139.135 21.9118 139.124 23.0521C139.124 23.0521 137.034 20.9042 136.69 21.0173C136.69 21.0173 136.452 23.0398 137.075 24.1359C137.075 24.1359 135.996 22.5606 136.256 20.9927C136.256 20.9927 135.072 21.644 134.774 22.5606C134.774 22.5606 134.197 21.408 136.323 20.5037C136.323 20.5037 136.593 18.9358 136.842 18.7539C136.842 18.7539 134.559 19.4224 133.559 20.3513C133.559 20.3513 133.98 18.9063 137.059 18.3558L137.905 16.8518C137.905 16.8518 134.817 17.6185 133.837 18.3926C133.837 18.3926 134.582 16.9771 138.162 16.4856L139.281 15.1217C139.281 15.1217 136.542 15.6304 135.186 16.3136C135.186 16.3136 136.271 15.1217 139.621 14.7408L140.516 13.9003C140.516 13.9003 138.527 14.2984 137.972 14.4508C137.417 14.6031 137.301 14.5048 137.301 14.5048C138.419 13.9102 139.639 13.5819 140.881 13.5415C140.881 13.5415 142.922 11.8998 142.792 11.7966Z" fill="#DE756D"/>
<path id="Vector_64" opacity="0.1" d="M186.72 194.003C186.72 194.003 194.216 185.355 187.577 181.044C187.577 181.044 186.713 179.879 185.462 180.469C185.462 180.469 185.881 180.885 185.031 181.668C184.73 181.949 184.46 182.267 184.227 182.617C183.911 183.09 183.745 183.663 183.753 184.249C183.753 184.249 182.748 187.702 185.796 192.228C185.796 192.228 186.062 193.735 186.297 193.905L186.881 191.813C186.881 191.813 185.467 191.403 184.946 190.213C184.946 190.213 186.796 191.84 186.98 191.506C187.018 191.437 187.244 190.383 187.244 190.383C187.244 190.383 184.782 189.646 184.035 187.793C184.035 187.793 186.004 190.058 187.333 189.982L187.588 188.368C187.588 188.368 184.961 187.741 184.028 185.664C184.028 185.664 186.161 187.955 187.624 188.024L187.68 186.397C187.68 186.397 185.127 185.718 184.353 183.974C184.353 183.974 187.06 186.348 187.66 186.011C187.66 186.011 187.631 184.517 187.436 184.124C187.436 184.124 185.615 183.598 185.252 182.541C185.252 182.541 187.215 183.917 187.385 183.711C187.385 183.711 186.872 181.774 186.14 180.943C186.14 180.943 187.304 182.084 187.658 183.607C187.658 183.607 188.163 182.661 188.045 181.727C188.045 181.727 188.77 182.627 187.776 184.079C187.776 184.079 188.121 185.608 188.029 185.846C188.029 185.846 189.193 184.563 189.497 183.416C189.497 183.416 189.721 184.873 188.027 186.276L188.004 187.913C188.004 187.913 189.625 186.306 189.965 185.303C189.965 185.303 189.965 186.829 187.966 188.323L187.743 189.911C187.743 189.911 189.235 188.643 189.833 187.618C189.833 187.618 189.564 189.034 187.66 190.361L187.389 191.4C187.389 191.4 188.463 190.454 188.75 190.152C189.036 189.85 189.134 189.906 189.134 189.906C188.692 190.726 188.05 191.395 187.282 191.838C187.282 191.838 186.608 193.944 186.72 194.003Z" fill="#DE756D"/>
<path id="Vector_65" opacity="0.1" d="M113.608 0.305198C113.608 0.305198 114.886 12.1603 122.145 9.29976C122.145 9.29976 123.512 9.31205 123.897 7.87685C123.897 7.87685 123.337 7.96532 123.333 6.74639C123.328 6.31277 123.276 5.88135 123.179 5.4611C123.05 4.89253 122.755 4.38589 122.339 4.01853C122.339 4.01853 120.558 0.966274 115.432 0.666455C115.432 0.666455 114.205 -0.0708043 113.937 0.0225819L115.031 1.84853C115.031 1.84853 116.219 0.914666 117.387 1.23415C117.387 1.23415 115.065 1.76006 115.183 2.12869C115.206 2.20487 115.801 3.06746 115.801 3.06746C115.801 3.06746 117.893 1.44549 119.683 1.99844C119.683 1.99844 116.839 2.2147 116.043 3.38694L116.998 4.63537C116.998 4.63537 119.115 2.81188 121.176 3.355C121.176 3.355 118.209 3.69905 117.226 4.89095L118.341 5.97718C118.341 5.97718 120.435 4.24216 122.145 4.70909C122.145 4.70909 118.752 5.48567 118.605 6.20573C118.605 6.20573 119.672 7.13468 120.066 7.23298C120.066 7.23298 121.596 6.02633 122.568 6.39496C122.568 6.39496 120.352 7.17646 120.386 7.4517C120.386 7.4517 122.071 8.25286 123.12 8.16438C123.12 8.16438 121.579 8.41014 120.285 7.7466C120.285 7.7466 120.625 8.77631 121.357 9.27519C121.357 9.27519 120.265 9.31205 119.878 7.55492C119.878 7.55492 118.589 6.87172 118.479 6.64317C118.479 6.64317 118.636 8.44454 119.247 9.43493C119.247 9.43493 118.088 8.69767 118.177 6.36547L117.058 5.30136C117.058 5.30136 117.15 7.69745 117.634 8.6264C117.634 8.6264 116.559 7.66059 116.792 5.00891L115.832 3.79735C115.832 3.79735 115.767 5.86659 116.103 7.02655C116.103 7.02655 115.282 5.89608 115.568 3.43855L115.011 2.54647C115.011 2.54647 114.991 4.05785 115.011 4.49529C115.031 4.93273 114.935 4.97451 114.935 4.97451C114.641 4.07405 114.58 3.10154 114.76 2.16555C114.76 2.16555 113.72 0.246217 113.608 0.305198Z" fill="#DE756D"/>
<path id="Vector_66" opacity="0.1" d="M167.863 167.115C167.863 167.115 157.386 163.92 157.051 172.384C157.051 172.384 156.523 173.77 157.585 174.704C157.585 174.704 157.722 174.104 158.751 174.559C159.118 174.719 159.502 174.83 159.892 174.891C160.421 174.974 160.96 174.866 161.428 174.581C161.428 174.581 164.672 173.927 166.874 168.845C166.874 168.845 167.959 167.879 167.993 167.57L166.039 167.99C166.039 167.99 166.375 169.553 165.663 170.62C165.663 170.62 166.111 168.059 165.746 168.039C165.672 168.039 164.719 168.312 164.719 168.312C164.719 168.312 165.292 171.03 164.149 172.64C164.149 172.64 165.044 169.666 164.357 168.413L162.938 168.926C162.938 168.926 163.672 171.767 162.432 173.655C162.432 173.655 163.269 170.511 162.634 169.062L161.304 169.772C161.304 169.772 161.976 172.559 160.931 174.122C160.931 174.122 161.562 170.381 161.009 169.956C161.009 169.956 159.823 170.693 159.593 171.052C159.593 171.052 160.04 173.065 159.351 173.913C159.351 173.913 159.53 171.364 159.286 171.295C159.286 171.295 157.97 172.704 157.648 173.805C157.648 173.805 158.017 172.141 159.076 171.082C159.076 171.082 158.078 171.037 157.382 171.59C157.382 171.59 157.762 170.467 159.396 170.745C159.396 170.745 160.461 169.691 160.696 169.669C160.696 169.669 159.129 169.143 158.051 169.388C158.051 169.388 159.12 168.494 161.043 169.467L162.367 168.73C162.367 168.73 160.313 167.916 159.349 168.056C159.349 168.056 160.568 167.319 162.705 168.57L164.088 168.051C164.088 168.051 162.37 167.204 161.264 167.105C161.264 167.105 162.528 166.7 164.491 167.921L165.453 167.693C165.453 167.693 164.187 167.098 163.808 166.955C163.43 166.813 163.433 166.71 163.433 166.71C164.299 166.753 165.138 167.059 165.856 167.594C165.856 167.594 167.87 167.25 167.863 167.115Z" fill="#DE756D"/>
</g>
<defs>
<linearGradient id="paint0_linear" x1="119.65" y1="147.275" x2="119.65" y2="57.0816" gradientUnits="userSpaceOnUse">
<stop stop-color="#808080" stop-opacity="0.25"/>
<stop offset="0.54" stop-color="#808080" stop-opacity="0.12"/>
<stop offset="1" stop-color="#808080" stop-opacity="0.1"/>
</linearGradient>
<clipPath id="clip0">
<rect width="237" height="194" fill="white" transform="translate(0.513184 0.000488281)"/>
</clipPath>
</defs>
</svg>
